<?xml version="1.0" encoding="UTF-8" standalone="no"?>
<!DOCTYPE svg PUBLIC "-//W3C//DTD SVG 1.1//EN"
 "http://www.w3.org/Graphics/SVG/1.1/DTD/svg11.dtd">
<!-- Generated by graphviz version 5.0.0 (20220707.1540)
 -->
<!-- Title: dependencies Pages: 1 -->
<svg width="734pt" height="174pt"
 viewBox="0.00 0.00 734.00 173.80" xmlns="http://www.w3.org/2000/svg" xmlns:xlink="http://www.w3.org/1999/xlink">
<g id="graph0" class="graph" transform="scale(1 1) rotate(0) translate(4 169.8)">
<title>dependencies</title>
<polygon fill="white" stroke="transparent" points="-4,4 -4,-169.8 730,-169.8 730,4 -4,4"/>
<text text-anchor="middle" x="363" y="-8.2" font-family="sans-serif" font-size="14.00">dependencies</text>
<g id="clust1" class="cluster">
<title>cluster_ExportLogModule</title>
<polygon fill="none" stroke="black" stroke-dasharray="1,5" points="8,-32.8 8,-157.8 718,-157.8 718,-32.8 8,-32.8"/>
</g>
<g id="clust5" class="cluster">
<title>cluster_ExportLogModule_imports</title>
<polygon fill="none" stroke="black" points="412,-40.8 412,-92.8 710,-92.8 710,-40.8 412,-40.8"/>
</g>
<g id="clust2" class="cluster">
<title>cluster_ExportLogModule_declarations</title>
<polygon fill="none" stroke="black" points="16,-40.8 16,-92.8 404,-92.8 404,-40.8 16,-40.8"/>
</g>
<!-- ExportLogChildDialogComponent -->
<g id="node1" class="node">
<title>ExportLogChildDialogComponent</title>
<polygon fill="#ffffb3" stroke="black" points="395.71,-84.8 184.29,-84.8 184.29,-48.8 395.71,-48.8 395.71,-84.8"/>
<text text-anchor="middle" x="290" y="-62.6" font-family="Times,serif" font-size="14.00">ExportLogChildDialogComponent</text>
</g>
<!-- ExportLogModule -->
<g id="node3" class="node">
<title>ExportLogModule</title>
<polygon fill="#8dd3c7" stroke="black" points="439.21,-149.8 436.21,-153.8 415.21,-153.8 412.21,-149.8 318.79,-149.8 318.79,-113.8 439.21,-113.8 439.21,-149.8"/>
<text text-anchor="middle" x="379" y="-127.6" font-family="Times,serif" font-size="14.00">ExportLogModule</text>
</g>
<!-- ExportLogChildDialogComponent&#45;&gt;ExportLogModule -->
<g id="edge1" class="edge">
<title>ExportLogChildDialogComponent&#45;&gt;ExportLogModule</title>
<path fill="none" stroke="black" d="M357.25,-84.91C357.25,-84.91 357.25,-103.79 357.25,-103.79"/>
<polygon fill="black" stroke="black" points="353.75,-103.79 357.25,-113.79 360.75,-103.79 353.75,-103.79"/>
</g>
<!-- ExportLogComponent -->
<g id="node2" class="node">
<title>ExportLogComponent</title>
<polygon fill="#ffffb3" stroke="black" points="165.99,-84.8 24.01,-84.8 24.01,-48.8 165.99,-48.8 165.99,-84.8"/>
<text text-anchor="middle" x="95" y="-62.6" font-family="Times,serif" font-size="14.00">ExportLogComponent</text>
</g>
<!-- ExportLogComponent&#45;&gt;ExportLogModule -->
<g id="edge2" class="edge">
<title>ExportLogComponent&#45;&gt;ExportLogModule</title>
<path fill="none" stroke="black" d="M95,-84.91C95,-104.14 95,-131.8 95,-131.8 95,-131.8 308.77,-131.8 308.77,-131.8"/>
<polygon fill="black" stroke="black" points="308.77,-135.3 318.77,-131.8 308.77,-128.3 308.77,-135.3"/>
</g>
<!-- ExportLogRoutingModule -->
<g id="node4" class="node">
<title>ExportLogRoutingModule</title>
<polygon fill="#8dd3c7" stroke="black" points="701.82,-84.8 698.82,-88.8 677.82,-88.8 674.82,-84.8 536.18,-84.8 536.18,-48.8 701.82,-48.8 701.82,-84.8"/>
<text text-anchor="middle" x="619" y="-62.6" font-family="Times,serif" font-size="14.00">ExportLogRoutingModule</text>
</g>
<!-- ExportLogRoutingModule&#45;&gt;ExportLogModule -->
<g id="edge3" class="edge">
<title>ExportLogRoutingModule&#45;&gt;ExportLogModule</title>
<path fill="none" stroke="black" d="M619,-84.91C619,-104.14 619,-131.8 619,-131.8 619,-131.8 449.25,-131.8 449.25,-131.8"/>
<polygon fill="black" stroke="black" points="449.25,-128.3 439.25,-131.8 449.25,-135.3 449.25,-128.3"/>
</g>
<!-- SharedModule -->
<g id="node5" class="node">
<title>SharedModule</title>
<polygon fill="#8dd3c7" stroke="black" points="518.43,-84.8 515.43,-88.8 494.43,-88.8 491.43,-84.8 419.57,-84.8 419.57,-48.8 518.43,-48.8 518.43,-84.8"/>
<text text-anchor="middle" x="469" y="-62.6" font-family="Times,serif" font-size="14.00">SharedModule</text>
</g>
<!-- SharedModule&#45;&gt;ExportLogModule -->
<g id="edge4" class="edge">
<title>SharedModule&#45;&gt;ExportLogModule</title>
<path fill="none" stroke="black" d="M429.44,-84.91C429.44,-84.91 429.44,-103.79 429.44,-103.79"/>
<polygon fill="black" stroke="black" points="425.94,-103.79 429.44,-113.79 432.94,-103.79 425.94,-103.79"/>
</g>
</g>
</svg>
