<?xml version="1.0" encoding="UTF-8" standalone="no"?>
<!DOCTYPE svg PUBLIC "-//W3C//DTD SVG 1.1//EN"
 "http://www.w3.org/Graphics/SVG/1.1/DTD/svg11.dtd">
<!-- Generated by graphviz version 5.0.0 (20220707.1540)
 -->
<!-- Title: dependencies Pages: 1 -->
<svg width="734pt" height="174pt"
 viewBox="0.00 0.00 734.00 173.80" xmlns="http://www.w3.org/2000/svg" xmlns:xlink="http://www.w3.org/1999/xlink">
<g id="graph0" class="graph" transform="scale(1 1) rotate(0) translate(4 169.8)">
<title>dependencies</title>
<polygon fill="white" stroke="transparent" points="-4,4 -4,-169.8 730,-169.8 730,4 -4,4"/>
<text text-anchor="middle" x="363" y="-8.2" font-family="sans-serif" font-size="14.00">dependencies</text>
<g id="clust1" class="cluster">
<title>cluster_ExportLogModule</title>
<polygon fill="none" stroke="black" stroke-dasharray="1,5" points="8,-32.8 8,-157.8 718,-157.8 718,-32.8 8,-32.8"/>
</g>
<g id="clust2" class="cluster">
<title>cluster_ExportLogModule_declarations</title>
<polygon fill="none" stroke="black" points="322,-40.8 322,-92.8 710,-92.8 710,-40.8 322,-40.8"/>
</g>
<g id="clust5" class="cluster">
<title>cluster_ExportLogModule_imports</title>
<polygon fill="none" stroke="black" points="16,-40.8 16,-92.8 314,-92.8 314,-40.8 16,-40.8"/>
</g>
<!-- ExportLogChildDialogComponent -->
<g id="node1" class="node">
<title>ExportLogChildDialogComponent</title>
<polygon fill="#ffffb3" stroke="black" points="701.71,-84.8 490.29,-84.8 490.29,-48.8 701.71,-48.8 701.71,-84.8"/>
<text text-anchor="middle" x="596" y="-62.6" font-family="Times,serif" font-size="14.00">ExportLogChildDialogComponent</text>
</g>
<!-- ExportLogModule -->
<g id="node3" class="node">
<title>ExportLogModule</title>
<polygon fill="#8dd3c7" stroke="black" points="372.21,-149.8 369.21,-153.8 348.21,-153.8 345.21,-149.8 251.79,-149.8 251.79,-113.8 372.21,-113.8 372.21,-149.8"/>
<text text-anchor="middle" x="312" y="-127.6" font-family="Times,serif" font-size="14.00">ExportLogModule</text>
</g>
<!-- ExportLogChildDialogComponent&#45;&gt;ExportLogModule -->
<g id="edge1" class="edge">
<title>ExportLogChildDialogComponent&#45;&gt;ExportLogModule</title>
<path fill="none" stroke="black" d="M596,-84.91C596,-104.14 596,-131.8 596,-131.8 596,-131.8 382.23,-131.8 382.23,-131.8"/>
<polygon fill="black" stroke="black" points="382.23,-128.3 372.23,-131.8 382.23,-135.3 382.23,-128.3"/>
</g>
<!-- ExportLogComponent -->
<g id="node2" class="node">
<title>ExportLogComponent</title>
<polygon fill="#ffffb3" stroke="black" points="471.99,-84.8 330.01,-84.8 330.01,-48.8 471.99,-48.8 471.99,-84.8"/>
<text text-anchor="middle" x="401" y="-62.6" font-family="Times,serif" font-size="14.00">ExportLogComponent</text>
</g>
<!-- ExportLogComponent&#45;&gt;ExportLogModule -->
<g id="edge2" class="edge">
<title>ExportLogComponent&#45;&gt;ExportLogModule</title>
<path fill="none" stroke="black" d="M351.06,-84.91C351.06,-84.91 351.06,-103.79 351.06,-103.79"/>
<polygon fill="black" stroke="black" points="347.56,-103.79 351.06,-113.79 354.56,-103.79 347.56,-103.79"/>
</g>
<!-- ExportLogRoutingModule -->
<g id="node4" class="node">
<title>ExportLogRoutingModule</title>
<polygon fill="#8dd3c7" stroke="black" points="305.82,-84.8 302.82,-88.8 281.82,-88.8 278.82,-84.8 140.18,-84.8 140.18,-48.8 305.82,-48.8 305.82,-84.8"/>
<text text-anchor="middle" x="223" y="-62.6" font-family="Times,serif" font-size="14.00">ExportLogRoutingModule</text>
</g>
<!-- ExportLogRoutingModule&#45;&gt;ExportLogModule -->
<g id="edge3" class="edge">
<title>ExportLogRoutingModule&#45;&gt;ExportLogModule</title>
<path fill="none" stroke="black" d="M278.78,-84.91C278.78,-84.91 278.78,-103.79 278.78,-103.79"/>
<polygon fill="black" stroke="black" points="275.28,-103.79 278.78,-113.79 282.28,-103.79 275.28,-103.79"/>
</g>
<!-- SharedModule -->
<g id="node5" class="node">
<title>SharedModule</title>
<polygon fill="#8dd3c7" stroke="black" points="122.43,-84.8 119.43,-88.8 98.43,-88.8 95.43,-84.8 23.57,-84.8 23.57,-48.8 122.43,-48.8 122.43,-84.8"/>
<text text-anchor="middle" x="73" y="-62.6" font-family="Times,serif" font-size="14.00">SharedModule</text>
</g>
<!-- SharedModule&#45;&gt;ExportLogModule -->
<g id="edge4" class="edge">
<title>SharedModule&#45;&gt;ExportLogModule</title>
<path fill="none" stroke="black" d="M73,-84.91C73,-104.14 73,-131.8 73,-131.8 73,-131.8 241.69,-131.8 241.69,-131.8"/>
<polygon fill="black" stroke="black" points="241.69,-135.3 251.69,-131.8 241.69,-128.3 241.69,-135.3"/>
</g>
</g>
</svg>
