<?xml version="1.0" encoding="UTF-8" standalone="no"?>
<!DOCTYPE svg PUBLIC "-//W3C//DTD SVG 1.1//EN"
 "http://www.w3.org/Graphics/SVG/1.1/DTD/svg11.dtd">
<!-- Generated by graphviz version 2.47.0 (20210316.0004)
 -->
<!-- Title: dependencies Pages: 1 -->
<svg width="734pt" height="211pt"
 viewBox="0.00 0.00 734.00 211.00" xmlns="http://www.w3.org/2000/svg" xmlns:xlink="http://www.w3.org/1999/xlink">
<g id="graph0" class="graph" transform="scale(1 1) rotate(0) translate(4 207)">
<title>dependencies</title>
<polygon fill="white" stroke="transparent" points="-4,4 -4,-207 730,-207 730,4 -4,4"/>
<text text-anchor="start" x="342.01" y="-42.4" font-family="Times-12" font-weight="bold" font-size="14.00">Legend</text>
<polygon fill="#ffffb3" stroke="transparent" points="129,-10 129,-30 149,-30 149,-10 129,-10"/>
<text text-anchor="start" x="152.63" y="-15.4" font-family="Times-12" font-size="14.00"> &#160;Declarations</text>
<polygon fill="#8dd3c7" stroke="transparent" points="242,-10 242,-30 262,-30 262,-10 242,-10"/>
<text text-anchor="start" x="265.73" y="-15.4" font-family="Times-12" font-size="14.00"> &#160;Module</text>
<polygon fill="#80b1d3" stroke="transparent" points="328,-10 328,-30 348,-30 348,-10 328,-10"/>
<text text-anchor="start" x="351.78" y="-15.4" font-family="Times-12" font-size="14.00"> &#160;Bootstrap</text>
<polygon fill="#fdb462" stroke="transparent" points="425,-10 425,-30 445,-30 445,-10 425,-10"/>
<text text-anchor="start" x="448.67" y="-15.4" font-family="Times-12" font-size="14.00"> &#160;Providers</text>
<polygon fill="#fb8072" stroke="transparent" points="521,-10 521,-30 541,-30 541,-10 521,-10"/>
<text text-anchor="start" x="544.73" y="-15.4" font-family="Times-12" font-size="14.00"> &#160;Exports</text>
<g id="clust1" class="cluster">
<title>cluster_ExportLogModule</title>
<polygon fill="none" stroke="black" stroke-dasharray="1,5" points="8,-70 8,-195 718,-195 718,-70 8,-70"/>
</g>
<g id="clust2" class="cluster">
<title>cluster_ExportLogModule_declarations</title>
<polygon fill="none" stroke="black" points="322,-78 322,-130 710,-130 710,-78 322,-78"/>
</g>
<g id="clust5" class="cluster">
<title>cluster_ExportLogModule_imports</title>
<polygon fill="none" stroke="black" points="16,-78 16,-130 314,-130 314,-78 16,-78"/>
</g>
<!-- ExportLogChildDialogComponent -->
<g id="node1" class="node">
<title>ExportLogChildDialogComponent</title>
<polygon fill="#ffffb3" stroke="black" points="701.71,-122 490.29,-122 490.29,-86 701.71,-86 701.71,-122"/>
<text text-anchor="middle" x="596" y="-99.8" font-family="Times,serif" font-size="14.00">ExportLogChildDialogComponent</text>
</g>
<!-- ExportLogModule -->
<g id="node3" class="node">
<title>ExportLogModule</title>
<polygon fill="#8dd3c7" stroke="black" points="372.21,-187 369.21,-191 348.21,-191 345.21,-187 251.79,-187 251.79,-151 372.21,-151 372.21,-187"/>
<text text-anchor="middle" x="312" y="-164.8" font-family="Times,serif" font-size="14.00">ExportLogModule</text>
</g>
<!-- ExportLogChildDialogComponent&#45;&gt;ExportLogModule -->
<g id="edge1" class="edge">
<title>ExportLogChildDialogComponent&#45;&gt;ExportLogModule</title>
<path fill="none" stroke="black" d="M596,-122.11C596,-141.34 596,-169 596,-169 596,-169 382.23,-169 382.23,-169"/>
<polygon fill="black" stroke="black" points="382.23,-165.5 372.23,-169 382.23,-172.5 382.23,-165.5"/>
</g>
<!-- ExportLogComponent -->
<g id="node2" class="node">
<title>ExportLogComponent</title>
<polygon fill="#ffffb3" stroke="black" points="471.99,-122 330.01,-122 330.01,-86 471.99,-86 471.99,-122"/>
<text text-anchor="middle" x="401" y="-99.8" font-family="Times,serif" font-size="14.00">ExportLogComponent</text>
</g>
<!-- ExportLogComponent&#45;&gt;ExportLogModule -->
<g id="edge2" class="edge">
<title>ExportLogComponent&#45;&gt;ExportLogModule</title>
<path fill="none" stroke="black" d="M351.05,-122.11C351.05,-122.11 351.05,-140.99 351.05,-140.99"/>
<polygon fill="black" stroke="black" points="347.55,-140.99 351.05,-150.99 354.55,-140.99 347.55,-140.99"/>
</g>
<!-- ExportLogRoutingModule -->
<g id="node4" class="node">
<title>ExportLogRoutingModule</title>
<polygon fill="#8dd3c7" stroke="black" points="305.82,-122 302.82,-126 281.82,-126 278.82,-122 140.18,-122 140.18,-86 305.82,-86 305.82,-122"/>
<text text-anchor="middle" x="223" y="-99.8" font-family="Times,serif" font-size="14.00">ExportLogRoutingModule</text>
</g>
<!-- ExportLogRoutingModule&#45;&gt;ExportLogModule -->
<g id="edge3" class="edge">
<title>ExportLogRoutingModule&#45;&gt;ExportLogModule</title>
<path fill="none" stroke="black" d="M278.78,-122.11C278.78,-122.11 278.78,-140.99 278.78,-140.99"/>
<polygon fill="black" stroke="black" points="275.28,-140.99 278.78,-150.99 282.28,-140.99 275.28,-140.99"/>
</g>
<!-- SharedModule -->
<g id="node5" class="node">
<title>SharedModule</title>
<polygon fill="#8dd3c7" stroke="black" points="122.42,-122 119.42,-126 98.42,-126 95.42,-122 23.58,-122 23.58,-86 122.42,-86 122.42,-122"/>
<text text-anchor="middle" x="73" y="-99.8" font-family="Times,serif" font-size="14.00">SharedModule</text>
</g>
<!-- SharedModule&#45;&gt;ExportLogModule -->
<g id="edge4" class="edge">
<title>SharedModule&#45;&gt;ExportLogModule</title>
<path fill="none" stroke="black" d="M73,-122.11C73,-141.34 73,-169 73,-169 73,-169 241.69,-169 241.69,-169"/>
<polygon fill="black" stroke="black" points="241.69,-172.5 251.69,-169 241.69,-165.5 241.69,-172.5"/>
</g>
</g>
</svg>
