<?xml version="1.0" encoding="UTF-8" standalone="no"?>
<!DOCTYPE svg PUBLIC "-//W3C//DTD SVG 1.1//EN"
 "http://www.w3.org/Graphics/SVG/1.1/DTD/svg11.dtd">
<!-- Generated by graphviz version 2.47.0 (20210316.0004)
 -->
<!-- Title: dependencies Pages: 1 -->
<svg width="734pt" height="211pt"
 viewBox="0.00 0.00 734.00 211.00" xmlns="http://www.w3.org/2000/svg" xmlns:xlink="http://www.w3.org/1999/xlink">
<g id="graph0" class="graph" transform="scale(1 1) rotate(0) translate(4 207)">
<title>dependencies</title>
<polygon fill="white" stroke="transparent" points="-4,4 -4,-207 730,-207 730,4 -4,4"/>
<text text-anchor="start" x="342.01" y="-42.4" font-family="Times-12" font-weight="bold" font-size="14.00">Legend</text>
<polygon fill="#ffffb3" stroke="transparent" points="129,-10 129,-30 149,-30 149,-10 129,-10"/>
<text text-anchor="start" x="152.63" y="-15.4" font-family="Times-12" font-size="14.00"> &#160;Declarations</text>
<polygon fill="#8dd3c7" stroke="transparent" points="242,-10 242,-30 262,-30 262,-10 242,-10"/>
<text text-anchor="start" x="265.73" y="-15.4" font-family="Times-12" font-size="14.00"> &#160;Module</text>
<polygon fill="#80b1d3" stroke="transparent" points="328,-10 328,-30 348,-30 348,-10 328,-10"/>
<text text-anchor="start" x="351.78" y="-15.4" font-family="Times-12" font-size="14.00"> &#160;Bootstrap</text>
<polygon fill="#fdb462" stroke="transparent" points="425,-10 425,-30 445,-30 445,-10 425,-10"/>
<text text-anchor="start" x="448.67" y="-15.4" font-family="Times-12" font-size="14.00"> &#160;Providers</text>
<polygon fill="#fb8072" stroke="transparent" points="521,-10 521,-30 541,-30 541,-10 521,-10"/>
<text text-anchor="start" x="544.73" y="-15.4" font-family="Times-12" font-size="14.00"> &#160;Exports</text>
<g id="clust1" class="cluster">
<title>cluster_ExportLogModule</title>
<polygon fill="none" stroke="black" stroke-dasharray="1,5" points="8,-70 8,-195 718,-195 718,-70 8,-70"/>
</g>
<g id="clust5" class="cluster">
<title>cluster_ExportLogModule_imports</title>
<polygon fill="none" stroke="black" points="412,-78 412,-130 710,-130 710,-78 412,-78"/>
</g>
<g id="clust2" class="cluster">
<title>cluster_ExportLogModule_declarations</title>
<polygon fill="none" stroke="black" points="16,-78 16,-130 404,-130 404,-78 16,-78"/>
</g>
<!-- ExportLogChildDialogComponent -->
<g id="node1" class="node">
<title>ExportLogChildDialogComponent</title>
<polygon fill="#ffffb3" stroke="black" points="395.71,-122 184.29,-122 184.29,-86 395.71,-86 395.71,-122"/>
<text text-anchor="middle" x="290" y="-99.8" font-family="Times,serif" font-size="14.00">ExportLogChildDialogComponent</text>
</g>
<!-- ExportLogModule -->
<g id="node3" class="node">
<title>ExportLogModule</title>
<polygon fill="#8dd3c7" stroke="black" points="439.21,-187 436.21,-191 415.21,-191 412.21,-187 318.79,-187 318.79,-151 439.21,-151 439.21,-187"/>
<text text-anchor="middle" x="379" y="-164.8" font-family="Times,serif" font-size="14.00">ExportLogModule</text>
</g>
<!-- ExportLogChildDialogComponent&#45;&gt;ExportLogModule -->
<g id="edge1" class="edge">
<title>ExportLogChildDialogComponent&#45;&gt;ExportLogModule</title>
<path fill="none" stroke="black" d="M357.25,-122.11C357.25,-122.11 357.25,-140.99 357.25,-140.99"/>
<polygon fill="black" stroke="black" points="353.75,-140.99 357.25,-150.99 360.75,-140.99 353.75,-140.99"/>
</g>
<!-- ExportLogComponent -->
<g id="node2" class="node">
<title>ExportLogComponent</title>
<polygon fill="#ffffb3" stroke="black" points="165.99,-122 24.01,-122 24.01,-86 165.99,-86 165.99,-122"/>
<text text-anchor="middle" x="95" y="-99.8" font-family="Times,serif" font-size="14.00">ExportLogComponent</text>
</g>
<!-- ExportLogComponent&#45;&gt;ExportLogModule -->
<g id="edge2" class="edge">
<title>ExportLogComponent&#45;&gt;ExportLogModule</title>
<path fill="none" stroke="black" d="M95,-122.11C95,-141.34 95,-169 95,-169 95,-169 308.77,-169 308.77,-169"/>
<polygon fill="black" stroke="black" points="308.77,-172.5 318.77,-169 308.77,-165.5 308.77,-172.5"/>
</g>
<!-- ExportLogRoutingModule -->
<g id="node4" class="node">
<title>ExportLogRoutingModule</title>
<polygon fill="#8dd3c7" stroke="black" points="701.82,-122 698.82,-126 677.82,-126 674.82,-122 536.18,-122 536.18,-86 701.82,-86 701.82,-122"/>
<text text-anchor="middle" x="619" y="-99.8" font-family="Times,serif" font-size="14.00">ExportLogRoutingModule</text>
</g>
<!-- ExportLogRoutingModule&#45;&gt;ExportLogModule -->
<g id="edge3" class="edge">
<title>ExportLogRoutingModule&#45;&gt;ExportLogModule</title>
<path fill="none" stroke="black" d="M619,-122.11C619,-141.34 619,-169 619,-169 619,-169 449.25,-169 449.25,-169"/>
<polygon fill="black" stroke="black" points="449.25,-165.5 439.25,-169 449.25,-172.5 449.25,-165.5"/>
</g>
<!-- SharedModule -->
<g id="node5" class="node">
<title>SharedModule</title>
<polygon fill="#8dd3c7" stroke="black" points="518.42,-122 515.42,-126 494.42,-126 491.42,-122 419.58,-122 419.58,-86 518.42,-86 518.42,-122"/>
<text text-anchor="middle" x="469" y="-99.8" font-family="Times,serif" font-size="14.00">SharedModule</text>
</g>
<!-- SharedModule&#45;&gt;ExportLogModule -->
<g id="edge4" class="edge">
<title>SharedModule&#45;&gt;ExportLogModule</title>
<path fill="none" stroke="black" d="M429.45,-122.11C429.45,-122.11 429.45,-140.99 429.45,-140.99"/>
<polygon fill="black" stroke="black" points="425.95,-140.99 429.45,-150.99 432.95,-140.99 425.95,-140.99"/>
</g>
</g>
</svg>
