<?xml version="1.0" encoding="UTF-8" standalone="no"?>
<!DOCTYPE svg PUBLIC "-//W3C//DTD SVG 1.1//EN"
 "http://www.w3.org/Graphics/SVG/1.1/DTD/svg11.dtd">
<!-- Generated by graphviz version 2.47.0 (20210316.0004)
 -->
<!-- Title: dependencies Pages: 1 -->
<svg width="884pt" height="211pt"
 viewBox="0.00 0.00 884.00 211.00" xmlns="http://www.w3.org/2000/svg" xmlns:xlink="http://www.w3.org/1999/xlink">
<g id="graph0" class="graph" transform="scale(1 1) rotate(0) translate(4 207)">
<title>dependencies</title>
<polygon fill="white" stroke="transparent" points="-4,4 -4,-207 880,-207 880,4 -4,4"/>
<text text-anchor="start" x="417.01" y="-42.4" font-family="Times-12" font-weight="bold" font-size="14.00">Legend</text>
<polygon fill="#ffffb3" stroke="transparent" points="204,-10 204,-30 224,-30 224,-10 204,-10"/>
<text text-anchor="start" x="227.63" y="-15.4" font-family="Times-12" font-size="14.00"> &#160;Declarations</text>
<polygon fill="#8dd3c7" stroke="transparent" points="317,-10 317,-30 337,-30 337,-10 317,-10"/>
<text text-anchor="start" x="340.73" y="-15.4" font-family="Times-12" font-size="14.00"> &#160;Module</text>
<polygon fill="#80b1d3" stroke="transparent" points="403,-10 403,-30 423,-30 423,-10 403,-10"/>
<text text-anchor="start" x="426.78" y="-15.4" font-family="Times-12" font-size="14.00"> &#160;Bootstrap</text>
<polygon fill="#fdb462" stroke="transparent" points="500,-10 500,-30 520,-30 520,-10 500,-10"/>
<text text-anchor="start" x="523.67" y="-15.4" font-family="Times-12" font-size="14.00"> &#160;Providers</text>
<polygon fill="#fb8072" stroke="transparent" points="596,-10 596,-30 616,-30 616,-10 596,-10"/>
<text text-anchor="start" x="619.73" y="-15.4" font-family="Times-12" font-size="14.00"> &#160;Exports</text>
<g id="clust1" class="cluster">
<title>cluster_MappingModule</title>
<polygon fill="none" stroke="black" stroke-dasharray="1,5" points="8,-70 8,-195 868,-195 868,-70 8,-70"/>
</g>
<g id="clust2" class="cluster">
<title>cluster_MappingModule_declarations</title>
<polygon fill="none" stroke="black" points="312,-78 312,-130 860,-130 860,-78 312,-78"/>
</g>
<g id="clust6" class="cluster">
<title>cluster_MappingModule_imports</title>
<polygon fill="none" stroke="black" points="16,-78 16,-130 304,-130 304,-78 16,-78"/>
</g>
<!-- CustomMappingComponent -->
<g id="node1" class="node">
<title>CustomMappingComponent</title>
<polygon fill="#ffffb3" stroke="black" points="851.95,-122 676.05,-122 676.05,-86 851.95,-86 851.95,-122"/>
<text text-anchor="middle" x="764" y="-99.8" font-family="Times,serif" font-size="14.00">CustomMappingComponent</text>
</g>
<!-- MappingModule -->
<g id="node4" class="node">
<title>MappingModule</title>
<polygon fill="#8dd3c7" stroke="black" points="441.1,-187 438.1,-191 417.1,-191 414.1,-187 330.9,-187 330.9,-151 441.1,-151 441.1,-187"/>
<text text-anchor="middle" x="386" y="-164.8" font-family="Times,serif" font-size="14.00">MappingModule</text>
</g>
<!-- CustomMappingComponent&#45;&gt;MappingModule -->
<g id="edge1" class="edge">
<title>CustomMappingComponent&#45;&gt;MappingModule</title>
<path fill="none" stroke="black" d="M764,-122.28C764,-143.32 764,-175 764,-175 764,-175 451.37,-175 451.37,-175"/>
<polygon fill="black" stroke="black" points="451.37,-171.5 441.37,-175 451.37,-178.5 451.37,-171.5"/>
</g>
<!-- EmployeeMappingComponent -->
<g id="node2" class="node">
<title>EmployeeMappingComponent</title>
<polygon fill="#ffffb3" stroke="black" points="658.15,-122 469.85,-122 469.85,-86 658.15,-86 658.15,-122"/>
<text text-anchor="middle" x="564" y="-99.8" font-family="Times,serif" font-size="14.00">EmployeeMappingComponent</text>
</g>
<!-- EmployeeMappingComponent&#45;&gt;MappingModule -->
<g id="edge2" class="edge">
<title>EmployeeMappingComponent&#45;&gt;MappingModule</title>
<path fill="none" stroke="black" d="M564,-122.02C564,-139.37 564,-163 564,-163 564,-163 451.34,-163 451.34,-163"/>
<polygon fill="black" stroke="black" points="451.34,-159.5 441.34,-163 451.34,-166.5 451.34,-159.5"/>
</g>
<!-- MappingComponent -->
<g id="node3" class="node">
<title>MappingComponent</title>
<polygon fill="#ffffb3" stroke="black" points="451.88,-122 320.12,-122 320.12,-86 451.88,-86 451.88,-122"/>
<text text-anchor="middle" x="386" y="-99.8" font-family="Times,serif" font-size="14.00">MappingComponent</text>
</g>
<!-- MappingComponent&#45;&gt;MappingModule -->
<g id="edge3" class="edge">
<title>MappingComponent&#45;&gt;MappingModule</title>
<path fill="none" stroke="black" d="M386,-122.11C386,-122.11 386,-140.99 386,-140.99"/>
<polygon fill="black" stroke="black" points="382.5,-140.99 386,-150.99 389.5,-140.99 382.5,-140.99"/>
</g>
<!-- MappingRoutingModule -->
<g id="node5" class="node">
<title>MappingRoutingModule</title>
<polygon fill="#8dd3c7" stroke="black" points="295.72,-122 292.72,-126 271.72,-126 268.72,-122 140.28,-122 140.28,-86 295.72,-86 295.72,-122"/>
<text text-anchor="middle" x="218" y="-99.8" font-family="Times,serif" font-size="14.00">MappingRoutingModule</text>
</g>
<!-- MappingRoutingModule&#45;&gt;MappingModule -->
<g id="edge4" class="edge">
<title>MappingRoutingModule&#45;&gt;MappingModule</title>
<path fill="none" stroke="black" d="M218,-122.02C218,-139.37 218,-163 218,-163 218,-163 320.52,-163 320.52,-163"/>
<polygon fill="black" stroke="black" points="320.52,-166.5 330.52,-163 320.52,-159.5 320.52,-166.5"/>
</g>
<!-- SharedModule -->
<g id="node6" class="node">
<title>SharedModule</title>
<polygon fill="#8dd3c7" stroke="black" points="122.42,-122 119.42,-126 98.42,-126 95.42,-122 23.58,-122 23.58,-86 122.42,-86 122.42,-122"/>
<text text-anchor="middle" x="73" y="-99.8" font-family="Times,serif" font-size="14.00">SharedModule</text>
</g>
<!-- SharedModule&#45;&gt;MappingModule -->
<g id="edge5" class="edge">
<title>SharedModule&#45;&gt;MappingModule</title>
<path fill="none" stroke="black" d="M73,-122.28C73,-143.32 73,-175 73,-175 73,-175 320.76,-175 320.76,-175"/>
<polygon fill="black" stroke="black" points="320.76,-178.5 330.76,-175 320.76,-171.5 320.76,-178.5"/>
</g>
</g>
</svg>
