<?xml version="1.0" encoding="UTF-8" standalone="no"?>
<!DOCTYPE svg PUBLIC "-//W3C//DTD SVG 1.1//EN"
 "http://www.w3.org/Graphics/SVG/1.1/DTD/svg11.dtd">
<!-- Generated by graphviz version 2.47.0 (20210316.0004)
 -->
<!-- Title: dependencies Pages: 1 -->
<svg width="884pt" height="211pt"
 viewBox="0.00 0.00 884.00 211.00" xmlns="http://www.w3.org/2000/svg" xmlns:xlink="http://www.w3.org/1999/xlink">
<g id="graph0" class="graph" transform="scale(1 1) rotate(0) translate(4 207)">
<title>dependencies</title>
<polygon fill="white" stroke="transparent" points="-4,4 -4,-207 880,-207 880,4 -4,4"/>
<text text-anchor="start" x="417.01" y="-42.4" font-family="Times-12" font-weight="bold" font-size="14.00">Legend</text>
<polygon fill="#ffffb3" stroke="transparent" points="204,-10 204,-30 224,-30 224,-10 204,-10"/>
<text text-anchor="start" x="227.63" y="-15.4" font-family="Times-12" font-size="14.00"> &#160;Declarations</text>
<polygon fill="#8dd3c7" stroke="transparent" points="317,-10 317,-30 337,-30 337,-10 317,-10"/>
<text text-anchor="start" x="340.73" y="-15.4" font-family="Times-12" font-size="14.00"> &#160;Module</text>
<polygon fill="#80b1d3" stroke="transparent" points="403,-10 403,-30 423,-30 423,-10 403,-10"/>
<text text-anchor="start" x="426.78" y="-15.4" font-family="Times-12" font-size="14.00"> &#160;Bootstrap</text>
<polygon fill="#fdb462" stroke="transparent" points="500,-10 500,-30 520,-30 520,-10 500,-10"/>
<text text-anchor="start" x="523.67" y="-15.4" font-family="Times-12" font-size="14.00"> &#160;Providers</text>
<polygon fill="#fb8072" stroke="transparent" points="596,-10 596,-30 616,-30 616,-10 596,-10"/>
<text text-anchor="start" x="619.73" y="-15.4" font-family="Times-12" font-size="14.00"> &#160;Exports</text>
<g id="clust1" class="cluster">
<title>cluster_MappingModule</title>
<polygon fill="none" stroke="black" stroke-dasharray="1,5" points="8,-70 8,-195 868,-195 868,-70 8,-70"/>
</g>
<g id="clust6" class="cluster">
<title>cluster_MappingModule_imports</title>
<polygon fill="none" stroke="black" points="572,-78 572,-130 860,-130 860,-78 572,-78"/>
</g>
<g id="clust2" class="cluster">
<title>cluster_MappingModule_declarations</title>
<polygon fill="none" stroke="black" points="16,-78 16,-130 564,-130 564,-78 16,-78"/>
</g>
<!-- CustomMappingComponent -->
<g id="node1" class="node">
<title>CustomMappingComponent</title>
<polygon fill="#ffffb3" stroke="black" points="555.95,-122 380.05,-122 380.05,-86 555.95,-86 555.95,-122"/>
<text text-anchor="middle" x="468" y="-99.8" font-family="Times,serif" font-size="14.00">CustomMappingComponent</text>
</g>
<!-- MappingModule -->
<g id="node4" class="node">
<title>MappingModule</title>
<polygon fill="#8dd3c7" stroke="black" points="523.1,-187 520.1,-191 499.1,-191 496.1,-187 412.9,-187 412.9,-151 523.1,-151 523.1,-187"/>
<text text-anchor="middle" x="468" y="-164.8" font-family="Times,serif" font-size="14.00">MappingModule</text>
</g>
<!-- CustomMappingComponent&#45;&gt;MappingModule -->
<g id="edge1" class="edge">
<title>CustomMappingComponent&#45;&gt;MappingModule</title>
<path fill="none" stroke="black" d="M468,-122.11C468,-122.11 468,-140.99 468,-140.99"/>
<polygon fill="black" stroke="black" points="464.5,-140.99 468,-150.99 471.5,-140.99 464.5,-140.99"/>
</g>
<!-- EmployeeMappingComponent -->
<g id="node2" class="node">
<title>EmployeeMappingComponent</title>
<polygon fill="#ffffb3" stroke="black" points="362.15,-122 173.85,-122 173.85,-86 362.15,-86 362.15,-122"/>
<text text-anchor="middle" x="268" y="-99.8" font-family="Times,serif" font-size="14.00">EmployeeMappingComponent</text>
</g>
<!-- EmployeeMappingComponent&#45;&gt;MappingModule -->
<g id="edge2" class="edge">
<title>EmployeeMappingComponent&#45;&gt;MappingModule</title>
<path fill="none" stroke="black" d="M268,-122.02C268,-139.37 268,-163 268,-163 268,-163 402.82,-163 402.82,-163"/>
<polygon fill="black" stroke="black" points="402.82,-166.5 412.82,-163 402.82,-159.5 402.82,-166.5"/>
</g>
<!-- MappingComponent -->
<g id="node3" class="node">
<title>MappingComponent</title>
<polygon fill="#ffffb3" stroke="black" points="155.88,-122 24.12,-122 24.12,-86 155.88,-86 155.88,-122"/>
<text text-anchor="middle" x="90" y="-99.8" font-family="Times,serif" font-size="14.00">MappingComponent</text>
</g>
<!-- MappingComponent&#45;&gt;MappingModule -->
<g id="edge3" class="edge">
<title>MappingComponent&#45;&gt;MappingModule</title>
<path fill="none" stroke="black" d="M90,-122.28C90,-143.32 90,-175 90,-175 90,-175 402.63,-175 402.63,-175"/>
<polygon fill="black" stroke="black" points="402.63,-178.5 412.63,-175 402.63,-171.5 402.63,-178.5"/>
</g>
<!-- MappingRoutingModule -->
<g id="node5" class="node">
<title>MappingRoutingModule</title>
<polygon fill="#8dd3c7" stroke="black" points="851.72,-122 848.72,-126 827.72,-126 824.72,-122 696.28,-122 696.28,-86 851.72,-86 851.72,-122"/>
<text text-anchor="middle" x="774" y="-99.8" font-family="Times,serif" font-size="14.00">MappingRoutingModule</text>
</g>
<!-- MappingRoutingModule&#45;&gt;MappingModule -->
<g id="edge4" class="edge">
<title>MappingRoutingModule&#45;&gt;MappingModule</title>
<path fill="none" stroke="black" d="M774,-122.28C774,-143.32 774,-175 774,-175 774,-175 533.06,-175 533.06,-175"/>
<polygon fill="black" stroke="black" points="533.06,-171.5 523.06,-175 533.06,-178.5 533.06,-171.5"/>
</g>
<!-- SharedModule -->
<g id="node6" class="node">
<title>SharedModule</title>
<polygon fill="#8dd3c7" stroke="black" points="678.42,-122 675.42,-126 654.42,-126 651.42,-122 579.58,-122 579.58,-86 678.42,-86 678.42,-122"/>
<text text-anchor="middle" x="629" y="-99.8" font-family="Times,serif" font-size="14.00">SharedModule</text>
</g>
<!-- SharedModule&#45;&gt;MappingModule -->
<g id="edge5" class="edge">
<title>SharedModule&#45;&gt;MappingModule</title>
<path fill="none" stroke="black" d="M629,-122.02C629,-139.37 629,-163 629,-163 629,-163 533.41,-163 533.41,-163"/>
<polygon fill="black" stroke="black" points="533.41,-159.5 523.41,-163 533.41,-166.5 533.41,-159.5"/>
</g>
</g>
</svg>
