<?xml version="1.0" encoding="UTF-8" standalone="no"?>
<!DOCTYPE svg PUBLIC "-//W3C//DTD SVG 1.1//EN"
 "http://www.w3.org/Graphics/SVG/1.1/DTD/svg11.dtd">
<!-- Generated by graphviz version 5.0.0 (20220707.1540)
 -->
<!-- Title: dependencies Pages: 1 -->
<svg width="884pt" height="174pt"
 viewBox="0.00 0.00 884.00 173.80" xmlns="http://www.w3.org/2000/svg" xmlns:xlink="http://www.w3.org/1999/xlink">
<g id="graph0" class="graph" transform="scale(1 1) rotate(0) translate(4 169.8)">
<title>dependencies</title>
<polygon fill="white" stroke="transparent" points="-4,4 -4,-169.8 880,-169.8 880,4 -4,4"/>
<text text-anchor="middle" x="438" y="-8.2" font-family="sans-serif" font-size="14.00">dependencies</text>
<g id="clust1" class="cluster">
<title>cluster_MappingModule</title>
<polygon fill="none" stroke="black" stroke-dasharray="1,5" points="8,-32.8 8,-157.8 868,-157.8 868,-32.8 8,-32.8"/>
</g>
<g id="clust2" class="cluster">
<title>cluster_MappingModule_declarations</title>
<polygon fill="none" stroke="black" points="312,-40.8 312,-92.8 860,-92.8 860,-40.8 312,-40.8"/>
</g>
<g id="clust6" class="cluster">
<title>cluster_MappingModule_imports</title>
<polygon fill="none" stroke="black" points="16,-40.8 16,-92.8 304,-92.8 304,-40.8 16,-40.8"/>
</g>
<!-- CustomMappingComponent -->
<g id="node1" class="node">
<title>CustomMappingComponent</title>
<polygon fill="#ffffb3" stroke="black" points="851.95,-84.8 676.05,-84.8 676.05,-48.8 851.95,-48.8 851.95,-84.8"/>
<text text-anchor="middle" x="764" y="-62.6" font-family="Times,serif" font-size="14.00">CustomMappingComponent</text>
</g>
<!-- MappingModule -->
<g id="node4" class="node">
<title>MappingModule</title>
<polygon fill="#8dd3c7" stroke="black" points="441.1,-149.8 438.1,-153.8 417.1,-153.8 414.1,-149.8 330.9,-149.8 330.9,-113.8 441.1,-113.8 441.1,-149.8"/>
<text text-anchor="middle" x="386" y="-127.6" font-family="Times,serif" font-size="14.00">MappingModule</text>
</g>
<!-- CustomMappingComponent&#45;&gt;MappingModule -->
<g id="edge1" class="edge">
<title>CustomMappingComponent&#45;&gt;MappingModule</title>
<path fill="none" stroke="black" d="M764,-85.08C764,-106.12 764,-137.8 764,-137.8 764,-137.8 451.37,-137.8 451.37,-137.8"/>
<polygon fill="black" stroke="black" points="451.37,-134.3 441.37,-137.8 451.37,-141.3 451.37,-134.3"/>
</g>
<!-- EmployeeMappingComponent -->
<g id="node2" class="node">
<title>EmployeeMappingComponent</title>
<polygon fill="#ffffb3" stroke="black" points="658.14,-84.8 469.86,-84.8 469.86,-48.8 658.14,-48.8 658.14,-84.8"/>
<text text-anchor="middle" x="564" y="-62.6" font-family="Times,serif" font-size="14.00">EmployeeMappingComponent</text>
</g>
<!-- EmployeeMappingComponent&#45;&gt;MappingModule -->
<g id="edge2" class="edge">
<title>EmployeeMappingComponent&#45;&gt;MappingModule</title>
<path fill="none" stroke="black" d="M564,-84.82C564,-102.17 564,-125.8 564,-125.8 564,-125.8 451.34,-125.8 451.34,-125.8"/>
<polygon fill="black" stroke="black" points="451.34,-122.3 441.34,-125.8 451.34,-129.3 451.34,-122.3"/>
</g>
<!-- MappingComponent -->
<g id="node3" class="node">
<title>MappingComponent</title>
<polygon fill="#ffffb3" stroke="black" points="451.88,-84.8 320.12,-84.8 320.12,-48.8 451.88,-48.8 451.88,-84.8"/>
<text text-anchor="middle" x="386" y="-62.6" font-family="Times,serif" font-size="14.00">MappingComponent</text>
</g>
<!-- MappingComponent&#45;&gt;MappingModule -->
<g id="edge3" class="edge">
<title>MappingComponent&#45;&gt;MappingModule</title>
<path fill="none" stroke="black" d="M386,-84.91C386,-84.91 386,-103.79 386,-103.79"/>
<polygon fill="black" stroke="black" points="382.5,-103.79 386,-113.79 389.5,-103.79 382.5,-103.79"/>
</g>
<!-- MappingRoutingModule -->
<g id="node5" class="node">
<title>MappingRoutingModule</title>
<polygon fill="#8dd3c7" stroke="black" points="295.72,-84.8 292.72,-88.8 271.72,-88.8 268.72,-84.8 140.28,-84.8 140.28,-48.8 295.72,-48.8 295.72,-84.8"/>
<text text-anchor="middle" x="218" y="-62.6" font-family="Times,serif" font-size="14.00">MappingRoutingModule</text>
</g>
<!-- MappingRoutingModule&#45;&gt;MappingModule -->
<g id="edge4" class="edge">
<title>MappingRoutingModule&#45;&gt;MappingModule</title>
<path fill="none" stroke="black" d="M218,-84.82C218,-102.17 218,-125.8 218,-125.8 218,-125.8 320.52,-125.8 320.52,-125.8"/>
<polygon fill="black" stroke="black" points="320.52,-129.3 330.52,-125.8 320.52,-122.3 320.52,-129.3"/>
</g>
<!-- SharedModule -->
<g id="node6" class="node">
<title>SharedModule</title>
<polygon fill="#8dd3c7" stroke="black" points="122.43,-84.8 119.43,-88.8 98.43,-88.8 95.43,-84.8 23.57,-84.8 23.57,-48.8 122.43,-48.8 122.43,-84.8"/>
<text text-anchor="middle" x="73" y="-62.6" font-family="Times,serif" font-size="14.00">SharedModule</text>
</g>
<!-- SharedModule&#45;&gt;MappingModule -->
<g id="edge5" class="edge">
<title>SharedModule&#45;&gt;MappingModule</title>
<path fill="none" stroke="black" d="M73,-85.08C73,-106.12 73,-137.8 73,-137.8 73,-137.8 320.76,-137.8 320.76,-137.8"/>
<polygon fill="black" stroke="black" points="320.76,-141.3 330.76,-137.8 320.76,-134.3 320.76,-141.3"/>
</g>
</g>
</svg>
