<svg width="41" height="20" viewBox="0 0 41 20" fill="none" xmlns="http://www.w3.org/2000/svg">
<path fill-rule="evenodd" clip-rule="evenodd" d="M2.62881 2.65677V5.14896H6.45033V7.68818H2.62881V14.8826H0V2.65677C0 1.19907 1.21704 0 2.75052 0H7.47264V2.56273H2.75052C2.67749 2.53921 2.62881 2.58624 2.62881 2.65677Z" fill="#161528"/>
<path fill-rule="evenodd" clip-rule="evenodd" d="M17.7445 20H10.637V17.4373H17.7445C17.7932 17.4373 17.8662 17.3903 17.8662 17.3198V15.5329H11.4645C9.95541 15.5329 8.71403 14.3338 8.71403 12.8761V4.38857H11.3428V12.8996C11.3428 12.9702 11.3915 13.0407 11.4889 13.0407H17.7445C17.7932 13.0407 17.8662 12.9937 17.8662 12.8996V4.38857H20.495V17.3433C20.4707 18.801 19.2536 20 17.7445 20Z" fill="#161528"/>
<path fill-rule="evenodd" clip-rule="evenodd" d="M25.1928 0V12.2258C25.1928 12.2964 25.2415 12.3669 25.3145 12.3669H27.6512V14.9061H25.3145C23.8054 14.9061 22.564 13.7071 22.564 12.2494V0.0235112H25.1928V0Z" fill="#161528"/>
<path fill-rule="evenodd" clip-rule="evenodd" d="M40.8683 10.533V6.32453C40.8683 4.86683 39.6269 3.66776 38.1178 3.69127H31.8622C30.353 3.69127 29.1117 4.89034 29.1117 6.34804V12.2259C29.1117 13.6835 30.353 14.8826 31.8622 14.8826H40.8683V12.3434H31.8378C31.7405 12.3434 31.6918 12.2729 31.6918 12.2023V10.533H40.8683ZM38.2638 6.32454V7.99384H31.7161V6.32454C31.7161 6.23049 31.7892 6.18347 31.8622 6.18347H38.1178C38.2152 6.18347 38.2638 6.25401 38.2638 6.32454Z" fill="#161528"/>
</svg>
