<svg width="20" height="20" viewBox="0 0 20 20" fill="none" xmlns="http://www.w3.org/2000/svg">
<path fill-rule="evenodd" clip-rule="evenodd" d="M1.62791 1.39535C1.49947 1.39535 1.39535 1.49947 1.39535 1.62791V18.3721C1.39535 18.5005 1.49947 18.6047 1.62791 18.6047H18.3721C18.5005 18.6047 18.6047 18.5005 18.6047 18.3721V1.62791C18.6047 1.49947 18.5005 1.39535 18.3721 1.39535H10.2326V12.3256C10.2326 13.3036 9.72362 13.9751 9.0907 14.3707C8.48822 14.7472 7.76998 14.8837 7.2093 14.8837H5.81395C5.19013 14.8837 4.47119 14.6442 3.90224 14.246C3.33452 13.8486 2.7907 13.1975 2.7907 12.3256V4.41861C2.7907 3.51954 3.51954 2.7907 4.4186 2.7907H7.67442V4.18605H4.4186C4.29017 4.18605 4.18605 4.29017 4.18605 4.41861V7.11439H6.27907V8.50974H4.18605V12.3256C4.18605 12.5699 4.3399 12.8491 4.70242 13.1029C5.0637 13.3558 5.50755 13.4884 5.81395 13.4884H7.2093C7.57886 13.4884 8.02341 13.3923 8.35116 13.1874C8.64847 13.0016 8.83721 12.7429 8.83721 12.3256V1.39535H1.62791ZM0 1.62791C0 0.728839 0.728839 0 1.62791 0H18.3721C19.2712 0 20 0.728839 20 1.62791V18.3721C20 19.2712 19.2712 20 18.3721 20H1.62791C0.728839 20 0 19.2712 0 18.3721V1.62791Z" fill="black"/>
</svg>
