<svg width="100" height="64" viewBox="0 0 100 64" fill="none" xmlns="http://www.w3.org/2000/svg">
<g clip-path="url(#clip0_2917_96530)">
<path d="M79.9704 31.9997C79.9704 49.2988 65.9466 63.3228 48.6473 63.3228C31.348 63.3228 17.3242 49.2988 17.3242 31.9997C17.3242 14.7004 31.348 0.676636 48.6473 0.676636C65.9466 0.676636 79.9704 14.7004 79.9704 31.9997Z" fill="#F2F2F2"/>
<path d="M38.4765 19.1837C37.7407 19.0172 37.0096 19.479 36.8431 20.2145L36.7243 20.7405L30.6242 19.3603C30.2711 19.2803 29.9004 19.3443 29.5939 19.5374L27.3158 20.9753C27.0098 21.1685 26.7927 21.4754 26.7127 21.8288L25.0313 29.2604C24.9515 29.6132 25.0151 29.9836 25.2084 30.2898L26.6457 32.5684C26.8393 32.8746 27.1462 33.0918 27.4994 33.1718L33.5994 34.5518L33.48 35.0779C33.3136 35.8136 33.7749 36.5444 34.5107 36.7109C35.2464 36.8773 35.9774 36.4162 36.1439 35.6807L39.5069 20.8171C39.6732 20.0816 39.2122 19.3501 38.4765 19.1837Z" fill="#F0C6D7"/>
<path d="M23.4436 23.9021C18.6056 22.8075 13.631 23.6622 9.43484 26.3096C5.23975 28.9565 2.32684 33.0793 1.23225 37.9171C0.137849 42.7544 0.992319 47.7295 3.63926 51.9244C3.84049 52.2437 4.15188 52.4507 4.49306 52.528C4.83382 52.605 5.20417 52.5523 5.52267 52.3514C6.16047 51.9489 6.35145 51.1056 5.94924 50.4678C3.6916 46.8889 2.96212 42.6457 3.89567 38.5194C4.82942 34.3927 7.3143 30.8771 10.8923 28.6191C14.4711 26.3608 18.7141 25.6322 22.8408 26.5659C23.5761 26.7322 24.3073 26.2711 24.4738 25.5351C24.6403 24.7996 24.1789 24.0684 23.4436 23.9021Z" fill="#CC4379"/>
<path d="M44.7849 32.3285L39.6701 31.1712C38.9343 31.0047 38.2031 31.4661 38.0367 32.2022C37.8702 32.9376 38.3317 33.6686 39.0675 33.835L44.1823 34.9924C44.9176 35.1587 45.6488 34.6975 45.8153 33.9622C45.9818 33.226 45.5204 32.4948 44.7849 32.3285Z" fill="#060606"/>
<path d="M40.7489 26.4037L45.8637 27.561C46.5993 27.7275 47.3303 27.2662 47.4968 26.5308C47.6632 25.7947 47.2019 25.0639 46.4663 24.8976L41.3515 23.74C40.6158 23.5736 39.8846 24.0347 39.7181 24.7707C39.5516 25.5062 40.0132 26.2372 40.7489 26.4037Z" fill="#060606"/>
<path d="M57.3101 43.938C58.0531 44.0687 58.7608 43.5725 58.8916 42.8298L58.985 42.2983L65.1447 43.382C65.5013 43.4447 65.8682 43.3629 66.1651 43.155L68.3712 41.6088C68.6676 41.4008 68.8694 41.0837 68.9323 40.7269L70.2521 33.2228C70.3147 32.8665 70.2333 32.4993 70.0254 32.203L68.4794 29.9964C68.2713 29.7002 67.9542 29.4978 67.5977 29.4351L61.4382 28.352L61.5315 27.8205C61.6622 27.078 61.1662 26.3702 60.4231 26.2396C59.6803 26.1089 58.9726 26.6048 58.8417 27.3475L56.202 42.3562C56.0713 43.0991 56.5674 43.8075 57.3101 43.938Z" fill="#F0C6D7"/>
<path d="M72.0973 38.4975C76.9826 39.3569 81.9096 38.2627 85.9727 35.4154C90.0349 32.5686 92.745 28.3098 93.6044 23.4245C94.4635 18.54 93.3693 13.6118 90.5223 9.54976C90.3059 9.2407 89.9847 9.04885 89.6404 8.98825C89.2964 8.92775 88.9289 8.99848 88.6202 9.21467C88.0028 9.64733 87.8529 10.4991 88.2853 11.1166C90.7136 14.582 91.648 18.7848 90.915 22.9512C90.182 27.1184 87.87 30.7504 84.4053 33.1787C80.9402 35.6075 76.7373 36.5408 72.5701 35.808C71.8275 35.6774 71.1195 36.1733 70.9889 36.9165C70.8581 37.6592 71.3548 38.367 72.0973 38.4975Z" fill="#CC4379"/>
<path d="M58.9006 12.819L61.8671 8.49472C62.2935 7.87296 62.3358 7.16041 61.9611 6.90329C61.586 6.64618 60.9362 6.942 60.5096 7.56375L57.5433 11.8882C57.1165 12.5102 57.0743 13.223 57.4492 13.4801C57.8241 13.7372 58.4738 13.4412 58.9006 12.819Z" fill="#F0C6D7"/>
<path d="M64.0374 19.9888L66.9177 18.386C67.3317 18.1557 67.4882 17.6469 67.2673 17.2499C67.0462 16.8526 66.5315 16.7176 66.1173 16.948L63.2372 18.5507C62.8228 18.7812 62.6661 19.2898 62.8872 19.6873C63.1081 20.0844 63.6232 20.2193 64.0374 19.9888Z" fill="#F0C6D7"/>
<path d="M50.0138 11.7146L49.5722 8.44827C49.5086 7.9786 49.0923 7.64701 48.6419 7.70789C48.1913 7.76877 47.8779 8.1991 47.9415 8.66877L48.3831 11.9351C48.4467 12.405 48.863 12.7365 49.3136 12.6755C49.7641 12.6146 50.0774 12.1845 50.0138 11.7146Z" fill="#F0C6D7"/>
<path d="M38.5206 50.6002L35.5539 54.9247C35.1273 55.5466 35.0852 56.2592 35.4599 56.5161C35.835 56.7734 36.4846 56.4776 36.911 55.8556L39.8777 51.5311C40.3045 50.9092 40.3467 50.1966 39.9716 49.9393C39.5969 49.6822 38.9474 49.978 38.5206 50.6002Z" fill="#F0C6D7"/>
<path d="M33.2794 43.4309L30.3991 45.0336C29.9848 45.2641 29.8281 45.7727 30.0493 46.17C30.2704 46.5673 30.7852 46.7022 31.1993 46.4719L34.0796 44.869C34.4938 44.6384 34.6507 44.1298 34.4296 43.7323C34.2085 43.3353 33.6936 43.2001 33.2794 43.4309Z" fill="#F0C6D7"/>
<path d="M47.0934 52.5416L47.535 55.8083C47.5986 56.2778 48.0151 56.6092 48.4655 56.5483C48.9162 56.4874 49.2295 56.0575 49.1659 55.5878L48.7243 52.3213C48.6607 51.8514 48.2444 51.5201 47.7938 51.5809C47.3434 51.6418 47.0298 52.0719 47.0934 52.5416Z" fill="#F0C6D7"/>
</g>
<defs>
<clipPath id="clip0_2917_96530">
<rect width="100" height="62.7612" fill="white" transform="translate(0 0.619385)"/>
</clipPath>
</defs>
</svg>
