<?xml version="1.0" encoding="UTF-8" standalone="no"?>
<!DOCTYPE svg PUBLIC "-//W3C//DTD SVG 1.1//EN"
 "http://www.w3.org/Graphics/SVG/1.1/DTD/svg11.dtd">
<!-- Generated by graphviz version 5.0.0 (20220707.1540)
 -->
<!-- Title: dependencies Pages: 1 -->
<svg width="2208pt" height="174pt"
 viewBox="0.00 0.00 2208.00 173.80" xmlns="http://www.w3.org/2000/svg" xmlns:xlink="http://www.w3.org/1999/xlink">
<g id="graph0" class="graph" transform="scale(1 1) rotate(0) translate(4 169.8)">
<title>dependencies</title>
<polygon fill="white" stroke="transparent" points="-4,4 -4,-169.8 2204,-169.8 2204,4 -4,4"/>
<text text-anchor="middle" x="1100" y="-8.2" font-family="sans-serif" font-size="14.00">dependencies</text>
<g id="clust1" class="cluster">
<title>cluster_OnboardingModule</title>
<polygon fill="none" stroke="black" stroke-dasharray="1,5" points="8,-32.8 8,-157.8 2192,-157.8 2192,-32.8 8,-32.8"/>
</g>
<g id="clust2" class="cluster">
<title>cluster_OnboardingModule_declarations</title>
<polygon fill="none" stroke="black" points="328,-40.8 328,-92.8 2184,-92.8 2184,-40.8 328,-40.8"/>
</g>
<g id="clust11" class="cluster">
<title>cluster_OnboardingModule_imports</title>
<polygon fill="none" stroke="black" points="16,-40.8 16,-92.8 320,-92.8 320,-40.8 16,-40.8"/>
</g>
<!-- OnboardingAdvancedSettingsComponent -->
<g id="node1" class="node">
<title>OnboardingAdvancedSettingsComponent</title>
<polygon fill="#ffffb3" stroke="black" points="2176.08,-84.8 1925.92,-84.8 1925.92,-48.8 2176.08,-48.8 2176.08,-84.8"/>
<text text-anchor="middle" x="2051" y="-62.6" font-family="Times,serif" font-size="14.00">OnboardingAdvancedSettingsComponent</text>
</g>
<!-- OnboardingModule -->
<g id="node9" class="node">
<title>OnboardingModule</title>
<polygon fill="#8dd3c7" stroke="black" points="1100.43,-149.8 1097.43,-153.8 1076.43,-153.8 1073.43,-149.8 973.57,-149.8 973.57,-113.8 1100.43,-113.8 1100.43,-149.8"/>
<text text-anchor="middle" x="1037" y="-127.6" font-family="Times,serif" font-size="14.00">OnboardingModule</text>
</g>
<!-- OnboardingAdvancedSettingsComponent&#45;&gt;OnboardingModule -->
<g id="edge1" class="edge">
<title>OnboardingAdvancedSettingsComponent&#45;&gt;OnboardingModule</title>
<path fill="none" stroke="black" d="M2051,-84.81C2051,-107.29 2051,-142.8 2051,-142.8 2051,-142.8 1110.43,-142.8 1110.43,-142.8"/>
<polygon fill="black" stroke="black" points="1110.43,-139.3 1100.43,-142.8 1110.43,-146.3 1110.43,-139.3"/>
</g>
<!-- OnboardingComponent -->
<g id="node2" class="node">
<title>OnboardingComponent</title>
<polygon fill="#ffffb3" stroke="black" points="1908.21,-84.8 1759.79,-84.8 1759.79,-48.8 1908.21,-48.8 1908.21,-84.8"/>
<text text-anchor="middle" x="1834" y="-62.6" font-family="Times,serif" font-size="14.00">OnboardingComponent</text>
</g>
<!-- OnboardingComponent&#45;&gt;OnboardingModule -->
<g id="edge2" class="edge">
<title>OnboardingComponent&#45;&gt;OnboardingModule</title>
<path fill="none" stroke="black" d="M1834,-84.93C1834,-105.37 1834,-135.8 1834,-135.8 1834,-135.8 1110.54,-135.8 1110.54,-135.8"/>
<polygon fill="black" stroke="black" points="1110.54,-132.3 1100.54,-135.8 1110.54,-139.3 1110.54,-132.3"/>
</g>
<!-- OnboardingDoneComponent -->
<g id="node3" class="node">
<title>OnboardingDoneComponent</title>
<polygon fill="#ffffb3" stroke="black" points="1742.03,-84.8 1563.97,-84.8 1563.97,-48.8 1742.03,-48.8 1742.03,-84.8"/>
<text text-anchor="middle" x="1653" y="-62.6" font-family="Times,serif" font-size="14.00">OnboardingDoneComponent</text>
</g>
<!-- OnboardingDoneComponent&#45;&gt;OnboardingModule -->
<g id="edge3" class="edge">
<title>OnboardingDoneComponent&#45;&gt;OnboardingModule</title>
<path fill="none" stroke="black" d="M1653,-85.07C1653,-103.36 1653,-128.8 1653,-128.8 1653,-128.8 1110.32,-128.8 1110.32,-128.8"/>
<polygon fill="black" stroke="black" points="1110.32,-125.3 1100.32,-128.8 1110.32,-132.3 1110.32,-125.3"/>
</g>
<!-- OnboardingEmployeeSettingsComponent -->
<g id="node4" class="node">
<title>OnboardingEmployeeSettingsComponent</title>
<polygon fill="#ffffb3" stroke="black" points="1546.08,-84.8 1295.92,-84.8 1295.92,-48.8 1546.08,-48.8 1546.08,-84.8"/>
<text text-anchor="middle" x="1421" y="-62.6" font-family="Times,serif" font-size="14.00">OnboardingEmployeeSettingsComponent</text>
</g>
<!-- OnboardingEmployeeSettingsComponent&#45;&gt;OnboardingModule -->
<g id="edge4" class="edge">
<title>OnboardingEmployeeSettingsComponent&#45;&gt;OnboardingModule</title>
<path fill="none" stroke="black" d="M1421,-84.81C1421,-100.85 1421,-121.8 1421,-121.8 1421,-121.8 1110.41,-121.8 1110.41,-121.8"/>
<polygon fill="black" stroke="black" points="1110.41,-118.3 1100.41,-121.8 1110.41,-125.3 1110.41,-118.3"/>
</g>
<!-- OnboardingExportSettingsComponent -->
<g id="node5" class="node">
<title>OnboardingExportSettingsComponent</title>
<polygon fill="#ffffb3" stroke="black" points="1277.93,-84.8 1046.07,-84.8 1046.07,-48.8 1277.93,-48.8 1277.93,-84.8"/>
<text text-anchor="middle" x="1162" y="-62.6" font-family="Times,serif" font-size="14.00">OnboardingExportSettingsComponent</text>
</g>
<!-- OnboardingExportSettingsComponent&#45;&gt;OnboardingModule -->
<g id="edge5" class="edge">
<title>OnboardingExportSettingsComponent&#45;&gt;OnboardingModule</title>
<path fill="none" stroke="black" d="M1073.25,-84.91C1073.25,-84.91 1073.25,-103.79 1073.25,-103.79"/>
<polygon fill="black" stroke="black" points="1069.75,-103.79 1073.25,-113.79 1076.75,-103.79 1069.75,-103.79"/>
</g>
<!-- OnboardingImportSettingsComponent -->
<g id="node6" class="node">
<title>OnboardingImportSettingsComponent</title>
<polygon fill="#ffffb3" stroke="black" points="1028.93,-84.8 797.07,-84.8 797.07,-48.8 1028.93,-48.8 1028.93,-84.8"/>
<text text-anchor="middle" x="913" y="-62.6" font-family="Times,serif" font-size="14.00">OnboardingImportSettingsComponent</text>
</g>
<!-- OnboardingImportSettingsComponent&#45;&gt;OnboardingModule -->
<g id="edge6" class="edge">
<title>OnboardingImportSettingsComponent&#45;&gt;OnboardingModule</title>
<path fill="none" stroke="black" d="M1001.25,-84.91C1001.25,-84.91 1001.25,-103.79 1001.25,-103.79"/>
<polygon fill="black" stroke="black" points="997.75,-103.79 1001.25,-113.79 1004.75,-103.79 997.75,-103.79"/>
</g>
<!-- OnboardingLandingComponent -->
<g id="node7" class="node">
<title>OnboardingLandingComponent</title>
<polygon fill="#ffffb3" stroke="black" points="779.36,-84.8 584.64,-84.8 584.64,-48.8 779.36,-48.8 779.36,-84.8"/>
<text text-anchor="middle" x="682" y="-62.6" font-family="Times,serif" font-size="14.00">OnboardingLandingComponent</text>
</g>
<!-- OnboardingLandingComponent&#45;&gt;OnboardingModule -->
<g id="edge7" class="edge">
<title>OnboardingLandingComponent&#45;&gt;OnboardingModule</title>
<path fill="none" stroke="black" d="M682,-84.81C682,-100.85 682,-121.8 682,-121.8 682,-121.8 963.53,-121.8 963.53,-121.8"/>
<polygon fill="black" stroke="black" points="963.53,-125.3 973.53,-121.8 963.53,-118.3 963.53,-125.3"/>
</g>
<!-- OnboardingQboConnectorComponent -->
<g id="node8" class="node">
<title>OnboardingQboConnectorComponent</title>
<polygon fill="#ffffb3" stroke="black" points="566.14,-84.8 335.86,-84.8 335.86,-48.8 566.14,-48.8 566.14,-84.8"/>
<text text-anchor="middle" x="451" y="-62.6" font-family="Times,serif" font-size="14.00">OnboardingQboConnectorComponent</text>
</g>
<!-- OnboardingQboConnectorComponent&#45;&gt;OnboardingModule -->
<g id="edge8" class="edge">
<title>OnboardingQboConnectorComponent&#45;&gt;OnboardingModule</title>
<path fill="none" stroke="black" d="M451,-85.07C451,-103.36 451,-128.8 451,-128.8 451,-128.8 963.73,-128.8 963.73,-128.8"/>
<polygon fill="black" stroke="black" points="963.73,-132.3 973.73,-128.8 963.73,-125.3 963.73,-132.3"/>
</g>
<!-- OnboardingRoutingModule -->
<g id="node10" class="node">
<title>OnboardingRoutingModule</title>
<polygon fill="#8dd3c7" stroke="black" points="311.55,-84.8 308.55,-88.8 287.55,-88.8 284.55,-84.8 140.45,-84.8 140.45,-48.8 311.55,-48.8 311.55,-84.8"/>
<text text-anchor="middle" x="226" y="-62.6" font-family="Times,serif" font-size="14.00">OnboardingRoutingModule</text>
</g>
<!-- OnboardingRoutingModule&#45;&gt;OnboardingModule -->
<g id="edge9" class="edge">
<title>OnboardingRoutingModule&#45;&gt;OnboardingModule</title>
<path fill="none" stroke="black" d="M226,-84.93C226,-105.37 226,-135.8 226,-135.8 226,-135.8 963.7,-135.8 963.7,-135.8"/>
<polygon fill="black" stroke="black" points="963.7,-139.3 973.7,-135.8 963.7,-132.3 963.7,-139.3"/>
</g>
<!-- SharedModule -->
<g id="node11" class="node">
<title>SharedModule</title>
<polygon fill="#8dd3c7" stroke="black" points="122.43,-84.8 119.43,-88.8 98.43,-88.8 95.43,-84.8 23.57,-84.8 23.57,-48.8 122.43,-48.8 122.43,-84.8"/>
<text text-anchor="middle" x="73" y="-62.6" font-family="Times,serif" font-size="14.00">SharedModule</text>
</g>
<!-- SharedModule&#45;&gt;OnboardingModule -->
<g id="edge10" class="edge">
<title>SharedModule&#45;&gt;OnboardingModule</title>
<path fill="none" stroke="black" d="M73,-84.81C73,-107.29 73,-142.8 73,-142.8 73,-142.8 963.75,-142.8 963.75,-142.8"/>
<polygon fill="black" stroke="black" points="963.75,-146.3 973.75,-142.8 963.75,-139.3 963.75,-146.3"/>
</g>
</g>
</svg>
