<?xml version="1.0" encoding="UTF-8" standalone="no"?>
<!DOCTYPE svg PUBLIC "-//W3C//DTD SVG 1.1//EN"
 "http://www.w3.org/Graphics/SVG/1.1/DTD/svg11.dtd">
<!-- Generated by graphviz version 2.47.0 (20210316.0004)
 -->
<!-- Title: dependencies Pages: 1 -->
<svg width="2208pt" height="211pt"
 viewBox="0.00 0.00 2208.00 211.00" xmlns="http://www.w3.org/2000/svg" xmlns:xlink="http://www.w3.org/1999/xlink">
<g id="graph0" class="graph" transform="scale(1 1) rotate(0) translate(4 207)">
<title>dependencies</title>
<polygon fill="white" stroke="transparent" points="-4,4 -4,-207 2204,-207 2204,4 -4,4"/>
<text text-anchor="start" x="1079.01" y="-42.4" font-family="Times-12" font-weight="bold" font-size="14.00">Legend</text>
<polygon fill="#ffffb3" stroke="transparent" points="866,-10 866,-30 886,-30 886,-10 866,-10"/>
<text text-anchor="start" x="889.63" y="-15.4" font-family="Times-12" font-size="14.00"> &#160;Declarations</text>
<polygon fill="#8dd3c7" stroke="transparent" points="979,-10 979,-30 999,-30 999,-10 979,-10"/>
<text text-anchor="start" x="1002.73" y="-15.4" font-family="Times-12" font-size="14.00"> &#160;Module</text>
<polygon fill="#80b1d3" stroke="transparent" points="1065,-10 1065,-30 1085,-30 1085,-10 1065,-10"/>
<text text-anchor="start" x="1088.78" y="-15.4" font-family="Times-12" font-size="14.00"> &#160;Bootstrap</text>
<polygon fill="#fdb462" stroke="transparent" points="1162,-10 1162,-30 1182,-30 1182,-10 1162,-10"/>
<text text-anchor="start" x="1185.67" y="-15.4" font-family="Times-12" font-size="14.00"> &#160;Providers</text>
<polygon fill="#fb8072" stroke="transparent" points="1258,-10 1258,-30 1278,-30 1278,-10 1258,-10"/>
<text text-anchor="start" x="1281.73" y="-15.4" font-family="Times-12" font-size="14.00"> &#160;Exports</text>
<g id="clust1" class="cluster">
<title>cluster_OnboardingModule</title>
<polygon fill="none" stroke="black" stroke-dasharray="1,5" points="8,-70 8,-195 2192,-195 2192,-70 8,-70"/>
</g>
<g id="clust2" class="cluster">
<title>cluster_OnboardingModule_declarations</title>
<polygon fill="none" stroke="black" points="328,-78 328,-130 2184,-130 2184,-78 328,-78"/>
</g>
<g id="clust11" class="cluster">
<title>cluster_OnboardingModule_imports</title>
<polygon fill="none" stroke="black" points="16,-78 16,-130 320,-130 320,-78 16,-78"/>
</g>
<!-- OnboardingAdvancedSettingsComponent -->
<g id="node1" class="node">
<title>OnboardingAdvancedSettingsComponent</title>
<polygon fill="#ffffb3" stroke="black" points="2176.07,-122 1925.93,-122 1925.93,-86 2176.07,-86 2176.07,-122"/>
<text text-anchor="middle" x="2051" y="-99.8" font-family="Times,serif" font-size="14.00">OnboardingAdvancedSettingsComponent</text>
</g>
<!-- OnboardingModule -->
<g id="node9" class="node">
<title>OnboardingModule</title>
<polygon fill="#8dd3c7" stroke="black" points="1100.42,-187 1097.42,-191 1076.42,-191 1073.42,-187 973.58,-187 973.58,-151 1100.42,-151 1100.42,-187"/>
<text text-anchor="middle" x="1037" y="-164.8" font-family="Times,serif" font-size="14.00">OnboardingModule</text>
</g>
<!-- OnboardingAdvancedSettingsComponent&#45;&gt;OnboardingModule -->
<g id="edge1" class="edge">
<title>OnboardingAdvancedSettingsComponent&#45;&gt;OnboardingModule</title>
<path fill="none" stroke="black" d="M2051,-122.01C2051,-144.49 2051,-180 2051,-180 2051,-180 1110.43,-180 1110.43,-180"/>
<polygon fill="black" stroke="black" points="1110.43,-176.5 1100.43,-180 1110.43,-183.5 1110.43,-176.5"/>
</g>
<!-- OnboardingComponent -->
<g id="node2" class="node">
<title>OnboardingComponent</title>
<polygon fill="#ffffb3" stroke="black" points="1908.2,-122 1759.8,-122 1759.8,-86 1908.2,-86 1908.2,-122"/>
<text text-anchor="middle" x="1834" y="-99.8" font-family="Times,serif" font-size="14.00">OnboardingComponent</text>
</g>
<!-- OnboardingComponent&#45;&gt;OnboardingModule -->
<g id="edge2" class="edge">
<title>OnboardingComponent&#45;&gt;OnboardingModule</title>
<path fill="none" stroke="black" d="M1834,-122.13C1834,-142.57 1834,-173 1834,-173 1834,-173 1110.54,-173 1110.54,-173"/>
<polygon fill="black" stroke="black" points="1110.54,-169.5 1100.54,-173 1110.54,-176.5 1110.54,-169.5"/>
</g>
<!-- OnboardingDoneComponent -->
<g id="node3" class="node">
<title>OnboardingDoneComponent</title>
<polygon fill="#ffffb3" stroke="black" points="1742.03,-122 1563.97,-122 1563.97,-86 1742.03,-86 1742.03,-122"/>
<text text-anchor="middle" x="1653" y="-99.8" font-family="Times,serif" font-size="14.00">OnboardingDoneComponent</text>
</g>
<!-- OnboardingDoneComponent&#45;&gt;OnboardingModule -->
<g id="edge3" class="edge">
<title>OnboardingDoneComponent&#45;&gt;OnboardingModule</title>
<path fill="none" stroke="black" d="M1653,-122.27C1653,-140.56 1653,-166 1653,-166 1653,-166 1110.32,-166 1110.32,-166"/>
<polygon fill="black" stroke="black" points="1110.32,-162.5 1100.32,-166 1110.32,-169.5 1110.32,-162.5"/>
</g>
<!-- OnboardingEmployeeSettingsComponent -->
<g id="node4" class="node">
<title>OnboardingEmployeeSettingsComponent</title>
<polygon fill="#ffffb3" stroke="black" points="1546.08,-122 1295.92,-122 1295.92,-86 1546.08,-86 1546.08,-122"/>
<text text-anchor="middle" x="1421" y="-99.8" font-family="Times,serif" font-size="14.00">OnboardingEmployeeSettingsComponent</text>
</g>
<!-- OnboardingEmployeeSettingsComponent&#45;&gt;OnboardingModule -->
<g id="edge4" class="edge">
<title>OnboardingEmployeeSettingsComponent&#45;&gt;OnboardingModule</title>
<path fill="none" stroke="black" d="M1421,-122.01C1421,-138.05 1421,-159 1421,-159 1421,-159 1110.41,-159 1110.41,-159"/>
<polygon fill="black" stroke="black" points="1110.41,-155.5 1100.41,-159 1110.41,-162.5 1110.41,-155.5"/>
</g>
<!-- OnboardingExportSettingsComponent -->
<g id="node5" class="node">
<title>OnboardingExportSettingsComponent</title>
<polygon fill="#ffffb3" stroke="black" points="1277.92,-122 1046.08,-122 1046.08,-86 1277.92,-86 1277.92,-122"/>
<text text-anchor="middle" x="1162" y="-99.8" font-family="Times,serif" font-size="14.00">OnboardingExportSettingsComponent</text>
</g>
<!-- OnboardingExportSettingsComponent&#45;&gt;OnboardingModule -->
<g id="edge5" class="edge">
<title>OnboardingExportSettingsComponent&#45;&gt;OnboardingModule</title>
<path fill="none" stroke="black" d="M1073.25,-122.11C1073.25,-122.11 1073.25,-140.99 1073.25,-140.99"/>
<polygon fill="black" stroke="black" points="1069.75,-140.99 1073.25,-150.99 1076.75,-140.99 1069.75,-140.99"/>
</g>
<!-- OnboardingImportSettingsComponent -->
<g id="node6" class="node">
<title>OnboardingImportSettingsComponent</title>
<polygon fill="#ffffb3" stroke="black" points="1028.92,-122 797.08,-122 797.08,-86 1028.92,-86 1028.92,-122"/>
<text text-anchor="middle" x="913" y="-99.8" font-family="Times,serif" font-size="14.00">OnboardingImportSettingsComponent</text>
</g>
<!-- OnboardingImportSettingsComponent&#45;&gt;OnboardingModule -->
<g id="edge6" class="edge">
<title>OnboardingImportSettingsComponent&#45;&gt;OnboardingModule</title>
<path fill="none" stroke="black" d="M1001.25,-122.11C1001.25,-122.11 1001.25,-140.99 1001.25,-140.99"/>
<polygon fill="black" stroke="black" points="997.75,-140.99 1001.25,-150.99 1004.75,-140.99 997.75,-140.99"/>
</g>
<!-- OnboardingLandingComponent -->
<g id="node7" class="node">
<title>OnboardingLandingComponent</title>
<polygon fill="#ffffb3" stroke="black" points="779.36,-122 584.64,-122 584.64,-86 779.36,-86 779.36,-122"/>
<text text-anchor="middle" x="682" y="-99.8" font-family="Times,serif" font-size="14.00">OnboardingLandingComponent</text>
</g>
<!-- OnboardingLandingComponent&#45;&gt;OnboardingModule -->
<g id="edge7" class="edge">
<title>OnboardingLandingComponent&#45;&gt;OnboardingModule</title>
<path fill="none" stroke="black" d="M682,-122.01C682,-138.05 682,-159 682,-159 682,-159 963.53,-159 963.53,-159"/>
<polygon fill="black" stroke="black" points="963.53,-162.5 973.53,-159 963.53,-155.5 963.53,-162.5"/>
</g>
<!-- OnboardingQboConnectorComponent -->
<g id="node8" class="node">
<title>OnboardingQboConnectorComponent</title>
<polygon fill="#ffffb3" stroke="black" points="566.13,-122 335.87,-122 335.87,-86 566.13,-86 566.13,-122"/>
<text text-anchor="middle" x="451" y="-99.8" font-family="Times,serif" font-size="14.00">OnboardingQboConnectorComponent</text>
</g>
<!-- OnboardingQboConnectorComponent&#45;&gt;OnboardingModule -->
<g id="edge8" class="edge">
<title>OnboardingQboConnectorComponent&#45;&gt;OnboardingModule</title>
<path fill="none" stroke="black" d="M451,-122.27C451,-140.56 451,-166 451,-166 451,-166 963.73,-166 963.73,-166"/>
<polygon fill="black" stroke="black" points="963.73,-169.5 973.73,-166 963.73,-162.5 963.73,-169.5"/>
</g>
<!-- OnboardingRoutingModule -->
<g id="node10" class="node">
<title>OnboardingRoutingModule</title>
<polygon fill="#8dd3c7" stroke="black" points="311.54,-122 308.54,-126 287.54,-126 284.54,-122 140.46,-122 140.46,-86 311.54,-86 311.54,-122"/>
<text text-anchor="middle" x="226" y="-99.8" font-family="Times,serif" font-size="14.00">OnboardingRoutingModule</text>
</g>
<!-- OnboardingRoutingModule&#45;&gt;OnboardingModule -->
<g id="edge9" class="edge">
<title>OnboardingRoutingModule&#45;&gt;OnboardingModule</title>
<path fill="none" stroke="black" d="M226,-122.13C226,-142.57 226,-173 226,-173 226,-173 963.7,-173 963.7,-173"/>
<polygon fill="black" stroke="black" points="963.7,-176.5 973.7,-173 963.7,-169.5 963.7,-176.5"/>
</g>
<!-- SharedModule -->
<g id="node11" class="node">
<title>SharedModule</title>
<polygon fill="#8dd3c7" stroke="black" points="122.42,-122 119.42,-126 98.42,-126 95.42,-122 23.58,-122 23.58,-86 122.42,-86 122.42,-122"/>
<text text-anchor="middle" x="73" y="-99.8" font-family="Times,serif" font-size="14.00">SharedModule</text>
</g>
<!-- SharedModule&#45;&gt;OnboardingModule -->
<g id="edge10" class="edge">
<title>SharedModule&#45;&gt;OnboardingModule</title>
<path fill="none" stroke="black" d="M73,-122.01C73,-144.49 73,-180 73,-180 73,-180 963.75,-180 963.75,-180"/>
<polygon fill="black" stroke="black" points="963.75,-183.5 973.75,-180 963.75,-176.5 963.75,-183.5"/>
</g>
</g>
</svg>
