<?xml version="1.0" encoding="UTF-8" standalone="no"?>
<!DOCTYPE svg PUBLIC "-//W3C//DTD SVG 1.1//EN"
 "http://www.w3.org/Graphics/SVG/1.1/DTD/svg11.dtd">
<!-- Generated by graphviz version 2.47.0 (20210316.0004)
 -->
<!-- Title: dependencies Pages: 1 -->
<svg width="2208pt" height="211pt"
 viewBox="0.00 0.00 2208.00 211.00" xmlns="http://www.w3.org/2000/svg" xmlns:xlink="http://www.w3.org/1999/xlink">
<g id="graph0" class="graph" transform="scale(1 1) rotate(0) translate(4 207)">
<title>dependencies</title>
<polygon fill="white" stroke="transparent" points="-4,4 -4,-207 2204,-207 2204,4 -4,4"/>
<text text-anchor="start" x="1079.01" y="-42.4" font-family="Times-12" font-weight="bold" font-size="14.00">Legend</text>
<polygon fill="#ffffb3" stroke="transparent" points="866,-10 866,-30 886,-30 886,-10 866,-10"/>
<text text-anchor="start" x="889.63" y="-15.4" font-family="Times-12" font-size="14.00"> &#160;Declarations</text>
<polygon fill="#8dd3c7" stroke="transparent" points="979,-10 979,-30 999,-30 999,-10 979,-10"/>
<text text-anchor="start" x="1002.73" y="-15.4" font-family="Times-12" font-size="14.00"> &#160;Module</text>
<polygon fill="#80b1d3" stroke="transparent" points="1065,-10 1065,-30 1085,-30 1085,-10 1065,-10"/>
<text text-anchor="start" x="1088.78" y="-15.4" font-family="Times-12" font-size="14.00"> &#160;Bootstrap</text>
<polygon fill="#fdb462" stroke="transparent" points="1162,-10 1162,-30 1182,-30 1182,-10 1162,-10"/>
<text text-anchor="start" x="1185.67" y="-15.4" font-family="Times-12" font-size="14.00"> &#160;Providers</text>
<polygon fill="#fb8072" stroke="transparent" points="1258,-10 1258,-30 1278,-30 1278,-10 1258,-10"/>
<text text-anchor="start" x="1281.73" y="-15.4" font-family="Times-12" font-size="14.00"> &#160;Exports</text>
<g id="clust1" class="cluster">
<title>cluster_OnboardingModule</title>
<polygon fill="none" stroke="black" stroke-dasharray="1,5" points="8,-70 8,-195 2192,-195 2192,-70 8,-70"/>
</g>
<g id="clust11" class="cluster">
<title>cluster_OnboardingModule_imports</title>
<polygon fill="none" stroke="black" points="1880,-78 1880,-130 2184,-130 2184,-78 1880,-78"/>
</g>
<g id="clust2" class="cluster">
<title>cluster_OnboardingModule_declarations</title>
<polygon fill="none" stroke="black" points="16,-78 16,-130 1872,-130 1872,-78 16,-78"/>
</g>
<!-- OnboardingAdvancedSettingsComponent -->
<g id="node1" class="node">
<title>OnboardingAdvancedSettingsComponent</title>
<polygon fill="#ffffb3" stroke="black" points="1864.07,-122 1613.93,-122 1613.93,-86 1864.07,-86 1864.07,-122"/>
<text text-anchor="middle" x="1739" y="-99.8" font-family="Times,serif" font-size="14.00">OnboardingAdvancedSettingsComponent</text>
</g>
<!-- OnboardingModule -->
<g id="node9" class="node">
<title>OnboardingModule</title>
<polygon fill="#8dd3c7" stroke="black" points="1288.42,-187 1285.42,-191 1264.42,-191 1261.42,-187 1161.58,-187 1161.58,-151 1288.42,-151 1288.42,-187"/>
<text text-anchor="middle" x="1225" y="-164.8" font-family="Times,serif" font-size="14.00">OnboardingModule</text>
</g>
<!-- OnboardingAdvancedSettingsComponent&#45;&gt;OnboardingModule -->
<g id="edge1" class="edge">
<title>OnboardingAdvancedSettingsComponent&#45;&gt;OnboardingModule</title>
<path fill="none" stroke="black" d="M1739,-122.27C1739,-140.56 1739,-166 1739,-166 1739,-166 1298.28,-166 1298.28,-166"/>
<polygon fill="black" stroke="black" points="1298.28,-162.5 1288.28,-166 1298.28,-169.5 1298.28,-162.5"/>
</g>
<!-- OnboardingComponent -->
<g id="node2" class="node">
<title>OnboardingComponent</title>
<polygon fill="#ffffb3" stroke="black" points="1596.2,-122 1447.8,-122 1447.8,-86 1596.2,-86 1596.2,-122"/>
<text text-anchor="middle" x="1522" y="-99.8" font-family="Times,serif" font-size="14.00">OnboardingComponent</text>
</g>
<!-- OnboardingComponent&#45;&gt;OnboardingModule -->
<g id="edge2" class="edge">
<title>OnboardingComponent&#45;&gt;OnboardingModule</title>
<path fill="none" stroke="black" d="M1522,-122.01C1522,-138.05 1522,-159 1522,-159 1522,-159 1298.35,-159 1298.35,-159"/>
<polygon fill="black" stroke="black" points="1298.35,-155.5 1288.35,-159 1298.35,-162.5 1298.35,-155.5"/>
</g>
<!-- OnboardingDoneComponent -->
<g id="node3" class="node">
<title>OnboardingDoneComponent</title>
<polygon fill="#ffffb3" stroke="black" points="1430.03,-122 1251.97,-122 1251.97,-86 1430.03,-86 1430.03,-122"/>
<text text-anchor="middle" x="1341" y="-99.8" font-family="Times,serif" font-size="14.00">OnboardingDoneComponent</text>
</g>
<!-- OnboardingDoneComponent&#45;&gt;OnboardingModule -->
<g id="edge3" class="edge">
<title>OnboardingDoneComponent&#45;&gt;OnboardingModule</title>
<path fill="none" stroke="black" d="M1269.97,-122.11C1269.97,-122.11 1269.97,-140.99 1269.97,-140.99"/>
<polygon fill="black" stroke="black" points="1266.47,-140.99 1269.97,-150.99 1273.47,-140.99 1266.47,-140.99"/>
</g>
<!-- OnboardingEmployeeSettingsComponent -->
<g id="node4" class="node">
<title>OnboardingEmployeeSettingsComponent</title>
<polygon fill="#ffffb3" stroke="black" points="1234.08,-122 983.92,-122 983.92,-86 1234.08,-86 1234.08,-122"/>
<text text-anchor="middle" x="1109" y="-99.8" font-family="Times,serif" font-size="14.00">OnboardingEmployeeSettingsComponent</text>
</g>
<!-- OnboardingEmployeeSettingsComponent&#45;&gt;OnboardingModule -->
<g id="edge4" class="edge">
<title>OnboardingEmployeeSettingsComponent&#45;&gt;OnboardingModule</title>
<path fill="none" stroke="black" d="M1197.91,-122.11C1197.91,-122.11 1197.91,-140.99 1197.91,-140.99"/>
<polygon fill="black" stroke="black" points="1194.41,-140.99 1197.91,-150.99 1201.41,-140.99 1194.41,-140.99"/>
</g>
<!-- OnboardingExportSettingsComponent -->
<g id="node5" class="node">
<title>OnboardingExportSettingsComponent</title>
<polygon fill="#ffffb3" stroke="black" points="965.92,-122 734.08,-122 734.08,-86 965.92,-86 965.92,-122"/>
<text text-anchor="middle" x="850" y="-99.8" font-family="Times,serif" font-size="14.00">OnboardingExportSettingsComponent</text>
</g>
<!-- OnboardingExportSettingsComponent&#45;&gt;OnboardingModule -->
<g id="edge5" class="edge">
<title>OnboardingExportSettingsComponent&#45;&gt;OnboardingModule</title>
<path fill="none" stroke="black" d="M850,-122.01C850,-138.05 850,-159 850,-159 850,-159 1151.39,-159 1151.39,-159"/>
<polygon fill="black" stroke="black" points="1151.39,-162.5 1161.39,-159 1151.39,-155.5 1151.39,-162.5"/>
</g>
<!-- OnboardingImportSettingsComponent -->
<g id="node6" class="node">
<title>OnboardingImportSettingsComponent</title>
<polygon fill="#ffffb3" stroke="black" points="716.92,-122 485.08,-122 485.08,-86 716.92,-86 716.92,-122"/>
<text text-anchor="middle" x="601" y="-99.8" font-family="Times,serif" font-size="14.00">OnboardingImportSettingsComponent</text>
</g>
<!-- OnboardingImportSettingsComponent&#45;&gt;OnboardingModule -->
<g id="edge6" class="edge">
<title>OnboardingImportSettingsComponent&#45;&gt;OnboardingModule</title>
<path fill="none" stroke="black" d="M601,-122.27C601,-140.56 601,-166 601,-166 601,-166 1151.73,-166 1151.73,-166"/>
<polygon fill="black" stroke="black" points="1151.73,-169.5 1161.73,-166 1151.73,-162.5 1151.73,-169.5"/>
</g>
<!-- OnboardingLandingComponent -->
<g id="node7" class="node">
<title>OnboardingLandingComponent</title>
<polygon fill="#ffffb3" stroke="black" points="467.36,-122 272.64,-122 272.64,-86 467.36,-86 467.36,-122"/>
<text text-anchor="middle" x="370" y="-99.8" font-family="Times,serif" font-size="14.00">OnboardingLandingComponent</text>
</g>
<!-- OnboardingLandingComponent&#45;&gt;OnboardingModule -->
<g id="edge7" class="edge">
<title>OnboardingLandingComponent&#45;&gt;OnboardingModule</title>
<path fill="none" stroke="black" d="M370,-122.13C370,-142.57 370,-173 370,-173 370,-173 1151.78,-173 1151.78,-173"/>
<polygon fill="black" stroke="black" points="1151.78,-176.5 1161.78,-173 1151.78,-169.5 1151.78,-176.5"/>
</g>
<!-- OnboardingQboConnectorComponent -->
<g id="node8" class="node">
<title>OnboardingQboConnectorComponent</title>
<polygon fill="#ffffb3" stroke="black" points="254.13,-122 23.87,-122 23.87,-86 254.13,-86 254.13,-122"/>
<text text-anchor="middle" x="139" y="-99.8" font-family="Times,serif" font-size="14.00">OnboardingQboConnectorComponent</text>
</g>
<!-- OnboardingQboConnectorComponent&#45;&gt;OnboardingModule -->
<g id="edge8" class="edge">
<title>OnboardingQboConnectorComponent&#45;&gt;OnboardingModule</title>
<path fill="none" stroke="black" d="M139,-122.01C139,-144.49 139,-180 139,-180 139,-180 1151.52,-180 1151.52,-180"/>
<polygon fill="black" stroke="black" points="1151.52,-183.5 1161.52,-180 1151.52,-176.5 1151.52,-183.5"/>
</g>
<!-- OnboardingRoutingModule -->
<g id="node10" class="node">
<title>OnboardingRoutingModule</title>
<polygon fill="#8dd3c7" stroke="black" points="2175.54,-122 2172.54,-126 2151.54,-126 2148.54,-122 2004.46,-122 2004.46,-86 2175.54,-86 2175.54,-122"/>
<text text-anchor="middle" x="2090" y="-99.8" font-family="Times,serif" font-size="14.00">OnboardingRoutingModule</text>
</g>
<!-- OnboardingRoutingModule&#45;&gt;OnboardingModule -->
<g id="edge9" class="edge">
<title>OnboardingRoutingModule&#45;&gt;OnboardingModule</title>
<path fill="none" stroke="black" d="M2090,-122.01C2090,-144.49 2090,-180 2090,-180 2090,-180 1298.26,-180 1298.26,-180"/>
<polygon fill="black" stroke="black" points="1298.26,-176.5 1288.26,-180 1298.26,-183.5 1298.26,-176.5"/>
</g>
<!-- SharedModule -->
<g id="node11" class="node">
<title>SharedModule</title>
<polygon fill="#8dd3c7" stroke="black" points="1986.42,-122 1983.42,-126 1962.42,-126 1959.42,-122 1887.58,-122 1887.58,-86 1986.42,-86 1986.42,-122"/>
<text text-anchor="middle" x="1937" y="-99.8" font-family="Times,serif" font-size="14.00">SharedModule</text>
</g>
<!-- SharedModule&#45;&gt;OnboardingModule -->
<g id="edge10" class="edge">
<title>SharedModule&#45;&gt;OnboardingModule</title>
<path fill="none" stroke="black" d="M1937,-122.13C1937,-142.57 1937,-173 1937,-173 1937,-173 1298.5,-173 1298.5,-173"/>
<polygon fill="black" stroke="black" points="1298.5,-169.5 1288.5,-173 1298.5,-176.5 1298.5,-169.5"/>
</g>
</g>
</svg>
