<?xml version="1.0" encoding="UTF-8" standalone="no"?>
<!DOCTYPE svg PUBLIC "-//W3C//DTD SVG 1.1//EN"
 "http://www.w3.org/Graphics/SVG/1.1/DTD/svg11.dtd">
<!-- Generated by graphviz version 2.47.0 (20210316.0004)
 -->
<!-- Title: dependencies Pages: 1 -->
<svg width="2386pt" height="211pt"
 viewBox="0.00 0.00 2386.00 211.00" xmlns="http://www.w3.org/2000/svg" xmlns:xlink="http://www.w3.org/1999/xlink">
<g id="graph0" class="graph" transform="scale(1 1) rotate(0) translate(4 207)">
<title>dependencies</title>
<polygon fill="white" stroke="transparent" points="-4,4 -4,-207 2382,-207 2382,4 -4,4"/>
<text text-anchor="start" x="1168.01" y="-42.4" font-family="Times-12" font-weight="bold" font-size="14.00">Legend</text>
<polygon fill="#ffffb3" stroke="transparent" points="955,-10 955,-30 975,-30 975,-10 955,-10"/>
<text text-anchor="start" x="978.63" y="-15.4" font-family="Times-12" font-size="14.00"> &#160;Declarations</text>
<polygon fill="#8dd3c7" stroke="transparent" points="1068,-10 1068,-30 1088,-30 1088,-10 1068,-10"/>
<text text-anchor="start" x="1091.73" y="-15.4" font-family="Times-12" font-size="14.00"> &#160;Module</text>
<polygon fill="#80b1d3" stroke="transparent" points="1154,-10 1154,-30 1174,-30 1174,-10 1154,-10"/>
<text text-anchor="start" x="1177.78" y="-15.4" font-family="Times-12" font-size="14.00"> &#160;Bootstrap</text>
<polygon fill="#fdb462" stroke="transparent" points="1251,-10 1251,-30 1271,-30 1271,-10 1251,-10"/>
<text text-anchor="start" x="1274.67" y="-15.4" font-family="Times-12" font-size="14.00"> &#160;Providers</text>
<polygon fill="#fb8072" stroke="transparent" points="1347,-10 1347,-30 1367,-30 1367,-10 1347,-10"/>
<text text-anchor="start" x="1370.73" y="-15.4" font-family="Times-12" font-size="14.00"> &#160;Exports</text>
<g id="clust1" class="cluster">
<title>cluster_OnboardingModule</title>
<polygon fill="none" stroke="black" stroke-dasharray="1,5" points="8,-70 8,-195 2370,-195 2370,-70 8,-70"/>
</g>
<g id="clust12" class="cluster">
<title>cluster_OnboardingModule_imports</title>
<polygon fill="none" stroke="black" points="2058,-78 2058,-130 2362,-130 2362,-78 2058,-78"/>
</g>
<g id="clust2" class="cluster">
<title>cluster_OnboardingModule_declarations</title>
<polygon fill="none" stroke="black" points="16,-78 16,-130 2050,-130 2050,-78 16,-78"/>
</g>
<!-- CloneSettingsComponent -->
<g id="node1" class="node">
<title>CloneSettingsComponent</title>
<polygon fill="#ffffb3" stroke="black" points="2041.89,-122 1882.11,-122 1882.11,-86 2041.89,-86 2041.89,-122"/>
<text text-anchor="middle" x="1962" y="-99.8" font-family="Times,serif" font-size="14.00">CloneSettingsComponent</text>
</g>
<!-- OnboardingModule -->
<g id="node10" class="node">
<title>OnboardingModule</title>
<polygon fill="#8dd3c7" stroke="black" points="1494.42,-187 1491.42,-191 1470.42,-191 1467.42,-187 1367.58,-187 1367.58,-151 1494.42,-151 1494.42,-187"/>
<text text-anchor="middle" x="1431" y="-164.8" font-family="Times,serif" font-size="14.00">OnboardingModule</text>
</g>
<!-- CloneSettingsComponent&#45;&gt;OnboardingModule -->
<g id="edge1" class="edge">
<title>CloneSettingsComponent&#45;&gt;OnboardingModule</title>
<path fill="none" stroke="black" d="M1962,-122.02C1962,-139.37 1962,-163 1962,-163 1962,-163 1504.26,-163 1504.26,-163"/>
<polygon fill="black" stroke="black" points="1504.26,-159.5 1494.26,-163 1504.26,-166.5 1504.26,-159.5"/>
</g>
<!-- OnboardingAdvancedSettingsComponent -->
<g id="node2" class="node">
<title>OnboardingAdvancedSettingsComponent</title>
<polygon fill="#ffffb3" stroke="black" points="1864.07,-122 1613.93,-122 1613.93,-86 1864.07,-86 1864.07,-122"/>
<text text-anchor="middle" x="1739" y="-99.8" font-family="Times,serif" font-size="14.00">OnboardingAdvancedSettingsComponent</text>
</g>
<!-- OnboardingAdvancedSettingsComponent&#45;&gt;OnboardingModule -->
<g id="edge2" class="edge">
<title>OnboardingAdvancedSettingsComponent&#45;&gt;OnboardingModule</title>
<path fill="none" stroke="black" d="M1739,-122.24C1739,-137.57 1739,-157 1739,-157 1739,-157 1504.44,-157 1504.44,-157"/>
<polygon fill="black" stroke="black" points="1504.44,-153.5 1494.44,-157 1504.44,-160.5 1504.44,-153.5"/>
</g>
<!-- OnboardingComponent -->
<g id="node3" class="node">
<title>OnboardingComponent</title>
<polygon fill="#ffffb3" stroke="black" points="1596.2,-122 1447.8,-122 1447.8,-86 1596.2,-86 1596.2,-122"/>
<text text-anchor="middle" x="1522" y="-99.8" font-family="Times,serif" font-size="14.00">OnboardingComponent</text>
</g>
<!-- OnboardingComponent&#45;&gt;OnboardingModule -->
<g id="edge3" class="edge">
<title>OnboardingComponent&#45;&gt;OnboardingModule</title>
<path fill="none" stroke="black" d="M1471.05,-122.11C1471.05,-122.11 1471.05,-140.99 1471.05,-140.99"/>
<polygon fill="black" stroke="black" points="1467.55,-140.99 1471.05,-150.99 1474.55,-140.99 1467.55,-140.99"/>
</g>
<!-- OnboardingDoneComponent -->
<g id="node4" class="node">
<title>OnboardingDoneComponent</title>
<polygon fill="#ffffb3" stroke="black" points="1430.03,-122 1251.97,-122 1251.97,-86 1430.03,-86 1430.03,-122"/>
<text text-anchor="middle" x="1341" y="-99.8" font-family="Times,serif" font-size="14.00">OnboardingDoneComponent</text>
</g>
<!-- OnboardingDoneComponent&#45;&gt;OnboardingModule -->
<g id="edge4" class="edge">
<title>OnboardingDoneComponent&#45;&gt;OnboardingModule</title>
<path fill="none" stroke="black" d="M1399.03,-122.11C1399.03,-122.11 1399.03,-140.99 1399.03,-140.99"/>
<polygon fill="black" stroke="black" points="1395.53,-140.99 1399.03,-150.99 1402.53,-140.99 1395.53,-140.99"/>
</g>
<!-- OnboardingEmployeeSettingsComponent -->
<g id="node5" class="node">
<title>OnboardingEmployeeSettingsComponent</title>
<polygon fill="#ffffb3" stroke="black" points="1234.08,-122 983.92,-122 983.92,-86 1234.08,-86 1234.08,-122"/>
<text text-anchor="middle" x="1109" y="-99.8" font-family="Times,serif" font-size="14.00">OnboardingEmployeeSettingsComponent</text>
</g>
<!-- OnboardingEmployeeSettingsComponent&#45;&gt;OnboardingModule -->
<g id="edge5" class="edge">
<title>OnboardingEmployeeSettingsComponent&#45;&gt;OnboardingModule</title>
<path fill="none" stroke="black" d="M1109,-122.24C1109,-137.57 1109,-157 1109,-157 1109,-157 1357.77,-157 1357.77,-157"/>
<polygon fill="black" stroke="black" points="1357.77,-160.5 1367.77,-157 1357.77,-153.5 1357.77,-160.5"/>
</g>
<!-- OnboardingExportSettingsComponent -->
<g id="node6" class="node">
<title>OnboardingExportSettingsComponent</title>
<polygon fill="#ffffb3" stroke="black" points="965.92,-122 734.08,-122 734.08,-86 965.92,-86 965.92,-122"/>
<text text-anchor="middle" x="850" y="-99.8" font-family="Times,serif" font-size="14.00">OnboardingExportSettingsComponent</text>
</g>
<!-- OnboardingExportSettingsComponent&#45;&gt;OnboardingModule -->
<g id="edge6" class="edge">
<title>OnboardingExportSettingsComponent&#45;&gt;OnboardingModule</title>
<path fill="none" stroke="black" d="M850,-122.02C850,-139.37 850,-163 850,-163 850,-163 1357.72,-163 1357.72,-163"/>
<polygon fill="black" stroke="black" points="1357.72,-166.5 1367.72,-163 1357.72,-159.5 1357.72,-166.5"/>
</g>
<!-- OnboardingImportSettingsComponent -->
<g id="node7" class="node">
<title>OnboardingImportSettingsComponent</title>
<polygon fill="#ffffb3" stroke="black" points="716.92,-122 485.08,-122 485.08,-86 716.92,-86 716.92,-122"/>
<text text-anchor="middle" x="601" y="-99.8" font-family="Times,serif" font-size="14.00">OnboardingImportSettingsComponent</text>
</g>
<!-- OnboardingImportSettingsComponent&#45;&gt;OnboardingModule -->
<g id="edge7" class="edge">
<title>OnboardingImportSettingsComponent&#45;&gt;OnboardingModule</title>
<path fill="none" stroke="black" d="M601,-122.11C601,-141.34 601,-169 601,-169 601,-169 1357.59,-169 1357.59,-169"/>
<polygon fill="black" stroke="black" points="1357.59,-172.5 1367.59,-169 1357.59,-165.5 1357.59,-172.5"/>
</g>
<!-- OnboardingLandingComponent -->
<g id="node8" class="node">
<title>OnboardingLandingComponent</title>
<polygon fill="#ffffb3" stroke="black" points="467.36,-122 272.64,-122 272.64,-86 467.36,-86 467.36,-122"/>
<text text-anchor="middle" x="370" y="-99.8" font-family="Times,serif" font-size="14.00">OnboardingLandingComponent</text>
</g>
<!-- OnboardingLandingComponent&#45;&gt;OnboardingModule -->
<g id="edge8" class="edge">
<title>OnboardingLandingComponent&#45;&gt;OnboardingModule</title>
<path fill="none" stroke="black" d="M370,-122.28C370,-143.32 370,-175 370,-175 370,-175 1357.41,-175 1357.41,-175"/>
<polygon fill="black" stroke="black" points="1357.41,-178.5 1367.41,-175 1357.41,-171.5 1357.41,-178.5"/>
</g>
<!-- OnboardingQboConnectorComponent -->
<g id="node9" class="node">
<title>OnboardingQboConnectorComponent</title>
<polygon fill="#ffffb3" stroke="black" points="254.13,-122 23.87,-122 23.87,-86 254.13,-86 254.13,-122"/>
<text text-anchor="middle" x="139" y="-99.8" font-family="Times,serif" font-size="14.00">OnboardingQboConnectorComponent</text>
</g>
<!-- OnboardingQboConnectorComponent&#45;&gt;OnboardingModule -->
<g id="edge9" class="edge">
<title>OnboardingQboConnectorComponent&#45;&gt;OnboardingModule</title>
<path fill="none" stroke="black" d="M139,-122.09C139,-145.13 139,-182 139,-182 139,-182 1357.37,-182 1357.37,-182"/>
<polygon fill="black" stroke="black" points="1357.37,-185.5 1367.37,-182 1357.37,-178.5 1357.37,-185.5"/>
</g>
<!-- OnboardingRoutingModule -->
<g id="node11" class="node">
<title>OnboardingRoutingModule</title>
<polygon fill="#8dd3c7" stroke="black" points="2353.54,-122 2350.54,-126 2329.54,-126 2326.54,-122 2182.46,-122 2182.46,-86 2353.54,-86 2353.54,-122"/>
<text text-anchor="middle" x="2268" y="-99.8" font-family="Times,serif" font-size="14.00">OnboardingRoutingModule</text>
</g>
<!-- OnboardingRoutingModule&#45;&gt;OnboardingModule -->
<g id="edge10" class="edge">
<title>OnboardingRoutingModule&#45;&gt;OnboardingModule</title>
<path fill="none" stroke="black" d="M2268,-122.09C2268,-145.13 2268,-182 2268,-182 2268,-182 1504.25,-182 1504.25,-182"/>
<polygon fill="black" stroke="black" points="1504.25,-178.5 1494.25,-182 1504.25,-185.5 1504.25,-178.5"/>
</g>
<!-- SharedModule -->
<g id="node12" class="node">
<title>SharedModule</title>
<polygon fill="#8dd3c7" stroke="black" points="2164.42,-122 2161.42,-126 2140.42,-126 2137.42,-122 2065.58,-122 2065.58,-86 2164.42,-86 2164.42,-122"/>
<text text-anchor="middle" x="2115" y="-99.8" font-family="Times,serif" font-size="14.00">SharedModule</text>
</g>
<!-- SharedModule&#45;&gt;OnboardingModule -->
<g id="edge11" class="edge">
<title>SharedModule&#45;&gt;OnboardingModule</title>
<path fill="none" stroke="black" d="M2131.4,-122.28C2131.4,-143.32 2131.4,-175 2131.4,-175 2131.4,-175 1504.39,-175 1504.39,-175"/>
<polygon fill="black" stroke="black" points="1504.39,-171.5 1494.39,-175 1504.39,-178.5 1504.39,-171.5"/>
</g>
<!-- SharedModule&#45;&gt;OnboardingModule -->
<g id="edge12" class="edge">
<title>SharedModule&#45;&gt;OnboardingModule</title>
<path fill="none" stroke="black" d="M2098.6,-122.11C2098.6,-141.34 2098.6,-169 2098.6,-169 2098.6,-169 1504.41,-169 1504.41,-169"/>
<polygon fill="black" stroke="black" points="1504.41,-165.5 1494.41,-169 1504.41,-172.5 1504.41,-165.5"/>
</g>
</g>
</svg>
