<?xml version="1.0" encoding="UTF-8" standalone="no"?>
<!DOCTYPE svg PUBLIC "-//W3C//DTD SVG 1.1//EN"
 "http://www.w3.org/Graphics/SVG/1.1/DTD/svg11.dtd">
<!-- Generated by graphviz version 2.47.0 (20210316.0004)
 -->
<!-- Title: dependencies Pages: 1 -->
<svg width="2386pt" height="211pt"
 viewBox="0.00 0.00 2386.00 211.00" xmlns="http://www.w3.org/2000/svg" xmlns:xlink="http://www.w3.org/1999/xlink">
<g id="graph0" class="graph" transform="scale(1 1) rotate(0) translate(4 207)">
<title>dependencies</title>
<polygon fill="white" stroke="transparent" points="-4,4 -4,-207 2382,-207 2382,4 -4,4"/>
<text text-anchor="start" x="1168.01" y="-42.4" font-family="Times-12" font-weight="bold" font-size="14.00">Legend</text>
<polygon fill="#ffffb3" stroke="transparent" points="955,-10 955,-30 975,-30 975,-10 955,-10"/>
<text text-anchor="start" x="978.63" y="-15.4" font-family="Times-12" font-size="14.00"> &#160;Declarations</text>
<polygon fill="#8dd3c7" stroke="transparent" points="1068,-10 1068,-30 1088,-30 1088,-10 1068,-10"/>
<text text-anchor="start" x="1091.73" y="-15.4" font-family="Times-12" font-size="14.00"> &#160;Module</text>
<polygon fill="#80b1d3" stroke="transparent" points="1154,-10 1154,-30 1174,-30 1174,-10 1154,-10"/>
<text text-anchor="start" x="1177.78" y="-15.4" font-family="Times-12" font-size="14.00"> &#160;Bootstrap</text>
<polygon fill="#fdb462" stroke="transparent" points="1251,-10 1251,-30 1271,-30 1271,-10 1251,-10"/>
<text text-anchor="start" x="1274.67" y="-15.4" font-family="Times-12" font-size="14.00"> &#160;Providers</text>
<polygon fill="#fb8072" stroke="transparent" points="1347,-10 1347,-30 1367,-30 1367,-10 1347,-10"/>
<text text-anchor="start" x="1370.73" y="-15.4" font-family="Times-12" font-size="14.00"> &#160;Exports</text>
<g id="clust1" class="cluster">
<title>cluster_OnboardingModule</title>
<polygon fill="none" stroke="black" stroke-dasharray="1,5" points="8,-70 8,-195 2370,-195 2370,-70 8,-70"/>
</g>
<g id="clust2" class="cluster">
<title>cluster_OnboardingModule_declarations</title>
<polygon fill="none" stroke="black" points="328,-78 328,-130 2362,-130 2362,-78 328,-78"/>
</g>
<g id="clust12" class="cluster">
<title>cluster_OnboardingModule_imports</title>
<polygon fill="none" stroke="black" points="16,-78 16,-130 320,-130 320,-78 16,-78"/>
</g>
<!-- CloneSettingsComponent -->
<g id="node1" class="node">
<title>CloneSettingsComponent</title>
<polygon fill="#ffffb3" stroke="black" points="2353.89,-122 2194.11,-122 2194.11,-86 2353.89,-86 2353.89,-122"/>
<text text-anchor="middle" x="2274" y="-99.8" font-family="Times,serif" font-size="14.00">CloneSettingsComponent</text>
</g>
<!-- OnboardingModule -->
<g id="node10" class="node">
<title>OnboardingModule</title>
<polygon fill="#8dd3c7" stroke="black" points="1100.42,-187 1097.42,-191 1076.42,-191 1073.42,-187 973.58,-187 973.58,-151 1100.42,-151 1100.42,-187"/>
<text text-anchor="middle" x="1037" y="-164.8" font-family="Times,serif" font-size="14.00">OnboardingModule</text>
</g>
<!-- CloneSettingsComponent&#45;&gt;OnboardingModule -->
<g id="edge1" class="edge">
<title>CloneSettingsComponent&#45;&gt;OnboardingModule</title>
<path fill="none" stroke="black" d="M2274,-122.09C2274,-145.13 2274,-182 2274,-182 2274,-182 1110.47,-182 1110.47,-182"/>
<polygon fill="black" stroke="black" points="1110.47,-178.5 1100.47,-182 1110.47,-185.5 1110.47,-178.5"/>
</g>
<!-- OnboardingAdvancedSettingsComponent -->
<g id="node2" class="node">
<title>OnboardingAdvancedSettingsComponent</title>
<polygon fill="#ffffb3" stroke="black" points="2176.07,-122 1925.93,-122 1925.93,-86 2176.07,-86 2176.07,-122"/>
<text text-anchor="middle" x="2051" y="-99.8" font-family="Times,serif" font-size="14.00">OnboardingAdvancedSettingsComponent</text>
</g>
<!-- OnboardingAdvancedSettingsComponent&#45;&gt;OnboardingModule -->
<g id="edge2" class="edge">
<title>OnboardingAdvancedSettingsComponent&#45;&gt;OnboardingModule</title>
<path fill="none" stroke="black" d="M2051,-122.28C2051,-143.32 2051,-175 2051,-175 2051,-175 1110.43,-175 1110.43,-175"/>
<polygon fill="black" stroke="black" points="1110.43,-171.5 1100.43,-175 1110.43,-178.5 1110.43,-171.5"/>
</g>
<!-- OnboardingComponent -->
<g id="node3" class="node">
<title>OnboardingComponent</title>
<polygon fill="#ffffb3" stroke="black" points="1908.2,-122 1759.8,-122 1759.8,-86 1908.2,-86 1908.2,-122"/>
<text text-anchor="middle" x="1834" y="-99.8" font-family="Times,serif" font-size="14.00">OnboardingComponent</text>
</g>
<!-- OnboardingComponent&#45;&gt;OnboardingModule -->
<g id="edge3" class="edge">
<title>OnboardingComponent&#45;&gt;OnboardingModule</title>
<path fill="none" stroke="black" d="M1834,-122.11C1834,-141.34 1834,-169 1834,-169 1834,-169 1110.54,-169 1110.54,-169"/>
<polygon fill="black" stroke="black" points="1110.54,-165.5 1100.54,-169 1110.54,-172.5 1110.54,-165.5"/>
</g>
<!-- OnboardingDoneComponent -->
<g id="node4" class="node">
<title>OnboardingDoneComponent</title>
<polygon fill="#ffffb3" stroke="black" points="1742.03,-122 1563.97,-122 1563.97,-86 1742.03,-86 1742.03,-122"/>
<text text-anchor="middle" x="1653" y="-99.8" font-family="Times,serif" font-size="14.00">OnboardingDoneComponent</text>
</g>
<!-- OnboardingDoneComponent&#45;&gt;OnboardingModule -->
<g id="edge4" class="edge">
<title>OnboardingDoneComponent&#45;&gt;OnboardingModule</title>
<path fill="none" stroke="black" d="M1653,-122.02C1653,-139.37 1653,-163 1653,-163 1653,-163 1110.32,-163 1110.32,-163"/>
<polygon fill="black" stroke="black" points="1110.32,-159.5 1100.32,-163 1110.32,-166.5 1110.32,-159.5"/>
</g>
<!-- OnboardingEmployeeSettingsComponent -->
<g id="node5" class="node">
<title>OnboardingEmployeeSettingsComponent</title>
<polygon fill="#ffffb3" stroke="black" points="1546.08,-122 1295.92,-122 1295.92,-86 1546.08,-86 1546.08,-122"/>
<text text-anchor="middle" x="1421" y="-99.8" font-family="Times,serif" font-size="14.00">OnboardingEmployeeSettingsComponent</text>
</g>
<!-- OnboardingEmployeeSettingsComponent&#45;&gt;OnboardingModule -->
<g id="edge5" class="edge">
<title>OnboardingEmployeeSettingsComponent&#45;&gt;OnboardingModule</title>
<path fill="none" stroke="black" d="M1421,-122.24C1421,-137.57 1421,-157 1421,-157 1421,-157 1110.41,-157 1110.41,-157"/>
<polygon fill="black" stroke="black" points="1110.41,-153.5 1100.41,-157 1110.41,-160.5 1110.41,-153.5"/>
</g>
<!-- OnboardingExportSettingsComponent -->
<g id="node6" class="node">
<title>OnboardingExportSettingsComponent</title>
<polygon fill="#ffffb3" stroke="black" points="1277.92,-122 1046.08,-122 1046.08,-86 1277.92,-86 1277.92,-122"/>
<text text-anchor="middle" x="1162" y="-99.8" font-family="Times,serif" font-size="14.00">OnboardingExportSettingsComponent</text>
</g>
<!-- OnboardingExportSettingsComponent&#45;&gt;OnboardingModule -->
<g id="edge6" class="edge">
<title>OnboardingExportSettingsComponent&#45;&gt;OnboardingModule</title>
<path fill="none" stroke="black" d="M1073.25,-122.11C1073.25,-122.11 1073.25,-140.99 1073.25,-140.99"/>
<polygon fill="black" stroke="black" points="1069.75,-140.99 1073.25,-150.99 1076.75,-140.99 1069.75,-140.99"/>
</g>
<!-- OnboardingImportSettingsComponent -->
<g id="node7" class="node">
<title>OnboardingImportSettingsComponent</title>
<polygon fill="#ffffb3" stroke="black" points="1028.92,-122 797.08,-122 797.08,-86 1028.92,-86 1028.92,-122"/>
<text text-anchor="middle" x="913" y="-99.8" font-family="Times,serif" font-size="14.00">OnboardingImportSettingsComponent</text>
</g>
<!-- OnboardingImportSettingsComponent&#45;&gt;OnboardingModule -->
<g id="edge7" class="edge">
<title>OnboardingImportSettingsComponent&#45;&gt;OnboardingModule</title>
<path fill="none" stroke="black" d="M1001.25,-122.11C1001.25,-122.11 1001.25,-140.99 1001.25,-140.99"/>
<polygon fill="black" stroke="black" points="997.75,-140.99 1001.25,-150.99 1004.75,-140.99 997.75,-140.99"/>
</g>
<!-- OnboardingLandingComponent -->
<g id="node8" class="node">
<title>OnboardingLandingComponent</title>
<polygon fill="#ffffb3" stroke="black" points="779.36,-122 584.64,-122 584.64,-86 779.36,-86 779.36,-122"/>
<text text-anchor="middle" x="682" y="-99.8" font-family="Times,serif" font-size="14.00">OnboardingLandingComponent</text>
</g>
<!-- OnboardingLandingComponent&#45;&gt;OnboardingModule -->
<g id="edge8" class="edge">
<title>OnboardingLandingComponent&#45;&gt;OnboardingModule</title>
<path fill="none" stroke="black" d="M682,-122.24C682,-137.57 682,-157 682,-157 682,-157 963.53,-157 963.53,-157"/>
<polygon fill="black" stroke="black" points="963.53,-160.5 973.53,-157 963.53,-153.5 963.53,-160.5"/>
</g>
<!-- OnboardingQboConnectorComponent -->
<g id="node9" class="node">
<title>OnboardingQboConnectorComponent</title>
<polygon fill="#ffffb3" stroke="black" points="566.13,-122 335.87,-122 335.87,-86 566.13,-86 566.13,-122"/>
<text text-anchor="middle" x="451" y="-99.8" font-family="Times,serif" font-size="14.00">OnboardingQboConnectorComponent</text>
</g>
<!-- OnboardingQboConnectorComponent&#45;&gt;OnboardingModule -->
<g id="edge9" class="edge">
<title>OnboardingQboConnectorComponent&#45;&gt;OnboardingModule</title>
<path fill="none" stroke="black" d="M451,-122.02C451,-139.37 451,-163 451,-163 451,-163 963.73,-163 963.73,-163"/>
<polygon fill="black" stroke="black" points="963.73,-166.5 973.73,-163 963.73,-159.5 963.73,-166.5"/>
</g>
<!-- OnboardingRoutingModule -->
<g id="node11" class="node">
<title>OnboardingRoutingModule</title>
<polygon fill="#8dd3c7" stroke="black" points="311.54,-122 308.54,-126 287.54,-126 284.54,-122 140.46,-122 140.46,-86 311.54,-86 311.54,-122"/>
<text text-anchor="middle" x="226" y="-99.8" font-family="Times,serif" font-size="14.00">OnboardingRoutingModule</text>
</g>
<!-- OnboardingRoutingModule&#45;&gt;OnboardingModule -->
<g id="edge10" class="edge">
<title>OnboardingRoutingModule&#45;&gt;OnboardingModule</title>
<path fill="none" stroke="black" d="M226,-122.11C226,-141.34 226,-169 226,-169 226,-169 963.7,-169 963.7,-169"/>
<polygon fill="black" stroke="black" points="963.7,-172.5 973.7,-169 963.7,-165.5 963.7,-172.5"/>
</g>
<!-- SharedModule -->
<g id="node12" class="node">
<title>SharedModule</title>
<polygon fill="#8dd3c7" stroke="black" points="122.42,-122 119.42,-126 98.42,-126 95.42,-122 23.58,-122 23.58,-86 122.42,-86 122.42,-122"/>
<text text-anchor="middle" x="73" y="-99.8" font-family="Times,serif" font-size="14.00">SharedModule</text>
</g>
<!-- SharedModule&#45;&gt;OnboardingModule -->
<g id="edge11" class="edge">
<title>SharedModule&#45;&gt;OnboardingModule</title>
<path fill="none" stroke="black" d="M56.6,-122.09C56.6,-145.13 56.6,-182 56.6,-182 56.6,-182 963.43,-182 963.43,-182"/>
<polygon fill="black" stroke="black" points="963.43,-185.5 973.43,-182 963.43,-178.5 963.43,-185.5"/>
</g>
<!-- SharedModule&#45;&gt;OnboardingModule -->
<g id="edge12" class="edge">
<title>SharedModule&#45;&gt;OnboardingModule</title>
<path fill="none" stroke="black" d="M89.4,-122.28C89.4,-143.32 89.4,-175 89.4,-175 89.4,-175 963.72,-175 963.72,-175"/>
<polygon fill="black" stroke="black" points="963.72,-178.5 973.72,-175 963.72,-171.5 963.72,-178.5"/>
</g>
</g>
</svg>
