<svg width="14" height="16" viewBox="0 0 14 16" fill="none" xmlns="http://www.w3.org/2000/svg">
<path fill-rule="evenodd" clip-rule="evenodd" d="M0.314135 6.18902C0.314135 5.90003 0.546603 5.66576 0.833366 5.66576H13.173C13.4598 5.66576 13.6923 5.90003 13.6923 6.18902C13.6923 6.478 13.4598 6.71227 13.173 6.71227H0.833366C0.546603 6.71227 0.314135 6.478 0.314135 6.18902Z" fill="#A9ACBC"/>
<path fill-rule="evenodd" clip-rule="evenodd" d="M9.55605 8.91374C9.55605 8.62475 9.78852 8.39048 10.0753 8.39048H10.0817C10.3685 8.39048 10.6009 8.62475 10.6009 8.91374C10.6009 9.20273 10.3685 9.437 10.0817 9.437H10.0753C9.78852 9.437 9.55605 9.20273 9.55605 8.91374Z" fill="#A9ACBC"/>
<path fill-rule="evenodd" clip-rule="evenodd" d="M6.48396 8.91374C6.48396 8.62475 6.71643 8.39048 7.0032 8.39048H7.00961C7.29637 8.39048 7.52884 8.62475 7.52884 8.91374C7.52884 9.20273 7.29637 9.437 7.00961 9.437H7.0032C6.71643 9.437 6.48396 9.20273 6.48396 8.91374Z" fill="#A9ACBC"/>
<path fill-rule="evenodd" clip-rule="evenodd" d="M3.40546 8.91374C3.40546 8.62475 3.63793 8.39048 3.92469 8.39048H3.93111C4.21787 8.39048 4.45034 8.62475 4.45034 8.91374C4.45034 9.20273 4.21787 9.437 3.93111 9.437H3.92469C3.63793 9.437 3.40546 9.20273 3.40546 8.91374Z" fill="#A9ACBC"/>
<path fill-rule="evenodd" clip-rule="evenodd" d="M9.55605 11.6253C9.55605 11.3363 9.78852 11.102 10.0753 11.102H10.0817C10.3685 11.102 10.6009 11.3363 10.6009 11.6253C10.6009 11.9143 10.3685 12.1485 10.0817 12.1485H10.0753C9.78852 12.1485 9.55605 11.9143 9.55605 11.6253Z" fill="#A9ACBC"/>
<path fill-rule="evenodd" clip-rule="evenodd" d="M6.48396 11.6253C6.48396 11.3363 6.71643 11.102 7.0032 11.102H7.00961C7.29637 11.102 7.52884 11.3363 7.52884 11.6253C7.52884 11.9143 7.29637 12.1485 7.00961 12.1485H7.0032C6.71643 12.1485 6.48396 11.9143 6.48396 11.6253Z" fill="#A9ACBC"/>
<path fill-rule="evenodd" clip-rule="evenodd" d="M3.40546 11.6253C3.40546 11.3363 3.63793 11.102 3.92469 11.102H3.93111C4.21787 11.102 4.45034 11.3363 4.45034 11.6253C4.45034 11.9143 4.21787 12.1485 3.93111 12.1485H3.92469C3.63793 12.1485 3.40546 11.9143 3.40546 11.6253Z" fill="#A9ACBC"/>
<path fill-rule="evenodd" clip-rule="evenodd" d="M9.7995 0.5C10.0863 0.5 10.3187 0.73427 10.3187 1.02326V3.31915C10.3187 3.60813 10.0863 3.8424 9.7995 3.8424C9.51274 3.8424 9.28027 3.60813 9.28027 3.31915V1.02326C9.28027 0.73427 9.51274 0.5 9.7995 0.5Z" fill="#A9ACBC"/>
<path fill-rule="evenodd" clip-rule="evenodd" d="M4.20689 0.5C4.49365 0.5 4.72612 0.73427 4.72612 1.02326V3.31915C4.72612 3.60813 4.49365 3.8424 4.20689 3.8424C3.92013 3.8424 3.68766 3.60813 3.68766 3.31915V1.02326C3.68766 0.73427 3.92013 0.5 4.20689 0.5Z" fill="#A9ACBC"/>
<path fill-rule="evenodd" clip-rule="evenodd" d="M1.30057 2.5787C1.99402 1.91439 2.96213 1.60176 4.07221 1.60176H9.93418C11.047 1.60176 12.0157 1.91415 12.708 2.5792C13.4041 3.24798 13.7533 4.20855 13.75 5.36507V11.7308C13.75 12.8873 13.399 13.8489 12.7026 14.519C12.01 15.1855 11.0415 15.5 9.92777 15.5H4.07221C2.95901 15.5 1.98979 15.179 1.29694 14.5022C0.601513 13.823 0.25 12.8494 0.25 11.678V5.36434C0.25 4.20702 0.603103 3.24685 1.30057 2.5787ZM2.01605 3.33719C1.5703 3.7642 1.28846 4.42369 1.28846 5.36434V11.678C1.28846 12.6377 1.57189 13.3134 2.01968 13.7508C2.47004 14.1907 3.15231 14.4535 4.07221 14.4535H9.92777C10.8536 14.4535 11.5366 14.194 11.9855 13.7621C12.4308 13.3336 12.7115 12.6723 12.7115 11.7308V5.36434L12.7115 5.36273C12.7144 4.42167 12.4351 3.7629 11.9914 3.33668C11.5437 2.90656 10.8609 2.64828 9.93418 2.64828H4.07221C3.14919 2.64828 2.46581 2.90633 2.01605 3.33719Z" fill="#A9ACBC"/>
</svg>
