<svg width="14" height="16" viewBox="0 0 14 16" fill="none" xmlns="http://www.w3.org/2000/svg">
<path fill-rule="evenodd" clip-rule="evenodd" d="M3.67983 1.63356C2.43708 1.63356 1.40508 2.64006 1.37583 3.88131V11.9026C1.34808 13.1873 2.36058 14.2456 3.63258 14.2741H9.68058C10.9323 14.2223 11.9238 13.1821 11.9148 11.9071V5.25456L8.43858 1.63356H3.67983ZM3.60708 15.3991C1.71558 15.3563 0.209578 13.7828 0.250828 11.8906V3.86781C0.294328 2.00706 1.83108 0.508564 3.67833 0.508564H8.67858C8.83158 0.508564 8.97783 0.570814 9.08433 0.681064L12.8831 4.63881C12.9836 4.74306 13.0398 4.88331 13.0398 5.02806V11.9026C13.0533 13.7843 11.5878 15.3218 9.70308 15.3983L3.60708 15.3991Z" fill="#A9ACBC"/>
<path fill-rule="evenodd" clip-rule="evenodd" d="M12.4737 5.738H10.4074C9.03494 5.73425 7.91894 4.61525 7.91894 3.24425V1.0625C7.91894 0.752 8.17094 0.5 8.48144 0.5C8.79194 0.5 9.04394 0.752 9.04394 1.0625V3.24425C9.04394 3.99725 9.65669 4.61075 10.4089 4.613H12.4737C12.7842 4.613 13.0362 4.865 13.0362 5.1755C13.0362 5.486 12.7842 5.738 12.4737 5.738Z" fill="#A9ACBC"/>
<path fill-rule="evenodd" clip-rule="evenodd" d="M8.34134 11.0811H4.29134C3.98084 11.0811 3.72884 10.8291 3.72884 10.5186C3.72884 10.2081 3.98084 9.95608 4.29134 9.95608H8.34134C8.65184 9.95608 8.90384 10.2081 8.90384 10.5186C8.90384 10.8291 8.65184 11.0811 8.34134 11.0811Z" fill="#A9ACBC"/>
<path fill-rule="evenodd" clip-rule="evenodd" d="M6.80767 8.26708H4.29067C3.98017 8.26708 3.72817 8.01508 3.72817 7.70458C3.72817 7.39407 3.98017 7.14208 4.29067 7.14208H6.80767C7.11817 7.14208 7.37017 7.39407 7.37017 7.70458C7.37017 8.01508 7.11817 8.26708 6.80767 8.26708Z" fill="#A9ACBC"/>
</svg>
