<svg width="16" height="16" viewBox="0 0 16 16" fill="none" xmlns="http://www.w3.org/2000/svg">
<path fill-rule="evenodd" clip-rule="evenodd" d="M1.87984 11.8662C1.7142 12.0398 1.625 12.2427 1.625 12.5143C1.625 12.7845 1.71419 12.9855 1.87995 13.1573C2.05913 13.343 2.34845 13.514 2.76883 13.6546C3.61528 13.9377 4.82193 14.0428 6.194 14.0428C7.57258 14.0428 8.77862 13.9338 9.62251 13.6476C10.0415 13.5055 10.3297 13.3331 10.5083 13.1462C10.6739 12.973 10.763 12.7705 10.763 12.4993C10.763 12.2293 10.6738 12.0281 10.5078 11.8559C10.3284 11.6699 10.0389 11.4985 9.61847 11.3575C8.77199 11.0737 7.56536 10.9678 6.194 10.9678C4.81521 10.9678 3.60925 11.0772 2.76556 11.364C2.34667 11.5064 2.05845 11.679 1.87984 11.8662ZM2.4035 10.2989C3.42975 9.95002 4.78954 9.84275 6.194 9.84275C7.58939 9.84275 8.94851 9.94638 9.97609 10.2909C10.4927 10.4641 10.9673 10.7116 11.3177 11.0751C11.6816 11.4526 11.888 11.9319 11.888 12.4993C11.888 13.0654 11.6835 13.5448 11.3217 13.9235C10.9728 14.2885 10.4999 14.5379 9.98387 14.713C8.95763 15.0611 7.59792 15.1678 6.194 15.1678C4.79857 15.1678 3.43947 15.0651 2.41205 14.7215C1.89549 14.5488 1.42084 14.3018 1.07028 13.9384C0.706309 13.561 0.5 13.0817 0.5 12.5143C0.5 11.9481 0.704334 11.4685 1.06597 11.0895C1.41463 10.7242 1.88742 10.4743 2.4035 10.2989Z" fill="#A9ACBC"/>
<path fill-rule="evenodd" clip-rule="evenodd" d="M6.194 2C4.68799 2 3.467 3.22058 3.467 4.72625C3.467 6.23192 4.68799 7.4525 6.194 7.4525H6.21607C7.71501 7.44641 8.92584 6.22687 8.92025 4.72835L8.92025 4.72625C8.92025 3.22049 7.69917 2 6.194 2ZM2.342 4.72625C2.342 2.59892 4.06701 0.875 6.194 0.875C8.31994 0.875 10.0446 2.59838 10.0452 4.7251C10.0526 6.84534 8.33917 8.56959 6.21935 8.5775L6.21725 8.5775H6.194C4.06701 8.5775 2.342 6.85358 2.342 4.72625Z" fill="#A9ACBC"/>
<path fill-rule="evenodd" clip-rule="evenodd" d="M10.8639 2.18181C10.9141 1.87525 11.2034 1.66749 11.51 1.71777C12.9527 1.95438 14.0529 3.2056 14.0529 4.71485L14.0529 4.71586C14.0502 6.24709 12.9151 7.51121 11.441 7.71838C11.1333 7.76161 10.8489 7.54727 10.8057 7.23963C10.7624 6.932 10.9768 6.64756 11.2844 6.60432C12.2116 6.47402 12.926 5.67738 12.9279 4.71433C12.9277 3.76531 12.2355 2.97679 11.3279 2.82793C11.0213 2.77766 10.8136 2.48838 10.8639 2.18181Z" fill="#A9ACBC"/>
<path fill-rule="evenodd" clip-rule="evenodd" d="M12.3906 9.96644C12.4363 9.65917 12.7225 9.44717 13.0298 9.49294C13.6419 9.5841 14.2305 9.74496 14.6795 10.0396C15.1567 10.3528 15.4849 10.8281 15.4849 11.4705C15.4849 11.897 15.3391 12.2679 15.0752 12.5661C14.8217 12.8526 14.4818 13.0476 14.1217 13.1844C13.8313 13.2947 13.5064 13.1487 13.3961 12.8583C13.2858 12.5679 13.4318 12.243 13.7222 12.1327C13.9801 12.0347 14.1404 11.9249 14.2327 11.8206C14.3145 11.7281 14.3599 11.6224 14.3599 11.4705C14.3599 11.273 14.282 11.1243 14.0623 10.9802C13.8144 10.8175 13.4152 10.6877 12.8641 10.6057C12.5568 10.5599 12.3448 10.2737 12.3906 9.96644Z" fill="#A9ACBC"/>
</svg>
