<svg width="12" height="13" viewBox="0 0 12 13" fill="none" xmlns="http://www.w3.org/2000/svg">
<path d="M6.00039 0.900391C2.90764 0.900391 0.400391 3.40764 0.400391 6.50039C0.400391 9.59358 2.90786 12.1004 6.00061 12.1004C9.09358 12.1004 11.6004 9.59358 11.6004 6.50039C11.6004 3.40764 9.09358 0.900391 6.00039 0.900391ZM6.23724 3.11556C6.64377 3.11556 6.9732 3.4452 6.9732 3.85174C6.9732 4.25827 6.64377 4.58791 6.23724 4.58791C5.83071 4.58791 5.50106 4.25827 5.50106 3.85174C5.50106 3.4452 5.83071 3.11556 6.23724 3.11556ZM6.89719 9.62893C6.89719 9.62893 6.31722 10.1152 5.58657 9.74846C5.42439 9.66737 5.28741 9.52663 5.19992 9.37175C4.9518 8.93296 5.04725 8.46214 5.04725 8.46214L5.12016 7.88481L5.3095 6.37931L4.79383 6.39058C4.55234 6.3961 4.35305 6.20455 4.34774 5.96328C4.34354 5.77592 4.45954 5.61331 4.62436 5.54769L5.94582 5.02737C6.26044 4.90342 6.61571 5.05808 6.73944 5.3727C6.78672 5.49223 6.79357 5.61684 6.76662 5.73306L6.74916 5.81149L6.23238 8.08079L6.10335 8.64817C6.08435 8.73367 6.08148 8.75312 6.07595 8.79797C6.06203 9.05338 6.42526 8.86182 6.42526 8.86182C6.64333 8.74141 6.91774 8.82117 7.03749 9.03924C7.15039 9.24405 7.08499 9.49902 6.89719 9.62893Z" fill="#A9ACBC"/>
</svg>
