<svg width="16" height="16" viewBox="0 0 16 16" fill="none" xmlns="http://www.w3.org/2000/svg">
<path fill-rule="evenodd" clip-rule="evenodd" d="M1.6445 1.76487C2.40011 0.954215 3.47653 0.5 4.74875 0.5H11.2505C12.5257 0.5 13.6026 0.953973 14.3579 1.76508C15.1089 2.57167 15.5 3.6857 15.5 4.937V11.063C15.5 12.3143 15.1089 13.4284 14.3577 14.2349C13.6024 15.0461 12.5253 15.5 11.2498 15.5H4.74875C3.47352 15.5 2.3968 15.046 1.64171 14.2349C0.890865 13.4282 0.5 12.3142 0.5 11.063V4.937C0.5 3.68508 0.892972 2.57114 1.6445 1.76487ZM2.46744 2.53194C1.94228 3.09536 1.625 3.91867 1.625 4.937V11.063C1.625 12.082 1.94101 12.9053 2.46516 13.4683C2.98508 14.0269 3.75148 14.375 4.74875 14.375H11.2498C12.2475 14.375 13.0143 14.0268 13.5345 13.4682C14.0589 12.9051 14.375 12.082 14.375 11.063V4.937C14.375 3.91805 14.0589 3.09483 13.5345 2.53173C13.0144 1.97315 12.2478 1.625 11.2505 1.625H4.74875C3.75522 1.625 2.98851 1.97291 2.46744 2.53194Z" fill="#A9ACBC"/>
<path d="M10.1996 6.46424C10.1996 7.66577 9.2529 8.53252 8.78798 8.95818L8.77886 8.96653L8.6454 9.08609C8.56901 9.22179 8.52969 9.37522 8.53141 9.53094C8.53141 9.67842 8.47282 9.81985 8.36854 9.92414C8.26426 10.0284 8.12282 10.087 7.97534 10.087C7.82787 10.087 7.68643 10.0284 7.58215 9.92414C7.47786 9.81985 7.41928 9.67842 7.41928 9.53094C7.41393 9.08229 7.57093 8.64683 7.86135 8.30481C7.90306 8.26033 7.96144 8.2075 8.03095 8.14356C8.37571 7.83494 9.08747 7.1899 9.08747 6.47536C9.09731 6.32677 9.07527 6.17779 9.02286 6.03841C8.97045 5.89902 8.88886 5.77244 8.78356 5.66714C8.67826 5.56184 8.55168 5.48026 8.4123 5.42784C8.27291 5.37543 8.12393 5.3534 7.97534 5.36323C7.82675 5.3534 7.67778 5.37543 7.53839 5.42784C7.399 5.48026 7.27242 5.56184 7.16712 5.66714C7.06183 5.77244 6.98024 5.89902 6.92783 6.03841C6.87541 6.17779 6.85338 6.32677 6.86321 6.47536C6.86321 6.62284 6.80463 6.76428 6.70035 6.86856C6.59606 6.97284 6.45463 7.03143 6.30715 7.03143C6.15967 7.03143 6.01823 6.97284 5.91395 6.86856C5.80967 6.76428 5.75108 6.62284 5.75108 6.47536C5.74141 6.18065 5.79233 5.8871 5.90069 5.61286C6.00905 5.33863 6.17254 5.08955 6.38104 4.88105C6.58954 4.67255 6.83861 4.50906 7.11285 4.40071C7.38708 4.29235 7.68064 4.24143 7.97534 4.2511C8.26909 4.24151 8.56169 4.29211 8.83515 4.39979C9.10861 4.50747 9.35715 4.66995 9.56549 4.87725C9.77383 5.08455 9.93756 5.33227 10.0466 5.60519C10.1557 5.87811 10.2077 6.17045 10.1996 6.46424Z" fill="#A9ACBC"/>
<path d="M8.28396 10.7293C8.25402 10.709 8.22239 10.6913 8.18943 10.6764C8.15512 10.6633 8.11978 10.6531 8.08378 10.6458C8.00225 10.6296 7.91812 10.6319 7.83758 10.6525C7.75703 10.673 7.68213 10.7114 7.61838 10.7648C7.55463 10.8181 7.50365 10.8851 7.46919 10.9607C7.43474 11.0364 7.41768 11.1188 7.41928 11.2019C7.41517 11.2379 7.41517 11.2743 7.41928 11.3103C7.42652 11.3464 7.43675 11.3817 7.44986 11.416C7.46473 11.449 7.4824 11.4806 7.50269 11.5105C7.52248 11.5411 7.5448 11.5699 7.56942 11.5967C7.62361 11.6476 7.68745 11.6871 7.75717 11.7129C7.8269 11.7387 7.90108 11.7502 7.97534 11.7469C8.01137 11.751 8.04775 11.751 8.08378 11.7469C8.12009 11.7409 8.15556 11.7306 8.18943 11.7163C8.22294 11.7025 8.25467 11.6848 8.28396 11.6634C8.3471 11.6263 8.39973 11.5737 8.43688 11.5105C8.4582 11.4812 8.47594 11.4495 8.4897 11.416C8.50407 11.3821 8.51434 11.3467 8.52029 11.3103C8.5244 11.2743 8.5244 11.2379 8.52029 11.2019C8.52071 11.1287 8.50668 11.0562 8.47901 10.9884C8.45134 10.9207 8.41057 10.8591 8.35903 10.8071C8.33621 10.7791 8.3111 10.7531 8.28396 10.7293Z" fill="#A9ACBC"/>
</svg>
