<svg width="24" height="24" viewBox="0 0 24 24" fill="none" xmlns="http://www.w3.org/2000/svg">
<path fill-rule="evenodd" clip-rule="evenodd" d="M11.9999 13.5C12.8283 13.5 13.4999 12.8284 13.4999 12C13.4999 11.1716 12.8283 10.5 11.9999 10.5C11.1714 10.5 10.4999 11.1716 10.4999 12C10.4999 12.8284 11.1714 13.5 11.9999 13.5ZM11.9999 15C13.6567 15 14.9999 13.6569 14.9999 12C14.9999 10.3431 13.6567 9 11.9999 9C10.343 9 8.99985 10.3431 8.99985 12C8.99985 13.6569 10.343 15 11.9999 15Z" fill="url(#paint0_linear_589_6015)"/>
<path fill-rule="evenodd" clip-rule="evenodd" d="M2.83957 7.86603C2.28729 8.82261 2.61504 10.0458 3.57162 10.5981L4.53298 11.1531C4.83186 11.3257 4.99985 11.6549 4.99985 12C4.99985 12.3451 4.83185 12.6744 4.53296 12.8469L3.57167 13.4019C2.61509 13.9542 2.28734 15.1774 2.83962 16.134L3.83962 17.866C4.39191 18.8226 5.61509 19.1504 6.57167 18.5981L7.53193 18.0437C7.83119 17.8709 8.19977 17.8899 8.49886 18.063C8.79753 18.2358 8.99985 18.5463 8.99985 18.8913V20C8.99985 21.1046 9.89528 22 10.9999 22H12.9999C14.1044 22 14.9999 21.1046 14.9999 20V18.8913C14.9999 18.5463 15.2022 18.2358 15.5008 18.063C15.7999 17.8899 16.1685 17.8709 16.4678 18.0437L17.428 18.5981C18.3846 19.1504 19.6078 18.8226 20.1601 17.866L21.1601 16.134C21.7124 15.1774 21.3846 13.9542 20.428 13.4019L19.4667 12.8469C19.1679 12.6744 18.9999 12.3451 18.9999 12C18.9999 11.6549 19.1678 11.3257 19.4667 11.1531L20.4281 10.5981C21.3847 10.0458 21.7124 8.82261 21.1601 7.86603L20.1601 6.13398C19.6078 5.17739 18.3847 4.84964 17.4281 5.40192L16.4678 5.95634C16.1685 6.12912 15.7999 6.11014 15.5009 5.93705C15.2022 5.76421 14.9999 5.45373 14.9999 5.10865V4C14.9999 2.89543 14.1044 2 12.9999 2H10.9999C9.89528 2 8.99985 2.89543 8.99985 4V5.10865C8.99985 5.45373 8.79752 5.76421 8.49885 5.93705C8.19975 6.11014 7.83117 6.12912 7.5319 5.95634L6.57162 5.40192C5.61504 4.84964 4.39186 5.17739 3.83957 6.13398L2.83957 7.86603ZM10.9999 3.5C10.7237 3.5 10.4999 3.72386 10.4999 4V5.10865C10.4999 6.05683 9.95042 6.8301 9.25015 7.23534C8.54439 7.64376 7.60066 7.72809 6.7819 7.25538L5.82162 6.70096C5.58248 6.56289 5.27668 6.64483 5.13861 6.88398L4.13861 8.61603C4.00054 8.85517 4.08248 9.16097 4.32162 9.29904L5.28298 9.85408C6.10177 10.3268 6.49985 11.1867 6.49985 12C6.49985 12.8133 6.10176 13.6732 5.28296 14.146L4.32167 14.701C4.08252 14.839 4.00059 15.1448 4.13866 15.384L5.13866 17.116C5.27673 17.3552 5.58252 17.4371 5.82167 17.299L6.78193 16.7446C7.60068 16.2719 8.5444 16.3563 9.25016 16.7647C9.95043 17.1699 10.4999 17.9432 10.4999 18.8913V20C10.4999 20.2761 10.7237 20.5 10.9999 20.5H12.9999C13.276 20.5 13.4999 20.2761 13.4999 20V18.8913C13.4999 17.9432 14.0493 17.1699 14.7495 16.7647C15.4553 16.3563 16.399 16.2719 17.2178 16.7446L18.178 17.299C18.4172 17.4371 18.723 17.3552 18.861 17.116L19.861 15.384C19.9991 15.1448 19.9172 14.839 19.678 14.701L18.7167 14.146C17.8979 13.6732 17.4999 12.8133 17.4999 12C17.4999 11.1867 17.8979 10.3268 18.7167 9.85408L19.6781 9.29904C19.9172 9.16097 19.9992 8.85517 19.8611 8.61603L18.8611 6.88397C18.723 6.64483 18.4172 6.56289 18.1781 6.70096L17.2178 7.25538C16.399 7.72809 15.4553 7.64376 14.7495 7.23534C14.0493 6.8301 13.4999 6.05682 13.4999 5.10865V4C13.4999 3.72386 13.276 3.5 12.9999 3.5H10.9999Z" fill="url(#paint1_linear_589_6015)"/>
<defs>
<linearGradient id="paint0_linear_589_6015" x1="9.49226" y1="0.461538" x2="18.1413" y2="26.1375" gradientUnits="userSpaceOnUse">
<stop stop-color="#FF3366"/>
<stop offset="1" stop-color="#FE5196"/>
</linearGradient>
<linearGradient id="paint1_linear_589_6015" x1="9.49226" y1="0.461538" x2="18.1413" y2="26.1375" gradientUnits="userSpaceOnUse">
<stop stop-color="#FF3366"/>
<stop offset="1" stop-color="#FE5196"/>
</linearGradient>
</defs>
</svg>
