<svg width="16" height="12" viewBox="0 0 16 12" fill="none" xmlns="http://www.w3.org/2000/svg">
<path d="M8.27296 0C10.9243 0 13.1379 1.986 13.6613 4.63076L14.4784 2.97862L14.5254 2.89976C14.6819 2.67922 14.9708 2.60529 15.2094 2.73813C15.4744 2.88573 15.5768 3.23271 15.4382 3.51313L13.4253 7.58356L10.2101 4.65792L10.1418 4.58363C9.97977 4.37219 9.97809 4.06222 10.151 3.84872L10.221 3.77658C10.4202 3.60541 10.7128 3.6044 10.9147 3.78815L12.6759 5.39061C12.465 3.01038 10.5743 1.14772 8.27296 1.14772C7.19305 1.14772 6.20355 1.55789 5.43561 2.23922C5.22883 2.42269 4.99559 2.66667 4.67726 2.33333C4.35894 2 4.53468 1.54641 4.67724 1.41601C5.6419 0.533622 6.89863 0 8.27296 0Z" fill="#A9ACBC"/>
<path d="M7.72704 12C5.07571 12 2.86211 10.014 2.33872 7.36924L1.52161 9.02138L1.4746 9.10024C1.31811 9.32078 1.02917 9.39471 0.790634 9.26187C0.525598 9.11427 0.423158 8.76729 0.561826 8.48687L2.57466 4.41644L5.78989 7.34208L5.85816 7.41637C6.02023 7.62781 6.02191 7.93778 5.84896 8.15128L5.779 8.22342C5.57982 8.39459 5.28724 8.3956 5.08529 8.21185L3.32407 6.60939C3.53498 8.98962 5.42574 10.8523 7.72704 10.8523C8.80695 10.8523 9.79645 10.4421 10.5644 9.76078C10.7712 9.57731 11.0044 9.33333 11.3227 9.66667C11.6411 10 11.4653 10.4536 11.3228 10.584C10.3581 11.4664 9.10137 12 7.72704 12Z" fill="#A9ACBC"/>
</svg>
