<svg width="16" height="16" viewBox="0 0 16 16" fill="none" xmlns="http://www.w3.org/2000/svg">
<path fill-rule="evenodd" clip-rule="evenodd" d="M1.43985 4.33074C2.06259 3.66272 2.94817 3.2907 3.98937 3.2907H9.21993C10.2635 3.2907 11.1493 3.66251 11.7717 4.33099C12.3901 4.99524 12.7093 5.90985 12.7093 6.93125V11.8594C12.7093 12.8809 12.3901 13.7955 11.7717 14.4597C11.1493 15.1282 10.2635 15.5 9.21993 15.5H3.98937C2.94585 15.5 2.05998 15.1282 1.43762 14.4597C0.8192 13.7955 0.5 12.8809 0.5 11.8594V6.93125C0.5 5.90921 0.820911 4.99469 1.43985 4.33074ZM2.20533 5.04434C1.79703 5.48233 1.54651 6.12646 1.54651 6.93125V11.8594C1.54651 12.6649 1.79608 13.3089 2.20357 13.7466C2.60713 14.1801 3.20432 14.4535 3.98937 14.4535H9.21993C10.005 14.4535 10.6022 14.1801 11.0057 13.7466C11.4132 13.3089 11.6628 12.6649 11.6628 11.8594V6.93125C11.6628 6.12582 11.4132 5.48178 11.0057 5.04409C10.6022 4.61063 10.005 4.33721 9.21993 4.33721H3.98937C3.20731 4.33721 2.60984 4.61042 2.20533 5.04434Z" fill="#A9ACBC"/>
<path fill-rule="evenodd" clip-rule="evenodd" d="M4.26033 1.34726C4.89815 0.764447 5.78107 0.5 6.78007 0.5H12.0106C13.0542 0.5 13.94 0.871812 14.5624 1.54029C15.1808 2.20455 15.5 3.11915 15.5 4.14055V9.06875C15.5 10.0684 15.2369 10.9806 14.6655 11.6517C14.0843 12.3343 13.233 12.7093 12.186 12.7093C11.8971 12.7093 11.6628 12.475 11.6628 12.186C11.6628 11.8971 11.8971 11.6628 12.186 11.6628C12.9677 11.6628 13.5117 11.3925 13.8687 10.9732C14.2355 10.5424 14.4535 9.89596 14.4535 9.06875V4.14055C14.4535 3.33513 14.2039 2.69108 13.7964 2.25339C13.3929 1.81993 12.7957 1.54651 12.0106 1.54651H6.78007C5.95581 1.54651 5.35567 1.764 4.96625 2.11982C4.58407 2.46904 4.33721 3.01324 4.33721 3.81395C4.33721 4.10294 4.10294 4.33721 3.81395 4.33721C3.52497 4.33721 3.2907 4.10294 3.2907 3.81395C3.2907 2.78784 3.61527 1.93668 4.26033 1.34726Z" fill="#A9ACBC"/>
</svg>
