<svg width="20" height="20" viewBox="0 0 20 20" fill="none" xmlns="http://www.w3.org/2000/svg">
<path fill-rule="evenodd" clip-rule="evenodd" d="M10.0002 1.50012C5.30646 1.50012 1.50024 5.30634 1.50024 10.0001C1.50024 14.694 5.30551 18.5001 10.0002 18.5001C14.694 18.5001 18.5002 14.6939 18.5002 10.0001C18.5002 5.30539 14.6941 1.50012 10.0002 1.50012ZM0.000244141 10.0001C0.000244141 4.47791 4.47803 0.00012207 10.0002 0.00012207C15.5224 0.00012207 20.0002 4.47686 20.0002 10.0001C20.0002 15.5223 15.5225 20.0001 10.0002 20.0001C4.47698 20.0001 0.000244141 15.5223 0.000244141 10.0001Z" fill="#24A148"/>
<path fill-rule="evenodd" clip-rule="evenodd" d="M14.0901 7.09687C14.383 7.38976 14.383 7.86463 14.0901 8.15753L9.34415 12.9035C9.0513 13.1964 8.57651 13.1964 8.2836 12.9036L5.9096 10.5306C5.61665 10.2378 5.61655 9.76293 5.90938 9.46998C6.20221 9.17702 6.67708 9.17692 6.97004 9.46976L8.81371 11.3126L13.0295 7.09687C13.3224 6.80397 13.7973 6.80397 14.0901 7.09687Z" fill="#24A148"/>
</svg>
