<?xml version="1.0" encoding="UTF-8" standalone="no"?>
<!DOCTYPE svg PUBLIC "-//W3C//DTD SVG 1.1//EN"
 "http://www.w3.org/Graphics/SVG/1.1/DTD/svg11.dtd">
<!-- Generated by graphviz version 2.47.0 (20210316.0004)
 -->
<!-- Title: dependencies Pages: 1 -->
<svg width="504pt" height="211pt"
 viewBox="0.00 0.00 504.00 211.00" xmlns="http://www.w3.org/2000/svg" xmlns:xlink="http://www.w3.org/1999/xlink">
<g id="graph0" class="graph" transform="scale(1 1) rotate(0) translate(4 207)">
<title>dependencies</title>
<polygon fill="white" stroke="transparent" points="-4,4 -4,-207 500,-207 500,4 -4,4"/>
<text text-anchor="start" x="227.01" y="-42.4" font-family="Times-12" font-weight="bold" font-size="14.00">Legend</text>
<polygon fill="#ffffb3" stroke="transparent" points="14,-10 14,-30 34,-30 34,-10 14,-10"/>
<text text-anchor="start" x="37.63" y="-15.4" font-family="Times-12" font-size="14.00"> &#160;Declarations</text>
<polygon fill="#8dd3c7" stroke="transparent" points="127,-10 127,-30 147,-30 147,-10 127,-10"/>
<text text-anchor="start" x="150.73" y="-15.4" font-family="Times-12" font-size="14.00"> &#160;Module</text>
<polygon fill="#80b1d3" stroke="transparent" points="213,-10 213,-30 233,-30 233,-10 213,-10"/>
<text text-anchor="start" x="236.78" y="-15.4" font-family="Times-12" font-size="14.00"> &#160;Bootstrap</text>
<polygon fill="#fdb462" stroke="transparent" points="310,-10 310,-30 330,-30 330,-10 310,-10"/>
<text text-anchor="start" x="333.67" y="-15.4" font-family="Times-12" font-size="14.00"> &#160;Providers</text>
<polygon fill="#fb8072" stroke="transparent" points="406,-10 406,-30 426,-30 426,-10 406,-10"/>
<text text-anchor="start" x="429.73" y="-15.4" font-family="Times-12" font-size="14.00"> &#160;Exports</text>
<g id="clust1" class="cluster">
<title>cluster_IntegrationModule</title>
<polygon fill="none" stroke="black" stroke-dasharray="1,5" points="8,-70 8,-195 488,-195 488,-70 8,-70"/>
</g>
<g id="clust2" class="cluster">
<title>cluster_IntegrationModule_declarations</title>
<polygon fill="none" stroke="black" points="322,-78 322,-130 480,-130 480,-78 322,-78"/>
</g>
<g id="clust4" class="cluster">
<title>cluster_IntegrationModule_imports</title>
<polygon fill="none" stroke="black" points="16,-78 16,-130 314,-130 314,-78 16,-78"/>
</g>
<!-- IntegrationComponent -->
<g id="node1" class="node">
<title>IntegrationComponent</title>
<polygon fill="#ffffb3" stroke="black" points="472.25,-122 329.75,-122 329.75,-86 472.25,-86 472.25,-122"/>
<text text-anchor="middle" x="401" y="-99.8" font-family="Times,serif" font-size="14.00">IntegrationComponent</text>
</g>
<!-- IntegrationModule -->
<g id="node2" class="node">
<title>IntegrationModule</title>
<polygon fill="#8dd3c7" stroke="black" points="283.47,-187 280.47,-191 259.47,-191 256.47,-187 162.53,-187 162.53,-151 283.47,-151 283.47,-187"/>
<text text-anchor="middle" x="223" y="-164.8" font-family="Times,serif" font-size="14.00">IntegrationModule</text>
</g>
<!-- IntegrationComponent&#45;&gt;IntegrationModule -->
<g id="edge1" class="edge">
<title>IntegrationComponent&#45;&gt;IntegrationModule</title>
<path fill="none" stroke="black" d="M401,-122.11C401,-141.34 401,-169 401,-169 401,-169 293.76,-169 293.76,-169"/>
<polygon fill="black" stroke="black" points="293.76,-165.5 283.76,-169 293.76,-172.5 293.76,-165.5"/>
</g>
<!-- IntegrationRoutingModule -->
<g id="node3" class="node">
<title>IntegrationRoutingModule</title>
<polygon fill="#8dd3c7" stroke="black" points="306.09,-122 303.09,-126 282.09,-126 279.09,-122 139.91,-122 139.91,-86 306.09,-86 306.09,-122"/>
<text text-anchor="middle" x="223" y="-99.8" font-family="Times,serif" font-size="14.00">IntegrationRoutingModule</text>
</g>
<!-- IntegrationRoutingModule&#45;&gt;IntegrationModule -->
<g id="edge2" class="edge">
<title>IntegrationRoutingModule&#45;&gt;IntegrationModule</title>
<path fill="none" stroke="black" d="M223,-122.11C223,-122.11 223,-140.99 223,-140.99"/>
<polygon fill="black" stroke="black" points="219.5,-140.99 223,-150.99 226.5,-140.99 219.5,-140.99"/>
</g>
<!-- SharedModule -->
<g id="node4" class="node">
<title>SharedModule</title>
<polygon fill="#8dd3c7" stroke="black" points="122.42,-122 119.42,-126 98.42,-126 95.42,-122 23.58,-122 23.58,-86 122.42,-86 122.42,-122"/>
<text text-anchor="middle" x="73" y="-99.8" font-family="Times,serif" font-size="14.00">SharedModule</text>
</g>
<!-- SharedModule&#45;&gt;IntegrationModule -->
<g id="edge3" class="edge">
<title>SharedModule&#45;&gt;IntegrationModule</title>
<path fill="none" stroke="black" d="M73,-122.11C73,-141.34 73,-169 73,-169 73,-169 152.42,-169 152.42,-169"/>
<polygon fill="black" stroke="black" points="152.42,-172.5 162.42,-169 152.42,-165.5 152.42,-172.5"/>
</g>
</g>
</svg>
