<?xml version="1.0" encoding="UTF-8" standalone="no"?>
<!DOCTYPE svg PUBLIC "-//W3C//DTD SVG 1.1//EN"
 "http://www.w3.org/Graphics/SVG/1.1/DTD/svg11.dtd">
<!-- Generated by graphviz version 2.47.0 (20210316.0004)
 -->
<!-- Title: dependencies Pages: 1 -->
<svg width="504pt" height="211pt"
 viewBox="0.00 0.00 504.00 211.00" xmlns="http://www.w3.org/2000/svg" xmlns:xlink="http://www.w3.org/1999/xlink">
<g id="graph0" class="graph" transform="scale(1 1) rotate(0) translate(4 207)">
<title>dependencies</title>
<polygon fill="white" stroke="transparent" points="-4,4 -4,-207 500,-207 500,4 -4,4"/>
<text text-anchor="start" x="227.01" y="-42.4" font-family="Times-12" font-weight="bold" font-size="14.00">Legend</text>
<polygon fill="#ffffb3" stroke="transparent" points="14,-10 14,-30 34,-30 34,-10 14,-10"/>
<text text-anchor="start" x="37.63" y="-15.4" font-family="Times-12" font-size="14.00"> &#160;Declarations</text>
<polygon fill="#8dd3c7" stroke="transparent" points="127,-10 127,-30 147,-30 147,-10 127,-10"/>
<text text-anchor="start" x="150.73" y="-15.4" font-family="Times-12" font-size="14.00"> &#160;Module</text>
<polygon fill="#80b1d3" stroke="transparent" points="213,-10 213,-30 233,-30 233,-10 213,-10"/>
<text text-anchor="start" x="236.78" y="-15.4" font-family="Times-12" font-size="14.00"> &#160;Bootstrap</text>
<polygon fill="#fdb462" stroke="transparent" points="310,-10 310,-30 330,-30 330,-10 310,-10"/>
<text text-anchor="start" x="333.67" y="-15.4" font-family="Times-12" font-size="14.00"> &#160;Providers</text>
<polygon fill="#fb8072" stroke="transparent" points="406,-10 406,-30 426,-30 426,-10 406,-10"/>
<text text-anchor="start" x="429.73" y="-15.4" font-family="Times-12" font-size="14.00"> &#160;Exports</text>
<g id="clust1" class="cluster">
<title>cluster_IntegrationModule</title>
<polygon fill="none" stroke="black" stroke-dasharray="1,5" points="8,-70 8,-195 488,-195 488,-70 8,-70"/>
</g>
<g id="clust4" class="cluster">
<title>cluster_IntegrationModule_imports</title>
<polygon fill="none" stroke="black" points="182,-78 182,-130 480,-130 480,-78 182,-78"/>
</g>
<g id="clust2" class="cluster">
<title>cluster_IntegrationModule_declarations</title>
<polygon fill="none" stroke="black" points="16,-78 16,-130 174,-130 174,-78 16,-78"/>
</g>
<!-- IntegrationComponent -->
<g id="node1" class="node">
<title>IntegrationComponent</title>
<polygon fill="#ffffb3" stroke="black" points="166.25,-122 23.75,-122 23.75,-86 166.25,-86 166.25,-122"/>
<text text-anchor="middle" x="95" y="-99.8" font-family="Times,serif" font-size="14.00">IntegrationComponent</text>
</g>
<!-- IntegrationModule -->
<g id="node2" class="node">
<title>IntegrationModule</title>
<polygon fill="#8dd3c7" stroke="black" points="299.47,-187 296.47,-191 275.47,-191 272.47,-187 178.53,-187 178.53,-151 299.47,-151 299.47,-187"/>
<text text-anchor="middle" x="239" y="-164.8" font-family="Times,serif" font-size="14.00">IntegrationModule</text>
</g>
<!-- IntegrationComponent&#45;&gt;IntegrationModule -->
<g id="edge1" class="edge">
<title>IntegrationComponent&#45;&gt;IntegrationModule</title>
<path fill="none" stroke="black" d="M166.54,-104C176.9,-104 184.15,-104 184.15,-104 184.15,-104 184.15,-140.89 184.15,-140.89"/>
<polygon fill="black" stroke="black" points="180.65,-140.89 184.15,-150.89 187.65,-140.89 180.65,-140.89"/>
</g>
<!-- IntegrationRoutingModule -->
<g id="node3" class="node">
<title>IntegrationRoutingModule</title>
<polygon fill="#8dd3c7" stroke="black" points="472.09,-122 469.09,-126 448.09,-126 445.09,-122 305.91,-122 305.91,-86 472.09,-86 472.09,-122"/>
<text text-anchor="middle" x="389" y="-99.8" font-family="Times,serif" font-size="14.00">IntegrationRoutingModule</text>
</g>
<!-- IntegrationRoutingModule&#45;&gt;IntegrationModule -->
<g id="edge2" class="edge">
<title>IntegrationRoutingModule&#45;&gt;IntegrationModule</title>
<path fill="none" stroke="black" d="M305.9,-104C298.57,-104 293.85,-104 293.85,-104 293.85,-104 293.85,-140.89 293.85,-140.89"/>
<polygon fill="black" stroke="black" points="290.35,-140.89 293.85,-150.89 297.35,-140.89 290.35,-140.89"/>
</g>
<!-- SharedModule -->
<g id="node4" class="node">
<title>SharedModule</title>
<polygon fill="#8dd3c7" stroke="black" points="288.42,-122 285.42,-126 264.42,-126 261.42,-122 189.58,-122 189.58,-86 288.42,-86 288.42,-122"/>
<text text-anchor="middle" x="239" y="-99.8" font-family="Times,serif" font-size="14.00">SharedModule</text>
</g>
<!-- SharedModule&#45;&gt;IntegrationModule -->
<g id="edge3" class="edge">
<title>SharedModule&#45;&gt;IntegrationModule</title>
<path fill="none" stroke="black" d="M239,-122.11C239,-122.11 239,-140.99 239,-140.99"/>
<polygon fill="black" stroke="black" points="235.5,-140.99 239,-150.99 242.5,-140.99 235.5,-140.99"/>
</g>
</g>
</svg>
