<?xml version="1.0" encoding="UTF-8" standalone="no"?>
<!DOCTYPE svg PUBLIC "-//W3C//DTD SVG 1.1//EN"
 "http://www.w3.org/Graphics/SVG/1.1/DTD/svg11.dtd">
<!-- Generated by graphviz version 5.0.0 (20220707.1540)
 -->
<!-- Title: dependencies Pages: 1 -->
<svg width="472pt" height="247pt"
 viewBox="0.00 0.00 472.00 246.80" xmlns="http://www.w3.org/2000/svg" xmlns:xlink="http://www.w3.org/1999/xlink">
<g id="graph0" class="graph" transform="scale(1 1) rotate(0) translate(4 242.8)">
<title>dependencies</title>
<polygon fill="white" stroke="transparent" points="-4,4 -4,-242.8 468,-242.8 468,4 -4,4"/>
<text text-anchor="middle" x="232" y="-8.2" font-family="sans-serif" font-size="14.00">dependencies</text>
<g id="clust1" class="cluster">
<title>cluster_AppModule</title>
<polygon fill="none" stroke="black" stroke-dasharray="1,5" points="8,-32.8 8,-230.8 456,-230.8 456,-32.8 8,-32.8"/>
</g>
<g id="clust2" class="cluster">
<title>cluster_AppModule_declarations</title>
<polygon fill="none" stroke="black" points="326,-40.8 326,-92.8 448,-92.8 448,-40.8 326,-40.8"/>
</g>
<g id="clust4" class="cluster">
<title>cluster_AppModule_imports</title>
<polygon fill="none" stroke="black" points="174,-40.8 174,-92.8 318,-92.8 318,-40.8 174,-40.8"/>
</g>
<g id="clust6" class="cluster">
<title>cluster_AppModule_bootstrap</title>
<polygon fill="none" stroke="black" points="184,-170.8 184,-222.8 308,-222.8 308,-170.8 184,-170.8"/>
</g>
<g id="clust7" class="cluster">
<title>cluster_AppModule_providers</title>
<polygon fill="none" stroke="black" points="16,-40.8 16,-92.8 166,-92.8 166,-40.8 16,-40.8"/>
</g>
<!-- AppComponent -->
<g id="node1" class="node">
<title>AppComponent</title>
<polygon fill="#ffffb3" stroke="black" points="439.94,-84.8 334.06,-84.8 334.06,-48.8 439.94,-48.8 439.94,-84.8"/>
<text text-anchor="middle" x="387" y="-62.6" font-family="Times,serif" font-size="14.00">AppComponent</text>
</g>
<!-- AppModule -->
<g id="node2" class="node">
<title>AppModule</title>
<polygon fill="#8dd3c7" stroke="black" points="287.66,-149.8 284.66,-153.8 263.66,-153.8 260.66,-149.8 204.34,-149.8 204.34,-113.8 287.66,-113.8 287.66,-149.8"/>
<text text-anchor="middle" x="246" y="-127.6" font-family="Times,serif" font-size="14.00">AppModule</text>
</g>
<!-- AppComponent&#45;&gt;AppModule -->
<g id="edge1" class="edge">
<title>AppComponent&#45;&gt;AppModule</title>
<path fill="none" stroke="black" d="M387,-84.91C387,-104.14 387,-131.8 387,-131.8 387,-131.8 297.92,-131.8 297.92,-131.8"/>
<polygon fill="black" stroke="black" points="297.92,-128.3 287.92,-131.8 297.92,-135.3 297.92,-128.3"/>
</g>
<!-- AppComponent  -->
<g id="node4" class="node">
<title>AppComponent </title>
<polygon fill="#80b1d3" stroke="black" points="300.44,-214.8 191.56,-214.8 191.56,-178.8 300.44,-178.8 300.44,-214.8"/>
<text text-anchor="middle" x="246" y="-192.6" font-family="Times,serif" font-size="14.00">AppComponent </text>
</g>
<!-- AppModule&#45;&gt;AppComponent  -->
<g id="edge3" class="edge">
<title>AppModule&#45;&gt;AppComponent </title>
<path fill="none" stroke="black" stroke-dasharray="1,5" d="M246,-149.91C246,-149.91 246,-168.79 246,-168.79"/>
<polygon fill="black" stroke="black" points="242.5,-168.79 246,-178.79 249.5,-168.79 242.5,-168.79"/>
</g>
<!-- AppRoutingModule -->
<g id="node3" class="node">
<title>AppRoutingModule</title>
<polygon fill="#8dd3c7" stroke="black" points="310.28,-84.8 307.28,-88.8 286.28,-88.8 283.28,-84.8 181.72,-84.8 181.72,-48.8 310.28,-48.8 310.28,-84.8"/>
<text text-anchor="middle" x="246" y="-62.6" font-family="Times,serif" font-size="14.00">AppRoutingModule</text>
</g>
<!-- AppRoutingModule&#45;&gt;AppModule -->
<g id="edge2" class="edge">
<title>AppRoutingModule&#45;&gt;AppModule</title>
<path fill="none" stroke="black" d="M246,-84.91C246,-84.91 246,-103.79 246,-103.79"/>
<polygon fill="black" stroke="black" points="242.5,-103.79 246,-113.79 249.5,-103.79 242.5,-103.79"/>
</g>
<!-- JwtInterceptor -->
<g id="node5" class="node">
<title>JwtInterceptor</title>
<ellipse fill="#fdb462" stroke="black" cx="91" cy="-66.8" rx="66.62" ry="18"/>
<text text-anchor="middle" x="91" y="-62.6" font-family="Times,serif" font-size="14.00">JwtInterceptor</text>
</g>
<!-- JwtInterceptor&#45;&gt;AppModule -->
<g id="edge4" class="edge">
<title>JwtInterceptor&#45;&gt;AppModule</title>
<path fill="none" stroke="black" d="M91,-84.91C91,-104.14 91,-131.8 91,-131.8 91,-131.8 194.05,-131.8 194.05,-131.8"/>
<polygon fill="black" stroke="black" points="194.05,-135.3 204.05,-131.8 194.05,-128.3 194.05,-135.3"/>
</g>
</g>
</svg>
