<?xml version="1.0" encoding="UTF-8" standalone="no"?>
<!DOCTYPE svg PUBLIC "-//W3C//DTD SVG 1.1//EN"
 "http://www.w3.org/Graphics/SVG/1.1/DTD/svg11.dtd">
<!-- Generated by graphviz version 5.0.0 (20220707.1540)
 -->
<!-- Title: dependencies Pages: 1 -->
<svg width="440pt" height="174pt"
 viewBox="0.00 0.00 440.00 173.80" xmlns="http://www.w3.org/2000/svg" xmlns:xlink="http://www.w3.org/1999/xlink">
<g id="graph0" class="graph" transform="scale(1 1) rotate(0) translate(4 169.8)">
<title>dependencies</title>
<polygon fill="white" stroke="transparent" points="-4,4 -4,-169.8 436,-169.8 436,4 -4,4"/>
<text text-anchor="middle" x="216" y="-8.2" font-family="sans-serif" font-size="14.00">dependencies</text>
<g id="clust1" class="cluster">
<title>cluster_MainModule</title>
<polygon fill="none" stroke="black" stroke-dasharray="1,5" points="8,-32.8 8,-157.8 424,-157.8 424,-32.8 8,-32.8"/>
</g>
<g id="clust2" class="cluster">
<title>cluster_MainModule_declarations</title>
<polygon fill="none" stroke="black" points="290,-40.8 290,-92.8 416,-92.8 416,-40.8 290,-40.8"/>
</g>
<g id="clust4" class="cluster">
<title>cluster_MainModule_imports</title>
<polygon fill="none" stroke="black" points="16,-40.8 16,-92.8 282,-92.8 282,-40.8 16,-40.8"/>
</g>
<!-- MainComponent -->
<g id="node1" class="node">
<title>MainComponent</title>
<polygon fill="#ffffb3" stroke="black" points="408.38,-84.8 297.62,-84.8 297.62,-48.8 408.38,-48.8 408.38,-84.8"/>
<text text-anchor="middle" x="353" y="-62.6" font-family="Times,serif" font-size="14.00">MainComponent</text>
</g>
<!-- MainModule -->
<g id="node2" class="node">
<title>MainModule</title>
<polygon fill="#8dd3c7" stroke="black" points="251.6,-149.8 248.6,-153.8 227.6,-153.8 224.6,-149.8 162.4,-149.8 162.4,-113.8 251.6,-113.8 251.6,-149.8"/>
<text text-anchor="middle" x="207" y="-127.6" font-family="Times,serif" font-size="14.00">MainModule</text>
</g>
<!-- MainComponent&#45;&gt;MainModule -->
<g id="edge1" class="edge">
<title>MainComponent&#45;&gt;MainModule</title>
<path fill="none" stroke="black" d="M353,-84.91C353,-104.14 353,-131.8 353,-131.8 353,-131.8 261.6,-131.8 261.6,-131.8"/>
<polygon fill="black" stroke="black" points="261.6,-128.3 251.6,-131.8 261.6,-135.3 261.6,-128.3"/>
</g>
<!-- MainRoutingModule -->
<g id="node3" class="node">
<title>MainRoutingModule</title>
<polygon fill="#8dd3c7" stroke="black" points="274.22,-84.8 271.22,-88.8 250.22,-88.8 247.22,-84.8 139.78,-84.8 139.78,-48.8 274.22,-48.8 274.22,-84.8"/>
<text text-anchor="middle" x="207" y="-62.6" font-family="Times,serif" font-size="14.00">MainRoutingModule</text>
</g>
<!-- MainRoutingModule&#45;&gt;MainModule -->
<g id="edge2" class="edge">
<title>MainRoutingModule&#45;&gt;MainModule</title>
<path fill="none" stroke="black" d="M207,-84.91C207,-84.91 207,-103.79 207,-103.79"/>
<polygon fill="black" stroke="black" points="203.5,-103.79 207,-113.79 210.5,-103.79 203.5,-103.79"/>
</g>
<!-- SharedModule -->
<g id="node4" class="node">
<title>SharedModule</title>
<polygon fill="#8dd3c7" stroke="black" points="122.43,-84.8 119.43,-88.8 98.43,-88.8 95.43,-84.8 23.57,-84.8 23.57,-48.8 122.43,-48.8 122.43,-84.8"/>
<text text-anchor="middle" x="73" y="-62.6" font-family="Times,serif" font-size="14.00">SharedModule</text>
</g>
<!-- SharedModule&#45;&gt;MainModule -->
<g id="edge3" class="edge">
<title>SharedModule&#45;&gt;MainModule</title>
<path fill="none" stroke="black" d="M73,-84.91C73,-104.14 73,-131.8 73,-131.8 73,-131.8 152.38,-131.8 152.38,-131.8"/>
<polygon fill="black" stroke="black" points="152.38,-135.3 162.38,-131.8 152.38,-128.3 152.38,-135.3"/>
</g>
</g>
</svg>
