<?xml version="1.0" encoding="UTF-8" standalone="no"?>
<!DOCTYPE svg PUBLIC "-//W3C//DTD SVG 1.1//EN"
 "http://www.w3.org/Graphics/SVG/1.1/DTD/svg11.dtd">
<!-- Generated by graphviz version 5.0.0 (20220707.1540)
 -->
<!-- Title: dependencies Pages: 1 -->
<svg width="940pt" height="174pt"
 viewBox="0.00 0.00 940.00 173.80" xmlns="http://www.w3.org/2000/svg" xmlns:xlink="http://www.w3.org/1999/xlink">
<g id="graph0" class="graph" transform="scale(1 1) rotate(0) translate(4 169.8)">
<title>dependencies</title>
<polygon fill="white" stroke="transparent" points="-4,4 -4,-169.8 936,-169.8 936,4 -4,4"/>
<text text-anchor="middle" x="466" y="-8.2" font-family="sans-serif" font-size="14.00">dependencies</text>
<g id="clust1" class="cluster">
<title>cluster_AuthModule</title>
<polygon fill="none" stroke="black" stroke-dasharray="1,5" points="8,-32.8 8,-157.8 924,-157.8 924,-32.8 8,-32.8"/>
</g>
<g id="clust8" class="cluster">
<title>cluster_AuthModule_imports</title>
<polygon fill="none" stroke="black" points="768,-40.8 768,-92.8 916,-92.8 916,-40.8 768,-40.8"/>
</g>
<g id="clust2" class="cluster">
<title>cluster_AuthModule_declarations</title>
<polygon fill="none" stroke="black" points="16,-40.8 16,-92.8 760,-92.8 760,-40.8 16,-40.8"/>
</g>
<!-- AuthComponent -->
<g id="node1" class="node">
<title>AuthComponent</title>
<polygon fill="#ffffb3" stroke="black" points="751.83,-84.8 642.17,-84.8 642.17,-48.8 751.83,-48.8 751.83,-84.8"/>
<text text-anchor="middle" x="697" y="-62.6" font-family="Times,serif" font-size="14.00">AuthComponent</text>
</g>
<!-- AuthModule -->
<g id="node6" class="node">
<title>AuthModule</title>
<polygon fill="#8dd3c7" stroke="black" points="512.55,-149.8 509.55,-153.8 488.55,-153.8 485.55,-149.8 425.45,-149.8 425.45,-113.8 512.55,-113.8 512.55,-149.8"/>
<text text-anchor="middle" x="469" y="-127.6" font-family="Times,serif" font-size="14.00">AuthModule</text>
</g>
<!-- AuthComponent&#45;&gt;AuthModule -->
<g id="edge1" class="edge">
<title>AuthComponent&#45;&gt;AuthModule</title>
<path fill="none" stroke="black" d="M697,-84.82C697,-102.17 697,-125.8 697,-125.8 697,-125.8 522.69,-125.8 522.69,-125.8"/>
<polygon fill="black" stroke="black" points="522.69,-122.3 512.69,-125.8 522.69,-129.3 522.69,-122.3"/>
</g>
<!-- FyleCallbackComponent -->
<g id="node2" class="node">
<title>FyleCallbackComponent</title>
<polygon fill="#ffffb3" stroke="black" points="623.98,-84.8 468.02,-84.8 468.02,-48.8 623.98,-48.8 623.98,-84.8"/>
<text text-anchor="middle" x="546" y="-62.6" font-family="Times,serif" font-size="14.00">FyleCallbackComponent</text>
</g>
<!-- FyleCallbackComponent&#45;&gt;AuthModule -->
<g id="edge2" class="edge">
<title>FyleCallbackComponent&#45;&gt;AuthModule</title>
<path fill="none" stroke="black" d="M490.39,-84.91C490.39,-84.91 490.39,-103.79 490.39,-103.79"/>
<polygon fill="black" stroke="black" points="486.89,-103.79 490.39,-113.79 493.89,-103.79 486.89,-103.79"/>
</g>
<!-- LoginComponent -->
<g id="node3" class="node">
<title>LoginComponent</title>
<polygon fill="#ffffb3" stroke="black" points="450.27,-84.8 335.73,-84.8 335.73,-48.8 450.27,-48.8 450.27,-84.8"/>
<text text-anchor="middle" x="393" y="-62.6" font-family="Times,serif" font-size="14.00">LoginComponent</text>
</g>
<!-- LoginComponent&#45;&gt;AuthModule -->
<g id="edge3" class="edge">
<title>LoginComponent&#45;&gt;AuthModule</title>
<path fill="none" stroke="black" d="M437.81,-84.91C437.81,-84.91 437.81,-103.79 437.81,-103.79"/>
<polygon fill="black" stroke="black" points="434.31,-103.79 437.81,-113.79 441.31,-103.79 434.31,-103.79"/>
</g>
<!-- LogoutComponent -->
<g id="node4" class="node">
<title>LogoutComponent</title>
<polygon fill="#ffffb3" stroke="black" points="317.77,-84.8 196.23,-84.8 196.23,-48.8 317.77,-48.8 317.77,-84.8"/>
<text text-anchor="middle" x="257" y="-62.6" font-family="Times,serif" font-size="14.00">LogoutComponent</text>
</g>
<!-- LogoutComponent&#45;&gt;AuthModule -->
<g id="edge4" class="edge">
<title>LogoutComponent&#45;&gt;AuthModule</title>
<path fill="none" stroke="black" d="M257,-84.82C257,-102.17 257,-125.8 257,-125.8 257,-125.8 415.33,-125.8 415.33,-125.8"/>
<polygon fill="black" stroke="black" points="415.33,-129.3 425.33,-125.8 415.33,-122.3 415.33,-129.3"/>
</g>
<!-- SharedLoginComponent -->
<g id="node5" class="node">
<title>SharedLoginComponent</title>
<polygon fill="#ffffb3" stroke="black" points="177.65,-84.8 24.35,-84.8 24.35,-48.8 177.65,-48.8 177.65,-84.8"/>
<text text-anchor="middle" x="101" y="-62.6" font-family="Times,serif" font-size="14.00">SharedLoginComponent</text>
</g>
<!-- SharedLoginComponent&#45;&gt;AuthModule -->
<g id="edge5" class="edge">
<title>SharedLoginComponent&#45;&gt;AuthModule</title>
<path fill="none" stroke="black" d="M101,-85.08C101,-106.12 101,-137.8 101,-137.8 101,-137.8 415.34,-137.8 415.34,-137.8"/>
<polygon fill="black" stroke="black" points="415.34,-141.3 425.34,-137.8 415.34,-134.3 415.34,-141.3"/>
</g>
<!-- AuthRoutingModule -->
<g id="node7" class="node">
<title>AuthRoutingModule</title>
<polygon fill="#8dd3c7" stroke="black" points="908.17,-84.8 905.17,-88.8 884.17,-88.8 881.17,-84.8 775.83,-84.8 775.83,-48.8 908.17,-48.8 908.17,-84.8"/>
<text text-anchor="middle" x="842" y="-62.6" font-family="Times,serif" font-size="14.00">AuthRoutingModule</text>
</g>
<!-- AuthRoutingModule&#45;&gt;AuthModule -->
<g id="edge6" class="edge">
<title>AuthRoutingModule&#45;&gt;AuthModule</title>
<path fill="none" stroke="black" d="M842,-85.08C842,-106.12 842,-137.8 842,-137.8 842,-137.8 522.88,-137.8 522.88,-137.8"/>
<polygon fill="black" stroke="black" points="522.88,-134.3 512.88,-137.8 522.88,-141.3 522.88,-134.3"/>
</g>
</g>
</svg>
