<?xml version="1.0" encoding="UTF-8" standalone="no"?>
<!DOCTYPE svg PUBLIC "-//W3C//DTD SVG 1.1//EN"
 "http://www.w3.org/Graphics/SVG/1.1/DTD/svg11.dtd">
<!-- Generated by graphviz version 5.0.0 (20220707.1540)
 -->
<!-- Title: dependencies Pages: 1 -->
<svg width="940pt" height="174pt"
 viewBox="0.00 0.00 940.00 173.80" xmlns="http://www.w3.org/2000/svg" xmlns:xlink="http://www.w3.org/1999/xlink">
<g id="graph0" class="graph" transform="scale(1 1) rotate(0) translate(4 169.8)">
<title>dependencies</title>
<polygon fill="white" stroke="transparent" points="-4,4 -4,-169.8 936,-169.8 936,4 -4,4"/>
<text text-anchor="middle" x="466" y="-8.2" font-family="sans-serif" font-size="14.00">dependencies</text>
<g id="clust1" class="cluster">
<title>cluster_AuthModule</title>
<polygon fill="none" stroke="black" stroke-dasharray="1,5" points="8,-32.8 8,-157.8 924,-157.8 924,-32.8 8,-32.8"/>
</g>
<g id="clust2" class="cluster">
<title>cluster_AuthModule_declarations</title>
<polygon fill="none" stroke="black" points="172,-40.8 172,-92.8 916,-92.8 916,-40.8 172,-40.8"/>
</g>
<g id="clust8" class="cluster">
<title>cluster_AuthModule_imports</title>
<polygon fill="none" stroke="black" points="16,-40.8 16,-92.8 164,-92.8 164,-40.8 16,-40.8"/>
</g>
<!-- AuthComponent -->
<g id="node1" class="node">
<title>AuthComponent</title>
<polygon fill="#ffffb3" stroke="black" points="907.83,-84.8 798.17,-84.8 798.17,-48.8 907.83,-48.8 907.83,-84.8"/>
<text text-anchor="middle" x="853" y="-62.6" font-family="Times,serif" font-size="14.00">AuthComponent</text>
</g>
<!-- AuthModule -->
<g id="node6" class="node">
<title>AuthModule</title>
<polygon fill="#8dd3c7" stroke="black" points="524.55,-149.8 521.55,-153.8 500.55,-153.8 497.55,-149.8 437.45,-149.8 437.45,-113.8 524.55,-113.8 524.55,-149.8"/>
<text text-anchor="middle" x="481" y="-127.6" font-family="Times,serif" font-size="14.00">AuthModule</text>
</g>
<!-- AuthComponent&#45;&gt;AuthModule -->
<g id="edge1" class="edge">
<title>AuthComponent&#45;&gt;AuthModule</title>
<path fill="none" stroke="black" d="M853,-85.08C853,-106.12 853,-137.8 853,-137.8 853,-137.8 534.77,-137.8 534.77,-137.8"/>
<polygon fill="black" stroke="black" points="534.77,-134.3 524.77,-137.8 534.77,-141.3 534.77,-134.3"/>
</g>
<!-- FyleCallbackComponent -->
<g id="node2" class="node">
<title>FyleCallbackComponent</title>
<polygon fill="#ffffb3" stroke="black" points="779.98,-84.8 624.02,-84.8 624.02,-48.8 779.98,-48.8 779.98,-84.8"/>
<text text-anchor="middle" x="702" y="-62.6" font-family="Times,serif" font-size="14.00">FyleCallbackComponent</text>
</g>
<!-- FyleCallbackComponent&#45;&gt;AuthModule -->
<g id="edge2" class="edge">
<title>FyleCallbackComponent&#45;&gt;AuthModule</title>
<path fill="none" stroke="black" d="M702,-84.82C702,-102.17 702,-125.8 702,-125.8 702,-125.8 534.66,-125.8 534.66,-125.8"/>
<polygon fill="black" stroke="black" points="534.66,-122.3 524.66,-125.8 534.66,-129.3 534.66,-122.3"/>
</g>
<!-- LoginComponent -->
<g id="node3" class="node">
<title>LoginComponent</title>
<polygon fill="#ffffb3" stroke="black" points="606.27,-84.8 491.73,-84.8 491.73,-48.8 606.27,-48.8 606.27,-84.8"/>
<text text-anchor="middle" x="549" y="-62.6" font-family="Times,serif" font-size="14.00">LoginComponent</text>
</g>
<!-- LoginComponent&#45;&gt;AuthModule -->
<g id="edge3" class="edge">
<title>LoginComponent&#45;&gt;AuthModule</title>
<path fill="none" stroke="black" d="M508.19,-84.91C508.19,-84.91 508.19,-103.79 508.19,-103.79"/>
<polygon fill="black" stroke="black" points="504.69,-103.79 508.19,-113.79 511.69,-103.79 504.69,-103.79"/>
</g>
<!-- LogoutComponent -->
<g id="node4" class="node">
<title>LogoutComponent</title>
<polygon fill="#ffffb3" stroke="black" points="473.77,-84.8 352.23,-84.8 352.23,-48.8 473.77,-48.8 473.77,-84.8"/>
<text text-anchor="middle" x="413" y="-62.6" font-family="Times,serif" font-size="14.00">LogoutComponent</text>
</g>
<!-- LogoutComponent&#45;&gt;AuthModule -->
<g id="edge4" class="edge">
<title>LogoutComponent&#45;&gt;AuthModule</title>
<path fill="none" stroke="black" d="M455.56,-84.91C455.56,-84.91 455.56,-103.79 455.56,-103.79"/>
<polygon fill="black" stroke="black" points="452.06,-103.79 455.56,-113.79 459.06,-103.79 452.06,-103.79"/>
</g>
<!-- SharedLoginComponent -->
<g id="node5" class="node">
<title>SharedLoginComponent</title>
<polygon fill="#ffffb3" stroke="black" points="333.65,-84.8 180.35,-84.8 180.35,-48.8 333.65,-48.8 333.65,-84.8"/>
<text text-anchor="middle" x="257" y="-62.6" font-family="Times,serif" font-size="14.00">SharedLoginComponent</text>
</g>
<!-- SharedLoginComponent&#45;&gt;AuthModule -->
<g id="edge5" class="edge">
<title>SharedLoginComponent&#45;&gt;AuthModule</title>
<path fill="none" stroke="black" d="M257,-84.82C257,-102.17 257,-125.8 257,-125.8 257,-125.8 427.28,-125.8 427.28,-125.8"/>
<polygon fill="black" stroke="black" points="427.28,-129.3 437.28,-125.8 427.28,-122.3 427.28,-129.3"/>
</g>
<!-- AuthRoutingModule -->
<g id="node7" class="node">
<title>AuthRoutingModule</title>
<polygon fill="#8dd3c7" stroke="black" points="156.17,-84.8 153.17,-88.8 132.17,-88.8 129.17,-84.8 23.83,-84.8 23.83,-48.8 156.17,-48.8 156.17,-84.8"/>
<text text-anchor="middle" x="90" y="-62.6" font-family="Times,serif" font-size="14.00">AuthRoutingModule</text>
</g>
<!-- AuthRoutingModule&#45;&gt;AuthModule -->
<g id="edge6" class="edge">
<title>AuthRoutingModule&#45;&gt;AuthModule</title>
<path fill="none" stroke="black" d="M90,-85.08C90,-106.12 90,-137.8 90,-137.8 90,-137.8 427.29,-137.8 427.29,-137.8"/>
<polygon fill="black" stroke="black" points="427.29,-141.3 437.29,-137.8 427.29,-134.3 427.29,-141.3"/>
</g>
</g>
</svg>
