<?xml version="1.0" encoding="UTF-8" standalone="no"?>
<!DOCTYPE svg PUBLIC "-//W3C//DTD SVG 1.1//EN"
 "http://www.w3.org/Graphics/SVG/1.1/DTD/svg11.dtd">
<!-- Generated by graphviz version 2.47.0 (20210316.0004)
 -->
<!-- Title: dependencies Pages: 1 -->
<svg width="940pt" height="211pt"
 viewBox="0.00 0.00 940.00 211.00" xmlns="http://www.w3.org/2000/svg" xmlns:xlink="http://www.w3.org/1999/xlink">
<g id="graph0" class="graph" transform="scale(1 1) rotate(0) translate(4 207)">
<title>dependencies</title>
<polygon fill="white" stroke="transparent" points="-4,4 -4,-207 936,-207 936,4 -4,4"/>
<text text-anchor="start" x="445.01" y="-42.4" font-family="Times-12" font-weight="bold" font-size="14.00">Legend</text>
<polygon fill="#ffffb3" stroke="transparent" points="232,-10 232,-30 252,-30 252,-10 232,-10"/>
<text text-anchor="start" x="255.63" y="-15.4" font-family="Times-12" font-size="14.00"> &#160;Declarations</text>
<polygon fill="#8dd3c7" stroke="transparent" points="345,-10 345,-30 365,-30 365,-10 345,-10"/>
<text text-anchor="start" x="368.73" y="-15.4" font-family="Times-12" font-size="14.00"> &#160;Module</text>
<polygon fill="#80b1d3" stroke="transparent" points="431,-10 431,-30 451,-30 451,-10 431,-10"/>
<text text-anchor="start" x="454.78" y="-15.4" font-family="Times-12" font-size="14.00"> &#160;Bootstrap</text>
<polygon fill="#fdb462" stroke="transparent" points="528,-10 528,-30 548,-30 548,-10 528,-10"/>
<text text-anchor="start" x="551.67" y="-15.4" font-family="Times-12" font-size="14.00"> &#160;Providers</text>
<polygon fill="#fb8072" stroke="transparent" points="624,-10 624,-30 644,-30 644,-10 624,-10"/>
<text text-anchor="start" x="647.73" y="-15.4" font-family="Times-12" font-size="14.00"> &#160;Exports</text>
<g id="clust1" class="cluster">
<title>cluster_AuthModule</title>
<polygon fill="none" stroke="black" stroke-dasharray="1,5" points="8,-70 8,-195 924,-195 924,-70 8,-70"/>
</g>
<g id="clust2" class="cluster">
<title>cluster_AuthModule_declarations</title>
<polygon fill="none" stroke="black" points="172,-78 172,-130 916,-130 916,-78 172,-78"/>
</g>
<g id="clust8" class="cluster">
<title>cluster_AuthModule_imports</title>
<polygon fill="none" stroke="black" points="16,-78 16,-130 164,-130 164,-78 16,-78"/>
</g>
<!-- AuthComponent -->
<g id="node1" class="node">
<title>AuthComponent</title>
<polygon fill="#ffffb3" stroke="black" points="907.83,-122 798.17,-122 798.17,-86 907.83,-86 907.83,-122"/>
<text text-anchor="middle" x="853" y="-99.8" font-family="Times,serif" font-size="14.00">AuthComponent</text>
</g>
<!-- AuthModule -->
<g id="node6" class="node">
<title>AuthModule</title>
<polygon fill="#8dd3c7" stroke="black" points="524.55,-187 521.55,-191 500.55,-191 497.55,-187 437.45,-187 437.45,-151 524.55,-151 524.55,-187"/>
<text text-anchor="middle" x="481" y="-164.8" font-family="Times,serif" font-size="14.00">AuthModule</text>
</g>
<!-- AuthComponent&#45;&gt;AuthModule -->
<g id="edge1" class="edge">
<title>AuthComponent&#45;&gt;AuthModule</title>
<path fill="none" stroke="black" d="M853,-122.28C853,-143.32 853,-175 853,-175 853,-175 534.77,-175 534.77,-175"/>
<polygon fill="black" stroke="black" points="534.77,-171.5 524.77,-175 534.77,-178.5 534.77,-171.5"/>
</g>
<!-- FyleCallbackComponent -->
<g id="node2" class="node">
<title>FyleCallbackComponent</title>
<polygon fill="#ffffb3" stroke="black" points="779.98,-122 624.02,-122 624.02,-86 779.98,-86 779.98,-122"/>
<text text-anchor="middle" x="702" y="-99.8" font-family="Times,serif" font-size="14.00">FyleCallbackComponent</text>
</g>
<!-- FyleCallbackComponent&#45;&gt;AuthModule -->
<g id="edge2" class="edge">
<title>FyleCallbackComponent&#45;&gt;AuthModule</title>
<path fill="none" stroke="black" d="M702,-122.02C702,-139.37 702,-163 702,-163 702,-163 534.66,-163 534.66,-163"/>
<polygon fill="black" stroke="black" points="534.66,-159.5 524.66,-163 534.66,-166.5 534.66,-159.5"/>
</g>
<!-- LoginComponent -->
<g id="node3" class="node">
<title>LoginComponent</title>
<polygon fill="#ffffb3" stroke="black" points="606.28,-122 491.72,-122 491.72,-86 606.28,-86 606.28,-122"/>
<text text-anchor="middle" x="549" y="-99.8" font-family="Times,serif" font-size="14.00">LoginComponent</text>
</g>
<!-- LoginComponent&#45;&gt;AuthModule -->
<g id="edge3" class="edge">
<title>LoginComponent&#45;&gt;AuthModule</title>
<path fill="none" stroke="black" d="M508.19,-122.11C508.19,-122.11 508.19,-140.99 508.19,-140.99"/>
<polygon fill="black" stroke="black" points="504.69,-140.99 508.19,-150.99 511.69,-140.99 504.69,-140.99"/>
</g>
<!-- LogoutComponent -->
<g id="node4" class="node">
<title>LogoutComponent</title>
<polygon fill="#ffffb3" stroke="black" points="473.78,-122 352.22,-122 352.22,-86 473.78,-86 473.78,-122"/>
<text text-anchor="middle" x="413" y="-99.8" font-family="Times,serif" font-size="14.00">LogoutComponent</text>
</g>
<!-- LogoutComponent&#45;&gt;AuthModule -->
<g id="edge4" class="edge">
<title>LogoutComponent&#45;&gt;AuthModule</title>
<path fill="none" stroke="black" d="M455.56,-122.11C455.56,-122.11 455.56,-140.99 455.56,-140.99"/>
<polygon fill="black" stroke="black" points="452.06,-140.99 455.56,-150.99 459.06,-140.99 452.06,-140.99"/>
</g>
<!-- SharedLoginComponent -->
<g id="node5" class="node">
<title>SharedLoginComponent</title>
<polygon fill="#ffffb3" stroke="black" points="333.65,-122 180.35,-122 180.35,-86 333.65,-86 333.65,-122"/>
<text text-anchor="middle" x="257" y="-99.8" font-family="Times,serif" font-size="14.00">SharedLoginComponent</text>
</g>
<!-- SharedLoginComponent&#45;&gt;AuthModule -->
<g id="edge5" class="edge">
<title>SharedLoginComponent&#45;&gt;AuthModule</title>
<path fill="none" stroke="black" d="M257,-122.02C257,-139.37 257,-163 257,-163 257,-163 427.28,-163 427.28,-163"/>
<polygon fill="black" stroke="black" points="427.28,-166.5 437.28,-163 427.28,-159.5 427.28,-166.5"/>
</g>
<!-- AuthRoutingModule -->
<g id="node7" class="node">
<title>AuthRoutingModule</title>
<polygon fill="#8dd3c7" stroke="black" points="156.17,-122 153.17,-126 132.17,-126 129.17,-122 23.83,-122 23.83,-86 156.17,-86 156.17,-122"/>
<text text-anchor="middle" x="90" y="-99.8" font-family="Times,serif" font-size="14.00">AuthRoutingModule</text>
</g>
<!-- AuthRoutingModule&#45;&gt;AuthModule -->
<g id="edge6" class="edge">
<title>AuthRoutingModule&#45;&gt;AuthModule</title>
<path fill="none" stroke="black" d="M90,-122.28C90,-143.32 90,-175 90,-175 90,-175 427.29,-175 427.29,-175"/>
<polygon fill="black" stroke="black" points="427.29,-178.5 437.29,-175 427.29,-171.5 427.29,-178.5"/>
</g>
</g>
</svg>
