<svg width="298" height="60" viewBox="0 0 298 60" fill="none" xmlns="http://www.w3.org/2000/svg">
<g id="logos">
<g id="qb-logo">
<path id="Shape" fill-rule="evenodd" clip-rule="evenodd" d="M175.224 28.3164C177.137 26.5214 179.162 25.3172 181.911 25.3172L181.912 25.3178C188.041 25.3178 192.689 30.1249 192.689 36.7491C192.689 43.4736 187.985 48.3557 181.78 48.3557C178.987 48.3557 176.294 46.8854 174.94 44.6586H174.849V47.7412H169.102V13.9124H175.112V28.3164H175.224ZM271.05 25.9317H263.298L255.538 34.9817H255.404V13.913H249.393V47.7412H255.404V36.9847H255.538L263.59 47.7412H271.499L262.142 35.8222L271.05 25.9317ZM195.458 36.7495C195.458 30.1256 200.421 25.3185 207.261 25.3182C214.101 25.3182 219.065 30.1254 219.065 36.7495C219.065 43.5575 213.99 48.4148 207.261 48.4148C200.532 48.4148 195.458 43.6037 195.458 36.7495ZM76.0451 28.7013H76.1785V25.9322H81.9702V58.4812H75.959V45.1202H75.8701C74.3356 46.8599 71.6893 48.3561 68.8719 48.3561C62.6666 48.3561 58.3086 43.4751 58.3086 36.7495C58.3086 30.1254 63.0312 25.3188 69.16 25.3188C72.8957 25.3188 75.1954 27.7599 76.0451 28.7013ZM134.071 43.2107C130.412 43.2107 128.567 39.9353 128.567 36.767C128.567 33.5998 130.569 30.4631 133.896 30.4631C135.454 30.4631 137.424 31.2467 138.197 32.3477L142.071 28.4803C140.197 26.5004 137.207 25.3188 133.896 25.3188C127.158 25.3188 122.268 30.1632 122.268 36.8375C122.268 43.6195 127.104 48.3567 134.028 48.3567C137.322 48.3567 140.367 47.3904 142.172 45.446L138.404 41.3943C137.533 42.4564 135.709 43.2113 134.071 43.2113V43.2107ZM295.043 42.7891C293.66 42.7891 292.541 43.8997 292.541 45.2849C292.541 46.67 293.66 47.7586 295.043 47.7586C296.425 47.7586 297.545 46.6706 297.545 45.2849C297.545 43.8992 296.425 42.7891 295.043 42.7891ZM295.047 43.8665C295.574 43.8665 296.09 44.0869 296.09 44.6918L296.089 44.6901C296.089 45.0966 295.837 45.3605 295.442 45.4484L296.199 46.6808H295.585L294.927 45.5042H294.565V46.6813H294.059V43.8665H295.047ZM294.568 44.2955V45.1069L294.569 45.1063H294.979C295.268 45.1063 295.6 45.0288 295.6 44.6844C295.6 44.3731 295.301 44.2955 295.034 44.2955H294.568ZM292.913 45.2849C292.913 46.4389 293.857 47.3951 295.02 47.3951V47.3956C296.183 47.3956 297.127 46.4389 297.127 45.2849C297.127 44.1196 296.183 43.1742 295.02 43.1742C293.857 43.1742 292.913 44.1196 292.913 45.2849ZM118.408 47.7418H112.397V25.9323H118.408V47.7418ZM101.482 37.8896C101.482 40.4525 99.8148 43.2115 96.707 43.2115C94.3111 43.2115 93.0327 41.4994 93.0327 37.9776V25.9324H87.0198V39.4682C87.0198 43.9726 89.2632 48.3563 95.2615 48.3563C98.0901 48.3563 100.46 46.125 101.654 44.4777H101.744V47.7418H107.492V25.9324H101.48V37.8896H101.482ZM70.3278 43.2109C66.6107 43.2109 64.4984 39.9603 64.4984 36.7503C64.4984 33.6795 66.4379 30.3753 70.3278 30.3753C73.9054 30.3753 76.1196 33.7297 76.1196 36.8371C76.1196 39.9699 73.9532 43.2109 70.3284 43.2109H70.3278ZM207.247 43.2109C203.327 43.2109 201.542 39.8622 201.542 36.7503C201.542 33.6795 203.327 30.3753 207.247 30.3753C211.167 30.3753 212.952 33.6789 212.952 36.7497C212.952 39.8616 211.167 43.2104 207.246 43.2104L207.247 43.2109ZM278.217 31.9249C278.217 33.1793 279.306 33.5778 282.4 34.318L282.4 34.3186C285.436 35.0475 289.704 36.5376 289.704 40.9687C289.704 45.5999 286.217 48.4063 280.341 48.4063C276.842 48.4063 273.43 47.0742 271.437 44.8586L275.086 41.1519C276.315 42.6143 278.594 43.7418 280.561 43.7418C281.347 43.7418 283.633 43.412 283.633 41.3938C283.633 40.0238 282.423 39.446 279.03 38.6539C275.811 37.8815 272.521 36.6131 272.521 32.4075C272.521 27.5101 277.089 25.3188 281.44 25.3188C284.843 25.3188 288.066 26.5196 289.706 28.5829L286.161 31.9903C285.368 30.9304 283.261 29.8142 281.396 29.8142C280.405 29.8142 278.217 30.1942 278.217 31.9249ZM180.713 43.2108C177.087 43.2108 174.92 39.9692 174.92 36.8364C174.92 33.729 177.135 30.3746 180.713 30.3746C184.602 30.3746 186.537 33.6782 186.537 36.749C186.537 39.9596 184.43 43.2097 180.713 43.2097V43.2108ZM159.093 25.9317H166.846L157.937 35.8222L167.295 47.7412H159.385L151.333 36.9847H151.199V47.7412H145.188V13.913H151.199V34.9817H151.333L159.093 25.9317ZM233.676 25.3171C226.836 25.3171 221.872 30.1248 221.872 36.7489C221.872 43.6031 226.946 48.4142 233.675 48.4142C240.403 48.4142 245.478 43.5569 245.478 36.7489C245.478 30.1248 240.514 25.3176 233.675 25.3176L233.676 25.3171ZM227.952 36.749C227.952 39.861 229.737 43.2108 233.658 43.2108L233.656 43.2097C237.577 43.2097 239.362 39.861 239.362 36.749C239.362 33.6782 237.577 30.3746 233.658 30.3746C229.737 30.3746 227.952 33.6788 227.952 36.749Z" fill="black"/>
<ellipse id="Oval" cx="26.2077" cy="26.6043" rx="25.321" ry="25.369" fill="#2CA01C"/>
<path id="Shape_2" fill-rule="evenodd" clip-rule="evenodd" d="M33.2661 16.739H34.6728C40.1107 16.739 44.5199 21.1561 44.5199 26.6048C44.5199 32.0535 40.1107 36.4705 34.6728 36.4705H27.6336V9.97394C29.6537 9.97394 31.2911 11.6145 31.2911 13.6384V32.8061H34.6728C38.085 32.8061 40.8624 30.0239 40.8624 26.6048C40.8624 23.1856 38.085 20.4034 34.6728 20.4034H33.2661V16.739ZM17.7845 36.4689C12.3462 36.4689 7.9375 32.0518 7.9375 26.6031C7.9375 21.155 12.3462 16.7374 17.7845 16.7374H24.8221V43.2339C22.802 43.2339 21.1646 41.5934 21.1646 39.5695V20.4018H17.7845C14.3713 20.4018 11.595 23.1839 11.595 26.6031C11.595 30.0229 14.3713 32.8045 17.7845 32.8045H19.1913V36.4689H17.7845Z" fill="white"/>
<path id="Shape_3" fill-rule="evenodd" clip-rule="evenodd" d="M84.7656 5.33598C84.7656 6.2611 84.0167 7.01202 83.0928 7.01202C82.1688 7.01202 81.4193 6.26054 81.4193 5.33598C81.4193 4.41029 82.1688 3.65936 83.0928 3.65936C84.0173 3.65936 84.7656 4.41029 84.7656 5.33598ZM69.6736 10.2454C70.1575 9.13592 71.473 8.14145 73.1105 8.14145L73.1099 8.14201C75.9954 8.14201 77.195 10.361 77.195 12.6273V19.5626H74.4266V13.4131C74.4266 12.0951 74.1267 10.4545 72.3486 10.4545C70.5964 10.4545 69.7659 11.9801 69.7659 13.4594V19.5626H66.9974V8.46561H69.6269V10.2454H69.6736ZM61.3789 19.5618H64.1473V8.46485H61.3789V19.5618ZM113.413 5.33598C113.413 6.2611 112.664 7.01259 111.739 7.01259L111.74 7.01202C110.816 7.01202 110.068 6.26054 110.068 5.33598C110.068 4.41029 110.817 3.65936 111.74 3.65936C112.664 3.65936 113.413 4.41029 113.413 5.33598ZM107.243 8.45918V10.9166H110.348V19.5612H113.117V10.9172H116.221V8.45918H107.243ZM105.3 19.5613H102.532V8.46485H105.3V19.5613ZM78.5989 10.9171H81.7033V19.5617H84.4717V10.9171H87.576V8.45911H78.5983V10.9171H78.5989ZM94.333 17.5735C96.0858 17.5735 96.9169 16.0479 96.9169 14.5686H96.918V8.46485H99.6864V19.5624H97.0559V17.7821H97.0092C96.5253 18.8921 95.2097 19.886 93.5723 19.886C90.6868 19.886 89.4872 17.6671 89.4872 15.4008V8.46542H92.2567V14.6137C92.2567 15.9329 92.5561 17.5735 94.333 17.5735Z" fill="black"/>
</g>
</g>
</svg>
