<?xml version="1.0" encoding="UTF-8" standalone="no"?>
<!DOCTYPE svg PUBLIC "-//W3C//DTD SVG 1.1//EN"
 "http://www.w3.org/Graphics/SVG/1.1/DTD/svg11.dtd">
<!-- Generated by graphviz version 2.47.0 (20210316.0004)
 -->
<!-- Title: dependencies Pages: 1 -->
<svg width="1622pt" height="211pt"
 viewBox="0.00 0.00 1622.00 211.00" xmlns="http://www.w3.org/2000/svg" xmlns:xlink="http://www.w3.org/1999/xlink">
<g id="graph0" class="graph" transform="scale(1 1) rotate(0) translate(4 207)">
<title>dependencies</title>
<polygon fill="white" stroke="transparent" points="-4,4 -4,-207 1618,-207 1618,4 -4,4"/>
<text text-anchor="start" x="786.01" y="-42.4" font-family="Times-12" font-weight="bold" font-size="14.00">Legend</text>
<polygon fill="#ffffb3" stroke="transparent" points="573,-10 573,-30 593,-30 593,-10 573,-10"/>
<text text-anchor="start" x="596.63" y="-15.4" font-family="Times-12" font-size="14.00"> &#160;Declarations</text>
<polygon fill="#8dd3c7" stroke="transparent" points="686,-10 686,-30 706,-30 706,-10 686,-10"/>
<text text-anchor="start" x="709.73" y="-15.4" font-family="Times-12" font-size="14.00"> &#160;Module</text>
<polygon fill="#80b1d3" stroke="transparent" points="772,-10 772,-30 792,-30 792,-10 772,-10"/>
<text text-anchor="start" x="795.78" y="-15.4" font-family="Times-12" font-size="14.00"> &#160;Bootstrap</text>
<polygon fill="#fdb462" stroke="transparent" points="869,-10 869,-30 889,-30 889,-10 869,-10"/>
<text text-anchor="start" x="892.67" y="-15.4" font-family="Times-12" font-size="14.00"> &#160;Providers</text>
<polygon fill="#fb8072" stroke="transparent" points="965,-10 965,-30 985,-30 985,-10 965,-10"/>
<text text-anchor="start" x="988.73" y="-15.4" font-family="Times-12" font-size="14.00"> &#160;Exports</text>
<g id="clust1" class="cluster">
<title>cluster_ConfigurationModule</title>
<polygon fill="none" stroke="black" stroke-dasharray="1,5" points="8,-70 8,-195 1606,-195 1606,-70 8,-70"/>
</g>
<g id="clust2" class="cluster">
<title>cluster_ConfigurationModule_declarations</title>
<polygon fill="none" stroke="black" points="340,-78 340,-130 1598,-130 1598,-78 340,-78"/>
</g>
<g id="clust8" class="cluster">
<title>cluster_ConfigurationModule_imports</title>
<polygon fill="none" stroke="black" points="16,-78 16,-130 332,-130 332,-78 16,-78"/>
</g>
<!-- ConfigurationAdvancedSettingsComponent -->
<g id="node1" class="node">
<title>ConfigurationAdvancedSettingsComponent</title>
<polygon fill="#ffffb3" stroke="black" points="1589.74,-122 1328.26,-122 1328.26,-86 1589.74,-86 1589.74,-122"/>
<text text-anchor="middle" x="1459" y="-99.8" font-family="Times,serif" font-size="14.00">ConfigurationAdvancedSettingsComponent</text>
</g>
<!-- ConfigurationModule -->
<g id="node6" class="node">
<title>ConfigurationModule</title>
<polygon fill="#8dd3c7" stroke="black" points="800.09,-187 797.09,-191 776.09,-191 773.09,-187 661.91,-187 661.91,-151 800.09,-151 800.09,-187"/>
<text text-anchor="middle" x="731" y="-164.8" font-family="Times,serif" font-size="14.00">ConfigurationModule</text>
</g>
<!-- ConfigurationAdvancedSettingsComponent&#45;&gt;ConfigurationModule -->
<g id="edge1" class="edge">
<title>ConfigurationAdvancedSettingsComponent&#45;&gt;ConfigurationModule</title>
<path fill="none" stroke="black" d="M1459,-122.29C1459,-144.21 1459,-178 1459,-178 1459,-178 810.14,-178 810.14,-178"/>
<polygon fill="black" stroke="black" points="810.14,-174.5 800.14,-178 810.14,-181.5 810.14,-174.5"/>
</g>
<!-- ConfigurationComponent -->
<g id="node2" class="node">
<title>ConfigurationComponent</title>
<polygon fill="#ffffb3" stroke="black" points="1309.88,-122 1150.12,-122 1150.12,-86 1309.88,-86 1309.88,-122"/>
<text text-anchor="middle" x="1230" y="-99.8" font-family="Times,serif" font-size="14.00">ConfigurationComponent</text>
</g>
<!-- ConfigurationComponent&#45;&gt;ConfigurationModule -->
<g id="edge2" class="edge">
<title>ConfigurationComponent&#45;&gt;ConfigurationModule</title>
<path fill="none" stroke="black" d="M1230,-122.11C1230,-141.34 1230,-169 1230,-169 1230,-169 810.12,-169 810.12,-169"/>
<polygon fill="black" stroke="black" points="810.12,-165.5 800.12,-169 810.12,-172.5 810.12,-165.5"/>
</g>
<!-- ConfigurationEmployeeSettingsComponent -->
<g id="node3" class="node">
<title>ConfigurationEmployeeSettingsComponent</title>
<polygon fill="#ffffb3" stroke="black" points="1131.75,-122 870.25,-122 870.25,-86 1131.75,-86 1131.75,-122"/>
<text text-anchor="middle" x="1001" y="-99.8" font-family="Times,serif" font-size="14.00">ConfigurationEmployeeSettingsComponent</text>
</g>
<!-- ConfigurationEmployeeSettingsComponent&#45;&gt;ConfigurationModule -->
<g id="edge3" class="edge">
<title>ConfigurationEmployeeSettingsComponent&#45;&gt;ConfigurationModule</title>
<path fill="none" stroke="black" d="M1001,-122.03C1001,-138.4 1001,-160 1001,-160 1001,-160 810.18,-160 810.18,-160"/>
<polygon fill="black" stroke="black" points="810.18,-156.5 800.18,-160 810.18,-163.5 810.18,-156.5"/>
</g>
<!-- ConfigurationExportSettingsComponent -->
<g id="node4" class="node">
<title>ConfigurationExportSettingsComponent</title>
<polygon fill="#ffffb3" stroke="black" points="852.59,-122 609.41,-122 609.41,-86 852.59,-86 852.59,-122"/>
<text text-anchor="middle" x="731" y="-99.8" font-family="Times,serif" font-size="14.00">ConfigurationExportSettingsComponent</text>
</g>
<!-- ConfigurationExportSettingsComponent&#45;&gt;ConfigurationModule -->
<g id="edge4" class="edge">
<title>ConfigurationExportSettingsComponent&#45;&gt;ConfigurationModule</title>
<path fill="none" stroke="black" d="M731,-122.11C731,-122.11 731,-140.99 731,-140.99"/>
<polygon fill="black" stroke="black" points="727.5,-140.99 731,-150.99 734.5,-140.99 727.5,-140.99"/>
</g>
<!-- ConfigurationImportSettingsComponent -->
<g id="node5" class="node">
<title>ConfigurationImportSettingsComponent</title>
<polygon fill="#ffffb3" stroke="black" points="591.59,-122 348.41,-122 348.41,-86 591.59,-86 591.59,-122"/>
<text text-anchor="middle" x="470" y="-99.8" font-family="Times,serif" font-size="14.00">ConfigurationImportSettingsComponent</text>
</g>
<!-- ConfigurationImportSettingsComponent&#45;&gt;ConfigurationModule -->
<g id="edge5" class="edge">
<title>ConfigurationImportSettingsComponent&#45;&gt;ConfigurationModule</title>
<path fill="none" stroke="black" d="M470,-122.03C470,-138.4 470,-160 470,-160 470,-160 651.74,-160 651.74,-160"/>
<polygon fill="black" stroke="black" points="651.74,-163.5 661.74,-160 651.74,-156.5 651.74,-163.5"/>
</g>
<!-- ConfigurationRoutingModule -->
<g id="node7" class="node">
<title>ConfigurationRoutingModule</title>
<polygon fill="#8dd3c7" stroke="black" points="323.71,-122 320.71,-126 299.71,-126 296.71,-122 140.29,-122 140.29,-86 323.71,-86 323.71,-122"/>
<text text-anchor="middle" x="232" y="-99.8" font-family="Times,serif" font-size="14.00">ConfigurationRoutingModule</text>
</g>
<!-- ConfigurationRoutingModule&#45;&gt;ConfigurationModule -->
<g id="edge6" class="edge">
<title>ConfigurationRoutingModule&#45;&gt;ConfigurationModule</title>
<path fill="none" stroke="black" d="M232,-122.11C232,-141.34 232,-169 232,-169 232,-169 651.88,-169 651.88,-169"/>
<polygon fill="black" stroke="black" points="651.88,-172.5 661.88,-169 651.88,-165.5 651.88,-172.5"/>
</g>
<!-- SharedModule -->
<g id="node8" class="node">
<title>SharedModule</title>
<polygon fill="#8dd3c7" stroke="black" points="122.42,-122 119.42,-126 98.42,-126 95.42,-122 23.58,-122 23.58,-86 122.42,-86 122.42,-122"/>
<text text-anchor="middle" x="73" y="-99.8" font-family="Times,serif" font-size="14.00">SharedModule</text>
</g>
<!-- SharedModule&#45;&gt;ConfigurationModule -->
<g id="edge7" class="edge">
<title>SharedModule&#45;&gt;ConfigurationModule</title>
<path fill="none" stroke="black" d="M73,-122.29C73,-144.21 73,-178 73,-178 73,-178 651.83,-178 651.83,-178"/>
<polygon fill="black" stroke="black" points="651.83,-181.5 661.83,-178 651.83,-174.5 651.83,-181.5"/>
</g>
</g>
</svg>
