<?xml version="1.0" encoding="UTF-8" standalone="no"?>
<!DOCTYPE svg PUBLIC "-//W3C//DTD SVG 1.1//EN"
 "http://www.w3.org/Graphics/SVG/1.1/DTD/svg11.dtd">
<!-- Generated by graphviz version 2.47.0 (20210316.0004)
 -->
<!-- Title: dependencies Pages: 1 -->
<svg width="1622pt" height="211pt"
 viewBox="0.00 0.00 1622.00 211.00" xmlns="http://www.w3.org/2000/svg" xmlns:xlink="http://www.w3.org/1999/xlink">
<g id="graph0" class="graph" transform="scale(1 1) rotate(0) translate(4 207)">
<title>dependencies</title>
<polygon fill="white" stroke="transparent" points="-4,4 -4,-207 1618,-207 1618,4 -4,4"/>
<text text-anchor="start" x="786.01" y="-42.4" font-family="Times-12" font-weight="bold" font-size="14.00">Legend</text>
<polygon fill="#ffffb3" stroke="transparent" points="573,-10 573,-30 593,-30 593,-10 573,-10"/>
<text text-anchor="start" x="596.63" y="-15.4" font-family="Times-12" font-size="14.00"> &#160;Declarations</text>
<polygon fill="#8dd3c7" stroke="transparent" points="686,-10 686,-30 706,-30 706,-10 686,-10"/>
<text text-anchor="start" x="709.73" y="-15.4" font-family="Times-12" font-size="14.00"> &#160;Module</text>
<polygon fill="#80b1d3" stroke="transparent" points="772,-10 772,-30 792,-30 792,-10 772,-10"/>
<text text-anchor="start" x="795.78" y="-15.4" font-family="Times-12" font-size="14.00"> &#160;Bootstrap</text>
<polygon fill="#fdb462" stroke="transparent" points="869,-10 869,-30 889,-30 889,-10 869,-10"/>
<text text-anchor="start" x="892.67" y="-15.4" font-family="Times-12" font-size="14.00"> &#160;Providers</text>
<polygon fill="#fb8072" stroke="transparent" points="965,-10 965,-30 985,-30 985,-10 965,-10"/>
<text text-anchor="start" x="988.73" y="-15.4" font-family="Times-12" font-size="14.00"> &#160;Exports</text>
<g id="clust1" class="cluster">
<title>cluster_ConfigurationModule</title>
<polygon fill="none" stroke="black" stroke-dasharray="1,5" points="8,-70 8,-195 1606,-195 1606,-70 8,-70"/>
</g>
<g id="clust8" class="cluster">
<title>cluster_ConfigurationModule_imports</title>
<polygon fill="none" stroke="black" points="1282,-78 1282,-130 1598,-130 1598,-78 1282,-78"/>
</g>
<g id="clust2" class="cluster">
<title>cluster_ConfigurationModule_declarations</title>
<polygon fill="none" stroke="black" points="16,-78 16,-130 1274,-130 1274,-78 16,-78"/>
</g>
<!-- ConfigurationAdvancedSettingsComponent -->
<g id="node1" class="node">
<title>ConfigurationAdvancedSettingsComponent</title>
<polygon fill="#ffffb3" stroke="black" points="1265.74,-122 1004.26,-122 1004.26,-86 1265.74,-86 1265.74,-122"/>
<text text-anchor="middle" x="1135" y="-99.8" font-family="Times,serif" font-size="14.00">ConfigurationAdvancedSettingsComponent</text>
</g>
<!-- ConfigurationModule -->
<g id="node6" class="node">
<title>ConfigurationModule</title>
<polygon fill="#8dd3c7" stroke="black" points="975.09,-187 972.09,-191 951.09,-191 948.09,-187 836.91,-187 836.91,-151 975.09,-151 975.09,-187"/>
<text text-anchor="middle" x="906" y="-164.8" font-family="Times,serif" font-size="14.00">ConfigurationModule</text>
</g>
<!-- ConfigurationAdvancedSettingsComponent&#45;&gt;ConfigurationModule -->
<g id="edge1" class="edge">
<title>ConfigurationAdvancedSettingsComponent&#45;&gt;ConfigurationModule</title>
<path fill="none" stroke="black" d="M1135,-122.03C1135,-138.4 1135,-160 1135,-160 1135,-160 985.33,-160 985.33,-160"/>
<polygon fill="black" stroke="black" points="985.33,-156.5 975.33,-160 985.33,-163.5 985.33,-156.5"/>
</g>
<!-- ConfigurationComponent -->
<g id="node2" class="node">
<title>ConfigurationComponent</title>
<polygon fill="#ffffb3" stroke="black" points="985.88,-122 826.12,-122 826.12,-86 985.88,-86 985.88,-122"/>
<text text-anchor="middle" x="906" y="-99.8" font-family="Times,serif" font-size="14.00">ConfigurationComponent</text>
</g>
<!-- ConfigurationComponent&#45;&gt;ConfigurationModule -->
<g id="edge2" class="edge">
<title>ConfigurationComponent&#45;&gt;ConfigurationModule</title>
<path fill="none" stroke="black" d="M906,-122.11C906,-122.11 906,-140.99 906,-140.99"/>
<polygon fill="black" stroke="black" points="902.5,-140.99 906,-150.99 909.5,-140.99 902.5,-140.99"/>
</g>
<!-- ConfigurationEmployeeSettingsComponent -->
<g id="node3" class="node">
<title>ConfigurationEmployeeSettingsComponent</title>
<polygon fill="#ffffb3" stroke="black" points="807.75,-122 546.25,-122 546.25,-86 807.75,-86 807.75,-122"/>
<text text-anchor="middle" x="677" y="-99.8" font-family="Times,serif" font-size="14.00">ConfigurationEmployeeSettingsComponent</text>
</g>
<!-- ConfigurationEmployeeSettingsComponent&#45;&gt;ConfigurationModule -->
<g id="edge3" class="edge">
<title>ConfigurationEmployeeSettingsComponent&#45;&gt;ConfigurationModule</title>
<path fill="none" stroke="black" d="M677,-122.03C677,-138.4 677,-160 677,-160 677,-160 826.67,-160 826.67,-160"/>
<polygon fill="black" stroke="black" points="826.67,-163.5 836.67,-160 826.67,-156.5 826.67,-163.5"/>
</g>
<!-- ConfigurationExportSettingsComponent -->
<g id="node4" class="node">
<title>ConfigurationExportSettingsComponent</title>
<polygon fill="#ffffb3" stroke="black" points="528.59,-122 285.41,-122 285.41,-86 528.59,-86 528.59,-122"/>
<text text-anchor="middle" x="407" y="-99.8" font-family="Times,serif" font-size="14.00">ConfigurationExportSettingsComponent</text>
</g>
<!-- ConfigurationExportSettingsComponent&#45;&gt;ConfigurationModule -->
<g id="edge4" class="edge">
<title>ConfigurationExportSettingsComponent&#45;&gt;ConfigurationModule</title>
<path fill="none" stroke="black" d="M407,-122.11C407,-141.34 407,-169 407,-169 407,-169 826.88,-169 826.88,-169"/>
<polygon fill="black" stroke="black" points="826.88,-172.5 836.88,-169 826.88,-165.5 826.88,-172.5"/>
</g>
<!-- ConfigurationImportSettingsComponent -->
<g id="node5" class="node">
<title>ConfigurationImportSettingsComponent</title>
<polygon fill="#ffffb3" stroke="black" points="267.59,-122 24.41,-122 24.41,-86 267.59,-86 267.59,-122"/>
<text text-anchor="middle" x="146" y="-99.8" font-family="Times,serif" font-size="14.00">ConfigurationImportSettingsComponent</text>
</g>
<!-- ConfigurationImportSettingsComponent&#45;&gt;ConfigurationModule -->
<g id="edge5" class="edge">
<title>ConfigurationImportSettingsComponent&#45;&gt;ConfigurationModule</title>
<path fill="none" stroke="black" d="M146,-122.29C146,-144.21 146,-178 146,-178 146,-178 826.88,-178 826.88,-178"/>
<polygon fill="black" stroke="black" points="826.88,-181.5 836.88,-178 826.88,-174.5 826.88,-181.5"/>
</g>
<!-- ConfigurationRoutingModule -->
<g id="node7" class="node">
<title>ConfigurationRoutingModule</title>
<polygon fill="#8dd3c7" stroke="black" points="1589.71,-122 1586.71,-126 1565.71,-126 1562.71,-122 1406.29,-122 1406.29,-86 1589.71,-86 1589.71,-122"/>
<text text-anchor="middle" x="1498" y="-99.8" font-family="Times,serif" font-size="14.00">ConfigurationRoutingModule</text>
</g>
<!-- ConfigurationRoutingModule&#45;&gt;ConfigurationModule -->
<g id="edge6" class="edge">
<title>ConfigurationRoutingModule&#45;&gt;ConfigurationModule</title>
<path fill="none" stroke="black" d="M1498,-122.29C1498,-144.21 1498,-178 1498,-178 1498,-178 985.07,-178 985.07,-178"/>
<polygon fill="black" stroke="black" points="985.07,-174.5 975.07,-178 985.07,-181.5 985.07,-174.5"/>
</g>
<!-- SharedModule -->
<g id="node8" class="node">
<title>SharedModule</title>
<polygon fill="#8dd3c7" stroke="black" points="1388.42,-122 1385.42,-126 1364.42,-126 1361.42,-122 1289.58,-122 1289.58,-86 1388.42,-86 1388.42,-122"/>
<text text-anchor="middle" x="1339" y="-99.8" font-family="Times,serif" font-size="14.00">SharedModule</text>
</g>
<!-- SharedModule&#45;&gt;ConfigurationModule -->
<g id="edge7" class="edge">
<title>SharedModule&#45;&gt;ConfigurationModule</title>
<path fill="none" stroke="black" d="M1339,-122.11C1339,-141.34 1339,-169 1339,-169 1339,-169 985.09,-169 985.09,-169"/>
<polygon fill="black" stroke="black" points="985.09,-165.5 975.09,-169 985.09,-172.5 985.09,-165.5"/>
</g>
</g>
</svg>
