<?xml version="1.0" encoding="UTF-8" standalone="no"?>
<!DOCTYPE svg PUBLIC "-//W3C//DTD SVG 1.1//EN"
 "http://www.w3.org/Graphics/SVG/1.1/DTD/svg11.dtd">
<!-- Generated by graphviz version 5.0.0 (20220707.1540)
 -->
<!-- Title: dependencies Pages: 1 -->
<svg width="1622pt" height="174pt"
 viewBox="0.00 0.00 1622.00 173.80" xmlns="http://www.w3.org/2000/svg" xmlns:xlink="http://www.w3.org/1999/xlink">
<g id="graph0" class="graph" transform="scale(1 1) rotate(0) translate(4 169.8)">
<title>dependencies</title>
<polygon fill="white" stroke="transparent" points="-4,4 -4,-169.8 1618,-169.8 1618,4 -4,4"/>
<text text-anchor="middle" x="807" y="-8.2" font-family="sans-serif" font-size="14.00">dependencies</text>
<g id="clust1" class="cluster">
<title>cluster_ConfigurationModule</title>
<polygon fill="none" stroke="black" stroke-dasharray="1,5" points="8,-32.8 8,-157.8 1606,-157.8 1606,-32.8 8,-32.8"/>
</g>
<g id="clust8" class="cluster">
<title>cluster_ConfigurationModule_imports</title>
<polygon fill="none" stroke="black" points="1282,-40.8 1282,-92.8 1598,-92.8 1598,-40.8 1282,-40.8"/>
</g>
<g id="clust2" class="cluster">
<title>cluster_ConfigurationModule_declarations</title>
<polygon fill="none" stroke="black" points="16,-40.8 16,-92.8 1274,-92.8 1274,-40.8 16,-40.8"/>
</g>
<!-- ConfigurationAdvancedSettingsComponent -->
<g id="node1" class="node">
<title>ConfigurationAdvancedSettingsComponent</title>
<polygon fill="#ffffb3" stroke="black" points="1265.75,-84.8 1004.25,-84.8 1004.25,-48.8 1265.75,-48.8 1265.75,-84.8"/>
<text text-anchor="middle" x="1135" y="-62.6" font-family="Times,serif" font-size="14.00">ConfigurationAdvancedSettingsComponent</text>
</g>
<!-- ConfigurationModule -->
<g id="node6" class="node">
<title>ConfigurationModule</title>
<polygon fill="#8dd3c7" stroke="black" points="975.1,-149.8 972.1,-153.8 951.1,-153.8 948.1,-149.8 836.9,-149.8 836.9,-113.8 975.1,-113.8 975.1,-149.8"/>
<text text-anchor="middle" x="906" y="-127.6" font-family="Times,serif" font-size="14.00">ConfigurationModule</text>
</g>
<!-- ConfigurationAdvancedSettingsComponent&#45;&gt;ConfigurationModule -->
<g id="edge1" class="edge">
<title>ConfigurationAdvancedSettingsComponent&#45;&gt;ConfigurationModule</title>
<path fill="none" stroke="black" d="M1135,-84.83C1135,-101.2 1135,-122.8 1135,-122.8 1135,-122.8 985.33,-122.8 985.33,-122.8"/>
<polygon fill="black" stroke="black" points="985.33,-119.3 975.33,-122.8 985.33,-126.3 985.33,-119.3"/>
</g>
<!-- ConfigurationComponent -->
<g id="node2" class="node">
<title>ConfigurationComponent</title>
<polygon fill="#ffffb3" stroke="black" points="985.88,-84.8 826.12,-84.8 826.12,-48.8 985.88,-48.8 985.88,-84.8"/>
<text text-anchor="middle" x="906" y="-62.6" font-family="Times,serif" font-size="14.00">ConfigurationComponent</text>
</g>
<!-- ConfigurationComponent&#45;&gt;ConfigurationModule -->
<g id="edge2" class="edge">
<title>ConfigurationComponent&#45;&gt;ConfigurationModule</title>
<path fill="none" stroke="black" d="M906,-84.91C906,-84.91 906,-103.79 906,-103.79"/>
<polygon fill="black" stroke="black" points="902.5,-103.79 906,-113.79 909.5,-103.79 902.5,-103.79"/>
</g>
<!-- ConfigurationEmployeeSettingsComponent -->
<g id="node3" class="node">
<title>ConfigurationEmployeeSettingsComponent</title>
<polygon fill="#ffffb3" stroke="black" points="807.75,-84.8 546.25,-84.8 546.25,-48.8 807.75,-48.8 807.75,-84.8"/>
<text text-anchor="middle" x="677" y="-62.6" font-family="Times,serif" font-size="14.00">ConfigurationEmployeeSettingsComponent</text>
</g>
<!-- ConfigurationEmployeeSettingsComponent&#45;&gt;ConfigurationModule -->
<g id="edge3" class="edge">
<title>ConfigurationEmployeeSettingsComponent&#45;&gt;ConfigurationModule</title>
<path fill="none" stroke="black" d="M677,-84.83C677,-101.2 677,-122.8 677,-122.8 677,-122.8 826.67,-122.8 826.67,-122.8"/>
<polygon fill="black" stroke="black" points="826.67,-126.3 836.67,-122.8 826.67,-119.3 826.67,-126.3"/>
</g>
<!-- ConfigurationExportSettingsComponent -->
<g id="node4" class="node">
<title>ConfigurationExportSettingsComponent</title>
<polygon fill="#ffffb3" stroke="black" points="528.6,-84.8 285.4,-84.8 285.4,-48.8 528.6,-48.8 528.6,-84.8"/>
<text text-anchor="middle" x="407" y="-62.6" font-family="Times,serif" font-size="14.00">ConfigurationExportSettingsComponent</text>
</g>
<!-- ConfigurationExportSettingsComponent&#45;&gt;ConfigurationModule -->
<g id="edge4" class="edge">
<title>ConfigurationExportSettingsComponent&#45;&gt;ConfigurationModule</title>
<path fill="none" stroke="black" d="M407,-84.91C407,-104.14 407,-131.8 407,-131.8 407,-131.8 826.88,-131.8 826.88,-131.8"/>
<polygon fill="black" stroke="black" points="826.88,-135.3 836.88,-131.8 826.88,-128.3 826.88,-135.3"/>
</g>
<!-- ConfigurationImportSettingsComponent -->
<g id="node5" class="node">
<title>ConfigurationImportSettingsComponent</title>
<polygon fill="#ffffb3" stroke="black" points="267.6,-84.8 24.4,-84.8 24.4,-48.8 267.6,-48.8 267.6,-84.8"/>
<text text-anchor="middle" x="146" y="-62.6" font-family="Times,serif" font-size="14.00">ConfigurationImportSettingsComponent</text>
</g>
<!-- ConfigurationImportSettingsComponent&#45;&gt;ConfigurationModule -->
<g id="edge5" class="edge">
<title>ConfigurationImportSettingsComponent&#45;&gt;ConfigurationModule</title>
<path fill="none" stroke="black" d="M146,-85.09C146,-107.01 146,-140.8 146,-140.8 146,-140.8 826.88,-140.8 826.88,-140.8"/>
<polygon fill="black" stroke="black" points="826.88,-144.3 836.88,-140.8 826.88,-137.3 826.88,-144.3"/>
</g>
<!-- ConfigurationRoutingModule -->
<g id="node7" class="node">
<title>ConfigurationRoutingModule</title>
<polygon fill="#8dd3c7" stroke="black" points="1589.71,-84.8 1586.71,-88.8 1565.71,-88.8 1562.71,-84.8 1406.29,-84.8 1406.29,-48.8 1589.71,-48.8 1589.71,-84.8"/>
<text text-anchor="middle" x="1498" y="-62.6" font-family="Times,serif" font-size="14.00">ConfigurationRoutingModule</text>
</g>
<!-- ConfigurationRoutingModule&#45;&gt;ConfigurationModule -->
<g id="edge6" class="edge">
<title>ConfigurationRoutingModule&#45;&gt;ConfigurationModule</title>
<path fill="none" stroke="black" d="M1498,-85.09C1498,-107.01 1498,-140.8 1498,-140.8 1498,-140.8 985.07,-140.8 985.07,-140.8"/>
<polygon fill="black" stroke="black" points="985.07,-137.3 975.07,-140.8 985.07,-144.3 985.07,-137.3"/>
</g>
<!-- SharedModule -->
<g id="node8" class="node">
<title>SharedModule</title>
<polygon fill="#8dd3c7" stroke="black" points="1388.43,-84.8 1385.43,-88.8 1364.43,-88.8 1361.43,-84.8 1289.57,-84.8 1289.57,-48.8 1388.43,-48.8 1388.43,-84.8"/>
<text text-anchor="middle" x="1339" y="-62.6" font-family="Times,serif" font-size="14.00">SharedModule</text>
</g>
<!-- SharedModule&#45;&gt;ConfigurationModule -->
<g id="edge7" class="edge">
<title>SharedModule&#45;&gt;ConfigurationModule</title>
<path fill="none" stroke="black" d="M1339,-84.91C1339,-104.14 1339,-131.8 1339,-131.8 1339,-131.8 985.09,-131.8 985.09,-131.8"/>
<polygon fill="black" stroke="black" points="985.09,-128.3 975.09,-131.8 985.09,-135.3 985.09,-128.3"/>
</g>
</g>
</svg>
